<svg width="160" height="150" viewBox="0 0 160 150" fill="none" xmlns="http://www.w3.org/2000/svg">
<path fill-rule="evenodd" clip-rule="evenodd" d="M66.8598 0L79.9999 29.5322L93.14 0L136.715 97.7583H110.435L127.826 136.647H138.84L126.667 109.357H141.932L160 150H118.454L106.28 122.71H27.4396L21.1594 136.647H32.1739L35.7488 128.655H51.0144L41.5458 150H0L18.0676 109.357H44.3478L49.5652 97.7583H23.285L66.8598 0ZM93.1401 34.2105L115.459 84.4054H77.2516L71.3043 97.7583H95.169L100.386 109.357H59.6135L79.9999 63.7427L86.5699 78.3626H101.797L87.6328 46.4912L93.1401 34.2105ZM66.8596 34.308L72.3669 46.5887L55.4587 84.4054H44.4995L66.8596 34.308Z" fill="#F3F4F9"/>
</svg>
