<svg width="92" height="150" viewBox="0 0 92 150" fill="none" xmlns="http://www.w3.org/2000/svg">
<path d="M1.76599 149.924V144.952H0V144.299H4.28119V144.952H2.5152V149.924H1.76599Z" fill="#F3F4F9"/>
<path d="M4.62581 149.924V145.895H5.35208V146.397H5.38266C5.4693 146.245 5.59672 146.11 5.76491 145.994C5.9331 145.877 6.17009 145.819 6.47589 145.819C6.56253 145.819 6.64153 145.824 6.71288 145.834C6.78424 145.839 6.81991 145.842 6.81991 145.842V146.534C6.81991 146.534 6.77914 146.531 6.69759 146.526C6.62114 146.516 6.5396 146.511 6.45295 146.511C6.10129 146.511 5.82861 146.612 5.63494 146.815C5.44637 147.013 5.35208 147.337 5.35208 147.788V149.924H4.62581Z" fill="#F3F4F9"/>
<path d="M9.07184 145.819C9.32667 145.819 9.54073 145.86 9.71401 145.941C9.8873 146.022 10.0275 146.118 10.1345 146.23C10.2415 146.336 10.3231 146.437 10.3791 146.534H10.425V145.895H11.1513V149.924H10.425V149.285H10.3791C10.3231 149.382 10.2415 149.486 10.1345 149.597C10.0275 149.709 9.8873 149.805 9.71401 149.886C9.54073 149.962 9.32667 150 9.07184 150C8.76604 150 8.49846 149.942 8.26911 149.825C8.03976 149.704 7.84864 149.544 7.69574 149.346C7.54284 149.144 7.42817 148.918 7.35172 148.67C7.27527 148.421 7.23704 148.168 7.23704 147.91C7.23704 147.651 7.27527 147.398 7.35172 147.149C7.42817 146.901 7.54284 146.678 7.69574 146.48C7.84864 146.278 8.03976 146.118 8.26911 146.001C8.49846 145.88 8.76604 145.819 9.07184 145.819ZM9.19416 146.435C8.92403 146.435 8.69723 146.508 8.51375 146.655C8.33027 146.797 8.19266 146.98 8.10092 147.203C8.01428 147.426 7.97096 147.661 7.97096 147.91C7.97096 148.153 8.01428 148.388 8.10092 148.616C8.19266 148.839 8.33027 149.024 8.51375 149.171C8.69723 149.313 8.92403 149.384 9.19416 149.384C9.46428 149.384 9.68853 149.313 9.86691 149.171C10.0504 149.024 10.1855 148.839 10.2721 148.616C10.3638 148.388 10.4097 148.153 10.4097 147.91C10.4097 147.661 10.3638 147.426 10.2721 147.203C10.1855 146.98 10.0504 146.797 9.86691 146.655C9.68853 146.508 9.46428 146.435 9.19416 146.435Z" fill="#F3F4F9"/>
<path d="M12.2185 149.924V145.895H12.9448V146.48H12.9907C13.0263 146.42 13.0849 146.336 13.1665 146.23C13.2531 146.123 13.3755 146.029 13.5335 145.948C13.6914 145.862 13.8902 145.819 14.1298 145.819C14.4254 145.819 14.6777 145.887 14.8866 146.024C15.0956 146.156 15.2536 146.336 15.3606 146.564C15.4727 146.792 15.5288 147.048 15.5288 147.332V149.924H14.8025V147.377C14.8025 147.109 14.7261 146.886 14.5732 146.708C14.4254 146.531 14.2088 146.442 13.9233 146.442C13.694 146.442 13.508 146.501 13.3653 146.617C13.2226 146.729 13.1155 146.878 13.0442 147.066C12.9779 147.248 12.9448 147.443 12.9448 147.651V149.924H12.2185Z" fill="#F3F4F9"/>
<path d="M18.0841 150C17.7732 150 17.5158 149.957 17.3119 149.871C17.1132 149.785 16.9552 149.678 16.8379 149.552C16.7207 149.42 16.6341 149.291 16.578 149.164C16.5219 149.032 16.4863 148.923 16.471 148.837C16.4557 148.751 16.448 148.708 16.448 148.708H17.182C17.182 148.708 17.1896 148.743 17.2049 148.814C17.2253 148.88 17.2635 148.959 17.3196 149.05C17.3807 149.136 17.4725 149.214 17.5948 149.285C17.7222 149.351 17.8904 149.384 18.0994 149.384C18.3389 149.384 18.5249 149.329 18.6574 149.217C18.79 149.1 18.8562 148.959 18.8562 148.791C18.8562 148.644 18.8027 148.528 18.6957 148.442C18.5937 148.355 18.4459 148.29 18.2523 148.244L17.7018 148.115C17.498 148.064 17.3068 147.996 17.1284 147.91C16.9501 147.823 16.8048 147.707 16.6927 147.56C16.5857 147.408 16.5321 147.22 16.5321 146.997C16.5321 146.653 16.6621 146.371 16.922 146.154C17.182 145.931 17.5209 145.819 17.9388 145.819C18.2191 145.819 18.451 145.86 18.6345 145.941C18.818 146.017 18.9632 146.113 19.0703 146.23C19.1824 146.346 19.2639 146.463 19.3149 146.579C19.371 146.696 19.4066 146.795 19.4219 146.876C19.4372 146.952 19.4449 146.99 19.4449 146.99H18.7415C18.7415 146.99 18.7339 146.962 18.7186 146.906C18.7033 146.845 18.6676 146.779 18.6116 146.708C18.5606 146.632 18.4816 146.567 18.3746 146.511C18.2675 146.45 18.1248 146.42 17.9465 146.42C17.7018 146.42 17.5234 146.475 17.4113 146.587C17.2992 146.698 17.2431 146.82 17.2431 146.952C17.2431 147.078 17.2941 147.182 17.396 147.263C17.503 147.339 17.6407 147.398 17.8088 147.438L18.3669 147.567C18.7135 147.649 18.9989 147.783 19.2232 147.97C19.4525 148.153 19.5672 148.416 19.5672 148.761C19.5672 148.984 19.5086 149.192 19.3914 149.384C19.2741 149.572 19.1059 149.721 18.8868 149.833C18.6676 149.944 18.4001 150 18.0841 150Z" fill="#F3F4F9"/>
<path d="M20.4832 149.924V145.895H21.2094V146.48H21.24C21.2808 146.404 21.3445 146.316 21.4311 146.214C21.5178 146.108 21.635 146.017 21.7828 145.941C21.9357 145.86 22.1268 145.819 22.3562 145.819C22.6569 145.819 22.9092 145.893 23.113 146.039C23.322 146.181 23.4774 146.374 23.5794 146.617H23.587C23.6991 146.394 23.8571 146.207 24.061 146.055C24.27 145.898 24.5401 145.819 24.8714 145.819C25.3097 145.819 25.6461 145.969 25.8805 146.268C26.12 146.561 26.2398 146.942 26.2398 147.408V149.924H25.5135V147.446C25.5135 147.147 25.4422 146.906 25.2995 146.724C25.1568 146.536 24.9504 146.442 24.6802 146.442C24.4458 146.442 24.2572 146.506 24.1145 146.632C23.9769 146.759 23.8775 146.916 23.8164 147.104C23.7552 147.291 23.7246 147.479 23.7246 147.666V149.924H22.9983V147.446C22.9983 147.147 22.927 146.906 22.7843 146.724C22.6467 146.536 22.4403 146.442 22.165 146.442C21.9306 146.442 21.742 146.506 21.5993 146.632C21.4617 146.759 21.3623 146.919 21.3012 147.111C21.24 147.299 21.2094 147.484 21.2094 147.666V149.924H20.4832Z" fill="#F3F4F9"/>
<path d="M27.7809 145.127C27.6433 145.127 27.5286 145.082 27.4369 144.99C27.3502 144.899 27.3069 144.79 27.3069 144.664C27.3069 144.532 27.3502 144.42 27.4369 144.329C27.5286 144.238 27.6433 144.192 27.7809 144.192C27.9134 144.192 28.0255 144.238 28.1173 144.329C28.209 144.42 28.2549 144.532 28.2549 144.664C28.2549 144.79 28.209 144.899 28.1173 144.99C28.0255 145.082 27.9134 145.127 27.7809 145.127ZM27.4216 149.924V145.895H28.1478V149.924H27.4216Z" fill="#F3F4F9"/>
<path d="M30.8058 150C30.4949 150 30.2375 149.957 30.0336 149.871C29.8349 149.785 29.6769 149.678 29.5596 149.552C29.4424 149.42 29.3558 149.291 29.2997 149.164C29.2437 149.032 29.208 148.923 29.1927 148.837C29.1774 148.751 29.1698 148.708 29.1698 148.708H29.9037C29.9037 148.708 29.9113 148.743 29.9266 148.814C29.947 148.88 29.9852 148.959 30.0413 149.05C30.1024 149.136 30.1942 149.214 30.3165 149.285C30.4439 149.351 30.6121 149.384 30.8211 149.384C31.0606 149.384 31.2466 149.329 31.3791 149.217C31.5117 149.1 31.5779 148.959 31.5779 148.791C31.5779 148.644 31.5244 148.528 31.4174 148.442C31.3154 148.355 31.1676 148.29 30.974 148.244L30.4235 148.115C30.2197 148.064 30.0285 147.996 29.8502 147.91C29.6718 147.823 29.5265 147.707 29.4144 147.56C29.3074 147.408 29.2538 147.22 29.2538 146.997C29.2538 146.653 29.3838 146.371 29.6437 146.154C29.9037 145.931 30.2426 145.819 30.6605 145.819C30.9408 145.819 31.1727 145.86 31.3562 145.941C31.5397 146.017 31.6849 146.113 31.792 146.23C31.9041 146.346 31.9857 146.463 32.0366 146.579C32.0927 146.696 32.1284 146.795 32.1436 146.876C32.1589 146.952 32.1666 146.99 32.1666 146.99H31.4632C31.4632 146.99 31.4556 146.962 31.4403 146.906C31.425 146.845 31.3893 146.779 31.3333 146.708C31.2823 146.632 31.2033 146.567 31.0963 146.511C30.9893 146.45 30.8465 146.42 30.6682 146.42C30.4235 146.42 30.2451 146.475 30.133 146.587C30.0209 146.698 29.9648 146.82 29.9648 146.952C29.9648 147.078 30.0158 147.182 30.1177 147.263C30.2248 147.339 30.3624 147.398 30.5306 147.438L31.0886 147.567C31.4352 147.649 31.7206 147.783 31.9449 147.97C32.1742 148.153 32.2889 148.416 32.2889 148.761C32.2889 148.984 32.2303 149.192 32.1131 149.384C31.9958 149.572 31.8277 149.721 31.6085 149.833C31.3893 149.944 31.1218 150 30.8058 150Z" fill="#F3F4F9"/>
<path d="M34.688 150C34.3771 150 34.1197 149.957 33.9158 149.871C33.7171 149.785 33.5591 149.678 33.4419 149.552C33.3246 149.42 33.238 149.291 33.1819 149.164C33.1259 149.032 33.0902 148.923 33.0749 148.837C33.0596 148.751 33.052 148.708 33.052 148.708H33.7859C33.7859 148.708 33.7935 148.743 33.8088 148.814C33.8292 148.88 33.8674 148.959 33.9235 149.05C33.9847 149.136 34.0764 149.214 34.1987 149.285C34.3261 149.351 34.4943 149.384 34.7033 149.384C34.9428 149.384 35.1288 149.329 35.2614 149.217C35.3939 149.1 35.4601 148.959 35.4601 148.791C35.4601 148.644 35.4066 148.528 35.2996 148.442C35.1977 148.355 35.0498 148.29 34.8562 148.244L34.3057 148.115C34.1019 148.064 33.9108 147.996 33.7324 147.91C33.554 147.823 33.4087 147.707 33.2966 147.56C33.1896 147.408 33.1361 147.22 33.1361 146.997C33.1361 146.653 33.266 146.371 33.526 146.154C33.7859 145.931 34.1248 145.819 34.5427 145.819C34.8231 145.819 35.0549 145.86 35.2384 145.941C35.4219 146.017 35.5672 146.113 35.6742 146.23C35.7863 146.346 35.8679 146.463 35.9188 146.579C35.9749 146.696 36.0106 146.795 36.0259 146.876C36.0411 146.952 36.0488 146.99 36.0488 146.99H35.3455C35.3455 146.99 35.3378 146.962 35.3225 146.906C35.3072 146.845 35.2716 146.779 35.2155 146.708C35.1645 146.632 35.0855 146.567 34.9785 146.511C34.8715 146.45 34.7288 146.42 34.5504 146.42C34.3057 146.42 34.1274 146.475 34.0152 146.587C33.9031 146.698 33.847 146.82 33.847 146.952C33.847 147.078 33.898 147.182 33.9999 147.263C34.107 147.339 34.2446 147.398 34.4128 147.438L34.9709 147.567C35.3174 147.649 35.6028 147.783 35.8271 147.97C36.0564 148.153 36.1711 148.416 36.1711 148.761C36.1711 148.984 36.1125 149.192 35.9953 149.384C35.8781 149.572 35.7099 149.721 35.4907 149.833C35.2716 149.944 35.004 150 34.688 150Z" fill="#F3F4F9"/>
<path d="M39.497 145.234C39.3594 145.234 39.2422 145.208 39.1454 145.158C39.0536 145.107 38.9721 145.049 38.9007 144.983C38.8345 144.917 38.7708 144.859 38.7096 144.808C38.6484 144.757 38.5822 144.732 38.5108 144.732C38.4242 144.732 38.3605 144.775 38.3197 144.861C38.284 144.942 38.2662 145.051 38.2662 145.188H37.7769C37.7769 145.031 37.7948 144.879 37.8304 144.732C37.8712 144.58 37.9426 144.456 38.0445 144.359C38.1464 144.258 38.2866 144.207 38.465 144.207C38.6026 144.207 38.7198 144.233 38.8166 144.283C38.9135 144.334 38.995 144.392 39.0613 144.458C39.1326 144.519 39.1989 144.575 39.26 144.626C39.3212 144.676 39.3849 144.702 39.4512 144.702C39.5327 144.702 39.5913 144.661 39.627 144.58C39.6678 144.499 39.6882 144.387 39.6882 144.245H40.1774C40.1774 144.403 40.1571 144.557 40.1163 144.709C40.0806 144.861 40.0118 144.988 39.9099 145.089C39.813 145.186 39.6754 145.234 39.497 145.234ZM38.809 145.819C39.0638 145.819 39.2779 145.86 39.4512 145.941C39.6245 146.022 39.7646 146.118 39.8716 146.23C39.9787 146.336 40.0602 146.437 40.1163 146.534H40.1621V145.895H40.8884V149.924H40.1621V149.285H40.1163C40.0602 149.382 39.9787 149.486 39.8716 149.597C39.7646 149.709 39.6245 149.805 39.4512 149.886C39.2779 149.962 39.0638 150 38.809 150C38.5032 150 38.2356 149.942 38.0063 149.825C37.7769 149.704 37.5858 149.544 37.4329 149.346C37.28 149.144 37.1653 148.918 37.0889 148.67C37.0124 148.421 36.9742 148.168 36.9742 147.91C36.9742 147.651 37.0124 147.398 37.0889 147.149C37.1653 146.901 37.28 146.678 37.4329 146.48C37.5858 146.278 37.7769 146.118 38.0063 146.001C38.2356 145.88 38.5032 145.819 38.809 145.819ZM38.9313 146.435C38.6612 146.435 38.4344 146.508 38.2509 146.655C38.0674 146.797 37.9298 146.98 37.8381 147.203C37.7514 147.426 37.7081 147.661 37.7081 147.91C37.7081 148.153 37.7514 148.388 37.8381 148.616C37.9298 148.839 38.0674 149.024 38.2509 149.171C38.4344 149.313 38.6612 149.384 38.9313 149.384C39.2014 149.384 39.4257 149.313 39.6041 149.171C39.7875 149.024 39.9226 148.839 40.0092 148.616C40.101 148.388 40.1469 148.153 40.1469 147.91C40.1469 147.661 40.101 147.426 40.0092 147.203C39.9226 146.98 39.7875 146.797 39.6041 146.655C39.4257 146.508 39.2014 146.435 38.9313 146.435Z" fill="#F3F4F9"/>
<path d="M43.9259 150C43.4927 150 43.1283 149.901 42.8327 149.704C42.5371 149.501 42.3128 149.24 42.1599 148.921C42.007 148.601 41.9306 148.264 41.9306 147.91C41.9306 147.55 42.007 147.213 42.1599 146.898C42.3128 146.579 42.5371 146.321 42.8327 146.123C43.1283 145.92 43.4927 145.819 43.9259 145.819C44.3591 145.819 44.7236 145.92 45.0192 146.123C45.3148 146.321 45.539 146.579 45.6919 146.898C45.8448 147.213 45.9213 147.55 45.9213 147.91C45.9213 148.264 45.8448 148.601 45.6919 148.921C45.539 149.24 45.3148 149.501 45.0192 149.704C44.7236 149.901 44.3591 150 43.9259 150ZM43.9259 149.369C44.2011 149.369 44.4305 149.301 44.614 149.164C44.8025 149.022 44.9427 148.839 45.0344 148.616C45.1313 148.393 45.1797 148.158 45.1797 147.91C45.1797 147.656 45.1313 147.42 45.0344 147.203C44.9427 146.98 44.8025 146.8 44.614 146.663C44.4305 146.521 44.2011 146.45 43.9259 146.45C43.6558 146.45 43.4265 146.521 43.2379 146.663C43.0493 146.8 42.9066 146.98 42.8098 147.203C42.718 147.42 42.6721 147.656 42.6721 147.91C42.6721 148.158 42.718 148.393 42.8098 148.616C42.9066 148.839 43.0493 149.022 43.2379 149.164C43.4265 149.301 43.6558 149.369 43.9259 149.369Z" fill="#F3F4F9"/>
<path d="M48.4829 149.924L50.4782 144.299H51.4185L53.4215 149.924H52.6264L52.1525 148.578H49.7519L49.2779 149.924H48.4829ZM49.9813 147.91H51.9231L50.9522 145.15L49.9813 147.91Z" fill="#F3F4F9"/>
<path d="M55.4765 150C55.0738 150 54.7527 149.876 54.5132 149.628C54.2737 149.379 54.1539 149.035 54.1539 148.594V145.895H54.8802V148.556C54.8802 148.819 54.9515 149.022 55.0942 149.164C55.242 149.306 55.4357 149.377 55.6752 149.377C55.9199 149.377 56.1161 149.313 56.2639 149.187C56.4117 149.06 56.5187 148.898 56.585 148.7C56.6512 148.502 56.6844 148.3 56.6844 148.092V145.895H57.4106V149.924H56.6844V149.346H56.6385C56.6079 149.407 56.5493 149.491 56.4627 149.597C56.376 149.698 56.2537 149.792 56.0957 149.878C55.9377 149.959 55.7313 150 55.4765 150Z" fill="#F3F4F9"/>
<path d="M60.2042 150C59.7862 150 59.4702 149.894 59.2562 149.681C59.0472 149.468 58.9427 149.169 58.9427 148.784V146.488H58.2165V145.895H58.9427V144.884H59.669V145.895H60.6552V146.488H59.669V148.784C59.669 148.986 59.7251 149.136 59.8372 149.232C59.9493 149.323 60.1124 149.369 60.3265 149.369C60.4386 149.369 60.5456 149.361 60.6476 149.346C60.7495 149.331 60.8005 149.323 60.8005 149.323V149.939C60.8005 149.939 60.7419 149.949 60.6246 149.97C60.5074 149.99 60.3673 150 60.2042 150Z" fill="#F3F4F9"/>
<path d="M63.5236 150C63.0904 150 62.726 149.901 62.4304 149.704C62.1348 149.501 61.9105 149.24 61.7576 148.921C61.6047 148.601 61.5283 148.264 61.5283 147.91C61.5283 147.55 61.6047 147.213 61.7576 146.898C61.9105 146.579 62.1348 146.321 62.4304 146.123C62.726 145.92 63.0904 145.819 63.5236 145.819C63.9569 145.819 64.3213 145.92 64.6169 146.123C64.9125 146.321 65.1367 146.579 65.2896 146.898C65.4425 147.213 65.519 147.55 65.519 147.91C65.519 148.264 65.4425 148.601 65.2896 148.921C65.1367 149.24 64.9125 149.501 64.6169 149.704C64.3213 149.901 63.9569 150 63.5236 150ZM63.5236 149.369C63.7989 149.369 64.0282 149.301 64.2117 149.164C64.4003 149.022 64.5404 148.839 64.6322 148.616C64.729 148.393 64.7774 148.158 64.7774 147.91C64.7774 147.656 64.729 147.42 64.6322 147.203C64.5404 146.98 64.4003 146.8 64.2117 146.663C64.0282 146.521 63.7989 146.45 63.5236 146.45C63.2535 146.45 63.0242 146.521 62.8356 146.663C62.647 146.8 62.5043 146.98 62.4075 147.203C62.3157 147.42 62.2699 147.656 62.2699 147.91C62.2699 148.158 62.3157 148.393 62.4075 148.616C62.5043 148.839 62.647 149.022 62.8356 149.164C63.0242 149.301 63.2535 149.369 63.5236 149.369Z" fill="#F3F4F9"/>
<path d="M66.5098 149.924V145.895H67.236V146.48H67.2666C67.3074 146.404 67.3711 146.316 67.4577 146.214C67.5444 146.108 67.6616 146.017 67.8094 145.941C67.9623 145.86 68.1534 145.819 68.3828 145.819C68.6835 145.819 68.9358 145.893 69.1396 146.039C69.3486 146.181 69.5041 146.374 69.606 146.617H69.6136C69.7258 146.394 69.8838 146.207 70.0876 146.055C70.2966 145.898 70.5667 145.819 70.898 145.819C71.3363 145.819 71.6727 145.969 71.9071 146.268C72.1467 146.561 72.2664 146.942 72.2664 147.408V149.924H71.5402V147.446C71.5402 147.147 71.4688 146.906 71.3261 146.724C71.1834 146.536 70.977 146.442 70.7069 146.442C70.4724 146.442 70.2838 146.506 70.1411 146.632C70.0035 146.759 69.9041 146.916 69.843 147.104C69.7818 147.291 69.7512 147.479 69.7512 147.666V149.924H69.025V147.446C69.025 147.147 68.9536 146.906 68.8109 146.724C68.6733 146.536 68.4669 146.442 68.1917 146.442C67.9572 146.442 67.7686 146.506 67.6259 146.632C67.4883 146.759 67.3889 146.919 67.3278 147.111C67.2666 147.299 67.236 147.484 67.236 147.666V149.924H66.5098Z" fill="#F3F4F9"/>
<path d="M75.6041 145.287L74.9848 145.279L75.6423 143.911H76.3915L75.6041 145.287ZM75.1301 145.819C75.3849 145.819 75.599 145.86 75.7723 145.941C75.9455 146.022 76.0857 146.118 76.1927 146.23C76.2998 146.336 76.3813 146.437 76.4374 146.534H76.4832V145.895H77.2095V149.924H76.4832V149.285H76.4374C76.3813 149.382 76.2998 149.486 76.1927 149.597C76.0857 149.709 75.9455 149.805 75.7723 149.886C75.599 149.962 75.3849 150 75.1301 150C74.8243 150 74.5567 149.942 74.3274 149.825C74.098 149.704 73.9069 149.544 73.754 149.346C73.6011 149.144 73.4864 148.918 73.41 148.67C73.3335 148.421 73.2953 148.168 73.2953 147.91C73.2953 147.651 73.3335 147.398 73.41 147.149C73.4864 146.901 73.6011 146.678 73.754 146.48C73.9069 146.278 74.098 146.118 74.3274 146.001C74.5567 145.88 74.8243 145.819 75.1301 145.819ZM75.2524 146.435C74.9823 146.435 74.7555 146.508 74.572 146.655C74.3885 146.797 74.2509 146.98 74.1592 147.203C74.0725 147.426 74.0292 147.661 74.0292 147.91C74.0292 148.153 74.0725 148.388 74.1592 148.616C74.2509 148.839 74.3885 149.024 74.572 149.171C74.7555 149.313 74.9823 149.384 75.2524 149.384C75.5225 149.384 75.7468 149.313 75.9252 149.171C76.1086 149.024 76.2437 148.839 76.3303 148.616C76.4221 148.388 76.4679 148.153 76.4679 147.91C76.4679 147.661 76.4221 147.426 76.3303 147.203C76.2437 146.98 76.1086 146.797 75.9252 146.655C75.7468 146.508 75.5225 146.435 75.2524 146.435Z" fill="#F3F4F9"/>
<path d="M79.8989 150C79.481 150 79.165 149.894 78.951 149.681C78.742 149.468 78.6375 149.169 78.6375 148.784V146.488H77.9112V145.895H78.6375V144.884H79.3638V145.895H80.35V146.488H79.3638V148.784C79.3638 148.986 79.4199 149.136 79.532 149.232C79.6441 149.323 79.8072 149.369 80.0213 149.369C80.1334 149.369 80.2404 149.361 80.3423 149.346C80.4443 149.331 80.4952 149.323 80.4952 149.323V149.939C80.4952 149.939 80.4366 149.949 80.3194 149.97C80.2022 149.99 80.062 150 79.8989 150Z" fill="#F3F4F9"/>
<path d="M81.9228 145.127C81.7852 145.127 81.6705 145.082 81.5788 144.99C81.4922 144.899 81.4488 144.79 81.4488 144.664C81.4488 144.532 81.4922 144.42 81.5788 144.329C81.6705 144.238 81.7852 144.192 81.9228 144.192C82.0553 144.192 82.1675 144.238 82.2592 144.329C82.3509 144.42 82.3968 144.532 82.3968 144.664C82.3968 144.79 82.3509 144.899 82.2592 144.99C82.1675 145.082 82.0553 145.127 81.9228 145.127ZM81.5635 149.924V145.895H82.2898V149.924H81.5635Z" fill="#F3F4F9"/>
<path d="M85.3835 150C85.0522 150 84.7617 149.942 84.512 149.825C84.2622 149.704 84.0533 149.544 83.8851 149.346C83.722 149.144 83.5971 148.918 83.5105 148.67C83.4289 148.421 83.3881 148.168 83.3881 147.91C83.3881 147.651 83.4289 147.4 83.5105 147.157C83.592 146.909 83.7143 146.683 83.8774 146.48C84.0456 146.278 84.2546 146.118 84.5043 146.001C84.754 145.88 85.0471 145.819 85.3835 145.819C85.7097 145.819 85.9798 145.867 86.1939 145.963C86.4079 146.06 86.5786 146.181 86.7061 146.328C86.8386 146.47 86.9354 146.615 86.9966 146.762C87.0628 146.904 87.1061 147.023 87.1265 147.119C87.1469 147.215 87.1571 147.263 87.1571 147.263H86.4538C86.4538 147.263 86.441 147.223 86.4155 147.142C86.3901 147.056 86.3417 146.959 86.2703 146.853C86.1989 146.746 86.0919 146.653 85.9492 146.572C85.8065 146.485 85.6179 146.442 85.3835 146.442C85.1032 146.442 84.8662 146.513 84.6725 146.655C84.4839 146.792 84.3412 146.972 84.2444 147.195C84.1526 147.418 84.1068 147.656 84.1068 147.91C84.1068 148.163 84.1526 148.401 84.2444 148.624C84.3412 148.847 84.4839 149.03 84.6725 149.171C84.8662 149.308 85.1032 149.377 85.3835 149.377C85.6179 149.377 85.8065 149.336 85.9492 149.255C86.0919 149.169 86.1989 149.073 86.2703 148.966C86.3417 148.86 86.3901 148.766 86.4155 148.685C86.441 148.599 86.4538 148.556 86.4538 148.556H87.1571C87.1571 148.556 87.1469 148.604 87.1265 148.7C87.1061 148.796 87.0628 148.918 86.9966 149.065C86.9354 149.207 86.8386 149.351 86.7061 149.498C86.5786 149.64 86.4079 149.759 86.1939 149.856C85.9798 149.952 85.7097 150 85.3835 150Z" fill="#F3F4F9"/>
<path d="M89.9115 145.819C90.1663 145.819 90.3804 145.86 90.5536 145.941C90.7269 146.022 90.8671 146.118 90.9741 146.23C91.0811 146.336 91.1627 146.437 91.2188 146.534H91.2646V145.895H91.9909V149.924H91.2646V149.285H91.2188C91.1627 149.382 91.0811 149.486 90.9741 149.597C90.8671 149.709 90.7269 149.805 90.5536 149.886C90.3804 149.962 90.1663 150 89.9115 150C89.6057 150 89.3381 149.942 89.1087 149.825C88.8794 149.704 88.6883 149.544 88.5354 149.346C88.3825 149.144 88.2678 148.918 88.1913 148.67C88.1149 148.421 88.0767 148.168 88.0767 147.91C88.0767 147.651 88.1149 147.398 88.1913 147.149C88.2678 146.901 88.3825 146.678 88.5354 146.48C88.6883 146.278 88.8794 146.118 89.1087 146.001C89.3381 145.88 89.6057 145.819 89.9115 145.819ZM90.0338 146.435C89.7637 146.435 89.5369 146.508 89.3534 146.655C89.1699 146.797 89.0323 146.98 88.9405 147.203C88.8539 147.426 88.8106 147.661 88.8106 147.91C88.8106 148.153 88.8539 148.388 88.9405 148.616C89.0323 148.839 89.1699 149.024 89.3534 149.171C89.5369 149.313 89.7637 149.384 90.0338 149.384C90.3039 149.384 90.5282 149.313 90.7065 149.171C90.89 149.024 91.0251 148.839 91.1117 148.616C91.2035 148.388 91.2493 148.153 91.2493 147.91C91.2493 147.661 91.2035 147.426 91.1117 147.203C91.0251 146.98 90.89 146.797 90.7065 146.655C90.5282 146.508 90.3039 146.435 90.0338 146.435Z" fill="#F3F4F9"/>
<path d="M0 110.999L8.97184 84.6158H18.4243L27.3961 110.999H20.3468L14.0185 89.6526H13.3777L7.0493 110.999H0ZM5.32703 106.042V101.725H23.0304V106.042H5.32703Z" fill="#F3F4F9"/>
<path d="M36.904 111.559C34.394 111.559 32.4982 110.72 31.2165 109.041C29.9615 107.335 29.334 104.75 29.334 101.285V89.8925H35.8226V100.446C35.8226 102.418 36.1163 103.897 36.7037 104.883C37.2912 105.843 38.1857 106.322 39.3873 106.322C40.1082 106.322 40.7224 106.149 41.2297 105.803C41.7638 105.43 42.2043 104.923 42.5515 104.284C42.9253 103.617 43.1923 102.858 43.3525 102.005C43.5394 101.152 43.6329 100.219 43.6329 99.2067V89.8925H50.0814V110.999H44.9546L44.8345 104.483H44.0334C43.6329 106.136 43.1256 107.495 42.5114 108.561C41.924 109.6 41.1763 110.36 40.2684 110.84C39.3606 111.319 38.2391 111.559 36.904 111.559Z" fill="#F3F4F9"/>
<path d="M63.2904 111.519C60.8071 111.519 58.978 110.866 57.8031 109.56C56.6283 108.228 56.0408 106.109 56.0408 103.204V94.9294H53.0369L53.157 89.9325H55.3199C56.1743 89.9058 56.8152 89.7726 57.2424 89.5327C57.6963 89.2929 57.9767 88.8398 58.0835 88.1735L58.6042 85.2154H62.249V89.8925H67.3357V95.1292H62.249V102.924C62.249 103.831 62.4626 104.497 62.8899 104.923C63.3438 105.35 64.0247 105.563 64.9326 105.563C65.4399 105.563 65.9205 105.509 66.3745 105.403C66.8284 105.296 67.2022 105.15 67.4959 104.963V110.919C66.6415 111.186 65.8538 111.346 65.1328 111.399C64.4386 111.479 63.8244 111.519 63.2904 111.519Z" fill="#F3F4F9"/>
<path d="M80.9656 111.559C78.8294 111.559 76.9336 111.146 75.2781 110.32C73.6493 109.494 72.3676 108.254 71.433 106.602C70.4984 104.95 70.0312 102.884 70.0312 100.406C70.0312 97.9275 70.4984 95.8755 71.433 94.2498C72.3676 92.5975 73.6626 91.3716 75.3181 90.5721C76.9737 89.7459 78.8695 89.3328 81.0056 89.3328C83.1418 89.3328 85.0376 89.7459 86.6931 90.5721C88.3487 91.3982 89.6437 92.6375 90.5783 94.2898C91.5128 95.9154 91.9801 97.9675 91.9801 100.446C91.9801 102.978 91.4995 105.07 90.5382 106.722C89.5769 108.374 88.2552 109.6 86.573 110.4C84.9175 111.173 83.0483 111.559 80.9656 111.559ZM81.1659 106.882C82.1271 106.882 82.9282 106.669 83.569 106.242C84.2099 105.789 84.6905 105.11 85.0109 104.204C85.3313 103.298 85.4915 102.178 85.4915 100.846C85.4915 99.4333 85.318 98.2473 84.9709 97.2879C84.6237 96.3019 84.1031 95.5556 83.4088 95.0493C82.7413 94.5163 81.8735 94.2498 80.8054 94.2498C79.8975 94.2498 79.1098 94.4763 78.4423 94.9294C77.8014 95.3558 77.3208 96.022 77.0003 96.9281C76.6799 97.8342 76.5197 98.9669 76.5197 100.326C76.5197 102.511 76.9202 104.15 77.7213 105.243C78.5491 106.336 79.6972 106.882 81.1659 106.882Z" fill="#F3F4F9"/>
<path d="M0 136L0 116.868H5.78729V136H0Z" fill="#F3F4F9"/>
<path d="M10.436 136V116.868H15.0235L15.094 122.834H15.7998C16.1056 121.516 16.5409 120.41 17.1055 119.516C17.6701 118.621 18.3876 117.962 19.2581 117.539C20.1285 117.092 21.1519 116.868 22.3281 116.868C24.516 116.868 26.1746 117.633 27.3038 119.163C28.4566 120.692 29.0329 123.128 29.0329 126.469V136H23.3162V127.105C23.3162 125.175 23.0339 123.775 22.4693 122.904C21.9282 122.01 21.1166 121.563 20.0344 121.563C19.1404 121.563 18.3994 121.834 17.8112 122.375C17.2466 122.916 16.8232 123.634 16.5409 124.528C16.2585 125.422 16.1174 126.422 16.1174 127.528V136H10.436Z" fill="#F3F4F9"/>
<path d="M41.6866 136.494C39.8045 136.494 38.1342 136.129 36.6756 135.4C35.2406 134.67 34.1113 133.576 33.2879 132.117C32.4645 130.658 32.0528 128.834 32.0528 126.646C32.0528 124.457 32.4645 122.645 33.2879 121.21C34.1113 119.751 35.2523 118.668 36.7109 117.962C38.1695 117.233 39.8398 116.868 41.7218 116.868C43.6039 116.868 45.2742 117.233 46.7328 117.962C48.1914 118.692 49.3324 119.786 50.1558 121.245C50.9792 122.681 51.3909 124.493 51.3909 126.681C51.3909 128.917 50.9674 130.764 50.1205 132.223C49.2735 133.682 48.109 134.764 46.6269 135.47C45.1683 136.153 43.5216 136.494 41.6866 136.494ZM41.863 132.364C42.7099 132.364 43.4157 132.176 43.9803 131.799C44.5449 131.399 44.9684 130.799 45.2507 129.999C45.533 129.199 45.6741 128.211 45.6741 127.034C45.6741 125.787 45.5212 124.74 45.2154 123.893C44.9096 123.022 44.4508 122.363 43.8391 121.916C43.251 121.445 42.4864 121.21 41.5454 121.21C40.7455 121.21 40.0515 121.41 39.4634 121.81C38.8988 122.187 38.4753 122.775 38.193 123.575C37.9107 124.375 37.7695 125.375 37.7695 126.575C37.7695 128.505 38.1224 129.952 38.8282 130.917C39.5575 131.882 40.5691 132.364 41.863 132.364Z" fill="#F3F4F9"/>
<path d="M58.5734 136L52.4685 117.398H58.7851L62.314 131.552H62.9139L66.5133 117.398H72.5476L66.4074 136H58.5734Z" fill="#F3F4F9"/>
<path d="M83.4602 136.494C81.9075 136.494 80.5195 136.294 79.2962 135.894C78.0729 135.47 77.026 134.859 76.1555 134.059C75.3086 133.258 74.6617 132.27 74.2147 131.093C73.7677 129.917 73.5442 128.564 73.5442 127.034C73.5442 125.552 73.7559 124.187 74.1794 122.94C74.6264 121.692 75.2498 120.622 76.0497 119.727C76.8731 118.81 77.8729 118.104 79.0492 117.61C80.249 117.115 81.5899 116.868 83.0721 116.868C84.5777 116.868 85.8951 117.115 87.0244 117.61C88.1771 118.08 89.1181 118.786 89.8474 119.727C90.6002 120.669 91.1531 121.822 91.506 123.187C91.8588 124.528 91.9765 126.069 91.8589 127.811L77.2848 127.917V124.952L88.6123 124.846L86.6009 126.222C86.7656 125.046 86.695 124.093 86.3892 123.363C86.0833 122.61 85.6363 122.069 85.0482 121.739C84.4601 121.386 83.8249 121.21 83.1426 121.21C82.3192 121.21 81.5899 121.433 80.9548 121.881C80.3431 122.328 79.8608 122.975 79.5079 123.822C79.155 124.669 78.9786 125.705 78.9786 126.928C78.9786 128.858 79.3903 130.258 80.2137 131.129C81.0606 131.999 82.131 132.435 83.4249 132.435C84.0601 132.435 84.5895 132.352 85.0129 132.188C85.4364 131.999 85.7775 131.776 86.0363 131.517C86.3186 131.235 86.5303 130.929 86.6715 130.599C86.8361 130.27 86.9655 129.952 87.0596 129.646L92 130.705C91.8118 131.576 91.506 132.364 91.0825 133.07C90.6826 133.776 90.1297 134.388 89.424 134.906C88.7417 135.423 87.9066 135.812 86.9185 136.071C85.9539 136.353 84.8012 136.494 83.4602 136.494Z" fill="#F3F4F9"/>
<path fill-rule="evenodd" clip-rule="evenodd" d="M39.8515 0L46.0465 13.7937L52.2415 0L72.7851 45.6603H60.3951L68.5944 63.8243H73.7872L68.0477 51.0776H75.2448L83.763 70.0611H64.1759L58.4364 57.3144H21.2666L18.3058 63.8243H23.4986L25.184 60.0913H32.3811L27.9171 70.0611H8.33002L16.8481 51.0776H29.2381L31.6978 45.6603H19.3079L39.8515 0ZM52.2415 15.9788L62.7638 39.4236H44.7508L41.9469 45.6603H53.198L55.6578 51.0776H36.4352L46.0465 29.7725L49.144 36.6011H56.3227L49.645 21.7148L52.2415 15.9788ZM39.8514 16.0244L42.4478 21.7604L34.4764 39.4236H29.3096L39.8514 16.0244Z" fill="#F3F4F9"/>
</svg>
