<svg width="385" height="151" viewBox="0 0 385 151" fill="none" xmlns="http://www.w3.org/2000/svg">
<path d="M190.934 150.337V139.696H187.135V138.297H196.344V139.696H192.545V150.337H190.934Z" fill="white"/>
<path d="M197.085 150.337V141.714H198.647V142.788H198.713C198.899 142.462 199.173 142.175 199.535 141.925C199.897 141.676 200.407 141.551 201.064 141.551C201.251 141.551 201.421 141.562 201.574 141.584C201.727 141.595 201.804 141.6 201.804 141.6V143.081C201.804 143.081 201.717 143.075 201.541 143.064C201.377 143.043 201.201 143.032 201.015 143.032C200.259 143.032 199.672 143.249 199.255 143.683C198.85 144.106 198.647 144.8 198.647 145.765V150.337H197.085Z" fill="white"/>
<path d="M206.648 141.551C207.196 141.551 207.656 141.638 208.029 141.812C208.402 141.985 208.703 142.191 208.934 142.43C209.164 142.658 209.339 142.875 209.46 143.081H209.558V141.714H211.121V150.337H209.558V148.971H209.46C209.339 149.177 209.164 149.399 208.934 149.638C208.703 149.876 208.402 150.082 208.029 150.256C207.656 150.419 207.196 150.5 206.648 150.5C205.99 150.5 205.415 150.375 204.921 150.126C204.428 149.865 204.017 149.524 203.688 149.101C203.359 148.667 203.113 148.184 202.948 147.653C202.784 147.121 202.701 146.579 202.701 146.026C202.701 145.472 202.784 144.93 202.948 144.399C203.113 143.867 203.359 143.39 203.688 142.967C204.017 142.533 204.428 142.191 204.921 141.942C205.415 141.681 205.99 141.551 206.648 141.551ZM206.911 142.869C206.33 142.869 205.842 143.026 205.448 143.341C205.053 143.645 204.757 144.035 204.56 144.512C204.373 144.99 204.28 145.494 204.28 146.026C204.28 146.546 204.373 147.051 204.56 147.539C204.757 148.016 205.053 148.412 205.448 148.727C205.842 149.03 206.33 149.182 206.911 149.182C207.492 149.182 207.974 149.03 208.358 148.727C208.753 148.412 209.043 148.016 209.23 147.539C209.427 147.051 209.526 146.546 209.526 146.026C209.526 145.494 209.427 144.99 209.23 144.512C209.043 144.035 208.753 143.645 208.358 143.341C207.974 143.026 207.492 142.869 206.911 142.869Z" fill="white"/>
<path d="M213.416 150.337V141.714H214.978V142.967H215.077C215.154 142.837 215.28 142.658 215.455 142.43C215.642 142.202 215.905 142.001 216.245 141.828C216.584 141.643 217.012 141.551 217.527 141.551C218.163 141.551 218.706 141.698 219.155 141.99C219.604 142.273 219.944 142.658 220.175 143.146C220.416 143.634 220.536 144.182 220.536 144.789V150.337H218.974V144.887C218.974 144.312 218.81 143.834 218.481 143.455C218.163 143.075 217.697 142.885 217.083 142.885C216.59 142.885 216.19 143.01 215.883 143.26C215.576 143.498 215.346 143.818 215.192 144.22C215.05 144.61 214.978 145.028 214.978 145.472V150.337H213.416Z" fill="white"/>
<path d="M226.032 150.5C225.364 150.5 224.81 150.408 224.372 150.223C223.944 150.039 223.604 149.811 223.352 149.54C223.1 149.258 222.914 148.981 222.793 148.71C222.672 148.428 222.596 148.195 222.563 148.011C222.53 147.826 222.514 147.734 222.514 147.734H224.092C224.092 147.734 224.109 147.81 224.141 147.962C224.185 148.103 224.268 148.271 224.388 148.466C224.52 148.651 224.717 148.819 224.98 148.971C225.254 149.112 225.616 149.182 226.065 149.182C226.581 149.182 226.981 149.063 227.266 148.824C227.551 148.575 227.693 148.271 227.693 147.913C227.693 147.598 227.578 147.349 227.348 147.165C227.129 146.98 226.811 146.839 226.394 146.741L225.21 146.465C224.772 146.356 224.361 146.21 223.977 146.026C223.593 145.841 223.281 145.592 223.04 145.277C222.81 144.952 222.694 144.55 222.694 144.073C222.694 143.336 222.974 142.734 223.533 142.267C224.092 141.79 224.821 141.551 225.72 141.551C226.323 141.551 226.822 141.638 227.216 141.812C227.611 141.974 227.924 142.18 228.154 142.43C228.395 142.679 228.57 142.929 228.68 143.178C228.801 143.428 228.877 143.639 228.91 143.813C228.943 143.976 228.959 144.057 228.959 144.057H227.447C227.447 144.057 227.43 143.997 227.397 143.878C227.364 143.748 227.288 143.607 227.167 143.455C227.057 143.292 226.888 143.151 226.657 143.032C226.427 142.902 226.12 142.837 225.737 142.837C225.21 142.837 224.827 142.956 224.585 143.195C224.344 143.433 224.224 143.693 224.224 143.976C224.224 144.247 224.333 144.469 224.553 144.643C224.783 144.805 225.079 144.93 225.441 145.017L226.641 145.293C227.386 145.467 228 145.754 228.483 146.156C228.976 146.546 229.223 147.11 229.223 147.848C229.223 148.325 229.097 148.77 228.844 149.182C228.592 149.583 228.23 149.903 227.759 150.142C227.288 150.381 226.712 150.5 226.032 150.5Z" fill="white"/>
<path d="M231.193 150.337V141.714H232.755V142.967H232.821C232.908 142.804 233.045 142.614 233.232 142.397C233.418 142.169 233.67 141.974 233.988 141.812C234.317 141.638 234.728 141.551 235.221 141.551C235.868 141.551 236.411 141.708 236.849 142.023C237.299 142.327 237.633 142.739 237.852 143.26H237.869C238.11 142.782 238.45 142.381 238.888 142.056C239.338 141.719 239.919 141.551 240.631 141.551C241.574 141.551 242.298 141.871 242.802 142.511C243.317 143.14 243.575 143.954 243.575 144.952V150.337H242.013V145.033C242.013 144.393 241.859 143.878 241.552 143.487C241.245 143.086 240.801 142.885 240.22 142.885C239.716 142.885 239.31 143.021 239.003 143.292C238.708 143.563 238.494 143.9 238.362 144.301C238.231 144.702 238.165 145.104 238.165 145.505V150.337H236.603V145.033C236.603 144.393 236.449 143.878 236.142 143.487C235.846 143.086 235.402 142.885 234.81 142.885C234.306 142.885 233.9 143.021 233.594 143.292C233.298 143.563 233.084 143.905 232.952 144.317C232.821 144.719 232.755 145.114 232.755 145.505V150.337H231.193Z" fill="white"/>
<path d="M246.89 140.071C246.594 140.071 246.347 139.973 246.15 139.778C245.963 139.582 245.87 139.349 245.87 139.078C245.87 138.796 245.963 138.557 246.15 138.362C246.347 138.167 246.594 138.069 246.89 138.069C247.175 138.069 247.416 138.167 247.613 138.362C247.81 138.557 247.909 138.796 247.909 139.078C247.909 139.349 247.81 139.582 247.613 139.778C247.416 139.973 247.175 140.071 246.89 140.071ZM246.117 150.337V141.714H247.679V150.337H246.117Z" fill="white"/>
<path d="M253.396 150.5C252.727 150.5 252.174 150.408 251.735 150.223C251.308 150.039 250.968 149.811 250.716 149.54C250.463 149.258 250.277 148.981 250.156 148.71C250.036 148.428 249.959 148.195 249.926 148.011C249.893 147.826 249.877 147.734 249.877 147.734H251.456C251.456 147.734 251.472 147.81 251.505 147.962C251.549 148.103 251.631 148.271 251.751 148.466C251.883 148.651 252.08 148.819 252.343 148.971C252.618 149.112 252.979 149.182 253.429 149.182C253.944 149.182 254.344 149.063 254.629 148.824C254.914 148.575 255.057 148.271 255.057 147.913C255.057 147.598 254.942 147.349 254.711 147.165C254.492 146.98 254.174 146.839 253.758 146.741L252.574 146.465C252.135 146.356 251.724 146.21 251.34 146.026C250.957 145.841 250.644 145.592 250.403 145.277C250.173 144.952 250.058 144.55 250.058 144.073C250.058 143.336 250.337 142.734 250.896 142.267C251.455 141.79 252.184 141.551 253.083 141.551C253.686 141.551 254.185 141.638 254.58 141.812C254.974 141.974 255.287 142.18 255.517 142.43C255.758 142.679 255.934 142.929 256.043 143.178C256.164 143.428 256.241 143.639 256.273 143.813C256.306 143.976 256.323 144.057 256.323 144.057H254.81C254.81 144.057 254.794 143.997 254.761 143.878C254.728 143.748 254.651 143.607 254.53 143.455C254.421 143.292 254.251 143.151 254.021 143.032C253.79 142.902 253.484 142.837 253.1 142.837C252.574 142.837 252.19 142.956 251.949 143.195C251.708 143.433 251.587 143.693 251.587 143.976C251.587 144.247 251.697 144.469 251.916 144.643C252.146 144.805 252.442 144.93 252.804 145.017L254.004 145.293C254.75 145.467 255.364 145.754 255.846 146.156C256.339 146.546 256.586 147.11 256.586 147.848C256.586 148.325 256.46 148.77 256.208 149.182C255.956 149.583 255.594 149.903 255.122 150.142C254.651 150.381 254.076 150.5 253.396 150.5Z" fill="white"/>
<path d="M261.746 150.5C261.077 150.5 260.524 150.408 260.085 150.223C259.658 150.039 259.318 149.811 259.066 149.54C258.814 149.258 258.627 148.981 258.507 148.71C258.386 148.428 258.309 148.195 258.277 148.011C258.244 147.826 258.227 147.734 258.227 147.734H259.806C259.806 147.734 259.822 147.81 259.855 147.962C259.899 148.103 259.981 148.271 260.102 148.466C260.233 148.651 260.431 148.819 260.694 148.971C260.968 149.112 261.33 149.182 261.779 149.182C262.294 149.182 262.694 149.063 262.979 148.824C263.264 148.575 263.407 148.271 263.407 147.913C263.407 147.598 263.292 147.349 263.062 147.165C262.842 146.98 262.525 146.839 262.108 146.741L260.924 146.465C260.485 146.356 260.074 146.21 259.691 146.026C259.307 145.841 258.995 145.592 258.753 145.277C258.523 144.952 258.408 144.55 258.408 144.073C258.408 143.336 258.688 142.734 259.247 142.267C259.806 141.79 260.535 141.551 261.434 141.551C262.037 141.551 262.535 141.638 262.93 141.812C263.325 141.974 263.637 142.18 263.867 142.43C264.109 142.679 264.284 142.929 264.394 143.178C264.514 143.428 264.591 143.639 264.624 143.813C264.657 143.976 264.673 144.057 264.673 144.057H263.16C263.16 144.057 263.144 143.997 263.111 143.878C263.078 143.748 263.001 143.607 262.881 143.455C262.771 143.292 262.601 143.151 262.371 143.032C262.141 142.902 261.834 142.837 261.45 142.837C260.924 142.837 260.54 142.956 260.299 143.195C260.058 143.433 259.937 143.693 259.937 143.976C259.937 144.247 260.047 144.469 260.266 144.643C260.496 144.805 260.792 144.93 261.154 145.017L262.355 145.293C263.1 145.467 263.714 145.754 264.196 146.156C264.69 146.546 264.936 147.11 264.936 147.848C264.936 148.325 264.81 148.77 264.558 149.182C264.306 149.583 263.944 149.903 263.473 150.142C263.001 150.381 262.426 150.5 261.746 150.5Z" fill="white"/>
<path d="M272.09 140.298C271.794 140.298 271.542 140.244 271.334 140.136C271.136 140.027 270.961 139.902 270.807 139.761C270.665 139.62 270.528 139.496 270.396 139.387C270.265 139.279 270.122 139.224 269.969 139.224C269.782 139.224 269.645 139.317 269.558 139.501C269.481 139.675 269.443 139.908 269.443 140.201H268.39C268.39 139.864 268.429 139.539 268.505 139.224C268.593 138.899 268.746 138.633 268.966 138.427C269.185 138.21 269.486 138.102 269.87 138.102C270.166 138.102 270.418 138.156 270.627 138.265C270.835 138.373 271.01 138.498 271.153 138.639C271.306 138.769 271.449 138.888 271.58 138.997C271.712 139.105 271.849 139.159 271.991 139.159C272.167 139.159 272.293 139.073 272.37 138.899C272.457 138.726 272.501 138.487 272.501 138.183H273.554C273.554 138.519 273.51 138.85 273.422 139.176C273.345 139.501 273.197 139.772 272.978 139.989C272.77 140.195 272.474 140.298 272.09 140.298ZM270.61 141.551C271.158 141.551 271.619 141.638 271.991 141.812C272.364 141.985 272.666 142.191 272.896 142.43C273.126 142.658 273.301 142.875 273.422 143.081H273.521V141.714H275.083V150.337H273.521V148.971H273.422C273.301 149.177 273.126 149.399 272.896 149.638C272.666 149.876 272.364 150.082 271.991 150.256C271.619 150.419 271.158 150.5 270.61 150.5C269.952 150.5 269.377 150.375 268.884 150.126C268.39 149.865 267.979 149.524 267.65 149.101C267.321 148.667 267.075 148.184 266.91 147.653C266.746 147.121 266.664 146.579 266.664 146.026C266.664 145.472 266.746 144.93 266.91 144.399C267.075 143.867 267.321 143.39 267.65 142.967C267.979 142.533 268.39 142.191 268.884 141.942C269.377 141.681 269.952 141.551 270.61 141.551ZM270.873 142.869C270.292 142.869 269.804 143.026 269.41 143.341C269.015 143.645 268.719 144.035 268.522 144.512C268.335 144.99 268.242 145.494 268.242 146.026C268.242 146.546 268.335 147.051 268.522 147.539C268.719 148.016 269.015 148.412 269.41 148.727C269.804 149.03 270.292 149.182 270.873 149.182C271.454 149.182 271.937 149.03 272.32 148.727C272.715 148.412 273.005 148.016 273.192 147.539C273.389 147.051 273.488 146.546 273.488 146.026C273.488 145.494 273.389 144.99 273.192 144.512C273.005 144.035 272.715 143.645 272.32 143.341C271.937 143.026 271.454 142.869 270.873 142.869Z" fill="white"/>
<path d="M281.616 150.5C280.684 150.5 279.901 150.288 279.265 149.865C278.629 149.432 278.147 148.873 277.818 148.19C277.489 147.506 277.324 146.785 277.324 146.026C277.324 145.255 277.489 144.534 277.818 143.862C278.147 143.178 278.629 142.625 279.265 142.202C279.901 141.768 280.684 141.551 281.616 141.551C282.548 141.551 283.332 141.768 283.968 142.202C284.603 142.625 285.086 143.178 285.415 143.862C285.744 144.534 285.908 145.255 285.908 146.026C285.908 146.785 285.744 147.506 285.415 148.19C285.086 148.873 284.603 149.432 283.968 149.865C283.332 150.288 282.548 150.5 281.616 150.5ZM281.616 149.15C282.208 149.15 282.701 149.003 283.096 148.71C283.502 148.407 283.803 148.016 284.001 147.539C284.209 147.061 284.313 146.557 284.313 146.026C284.313 145.483 284.209 144.979 284.001 144.512C283.803 144.035 283.502 143.65 283.096 143.357C282.701 143.053 282.208 142.902 281.616 142.902C281.035 142.902 280.542 143.053 280.136 143.357C279.731 143.65 279.424 144.035 279.215 144.512C279.018 144.979 278.919 145.483 278.919 146.026C278.919 146.557 279.018 147.061 279.215 147.539C279.424 148.016 279.731 148.407 280.136 148.71C280.542 149.003 281.035 149.15 281.616 149.15Z" fill="white"/>
<path d="M291.418 150.337L295.71 138.297H297.732L302.04 150.337H300.33L299.311 147.457H294.147L293.128 150.337H291.418ZM294.641 146.026H298.817L296.729 140.119L294.641 146.026Z" fill="white"/>
<path d="M306.46 150.5C305.594 150.5 304.904 150.234 304.389 149.703C303.873 149.171 303.616 148.434 303.616 147.49V141.714H305.178V147.409C305.178 147.973 305.331 148.407 305.638 148.71C305.956 149.014 306.373 149.166 306.888 149.166C307.414 149.166 307.836 149.03 308.154 148.759C308.472 148.488 308.702 148.141 308.845 147.718C308.987 147.295 309.059 146.861 309.059 146.416V141.714H310.621V150.337H309.059V149.101H308.96C308.894 149.231 308.768 149.41 308.582 149.638C308.395 149.855 308.132 150.055 307.792 150.24C307.453 150.413 307.009 150.5 306.46 150.5Z" fill="white"/>
<path d="M316.629 150.5C315.73 150.5 315.051 150.272 314.59 149.817C314.141 149.361 313.916 148.721 313.916 147.897V142.983H312.354V141.714H313.916V139.55H315.478V141.714H317.6V142.983H315.478V147.897C315.478 148.331 315.599 148.651 315.84 148.857C316.081 149.052 316.432 149.15 316.892 149.15C317.134 149.15 317.364 149.133 317.583 149.101C317.802 149.068 317.912 149.052 317.912 149.052V150.37C317.912 150.37 317.786 150.392 317.534 150.435C317.282 150.478 316.98 150.5 316.629 150.5Z" fill="white"/>
<path d="M323.769 150.5C322.837 150.5 322.054 150.288 321.418 149.865C320.782 149.432 320.3 148.873 319.971 148.19C319.642 147.506 319.477 146.785 319.477 146.026C319.477 145.255 319.642 144.534 319.971 143.862C320.3 143.178 320.782 142.625 321.418 142.202C322.054 141.768 322.837 141.551 323.769 141.551C324.701 141.551 325.485 141.768 326.121 142.202C326.757 142.625 327.239 143.178 327.568 143.862C327.897 144.534 328.061 145.255 328.061 146.026C328.061 146.785 327.897 147.506 327.568 148.19C327.239 148.873 326.757 149.432 326.121 149.865C325.485 150.288 324.701 150.5 323.769 150.5ZM323.769 149.15C324.361 149.15 324.855 149.003 325.249 148.71C325.655 148.407 325.956 148.016 326.154 147.539C326.362 147.061 326.466 146.557 326.466 146.026C326.466 145.483 326.362 144.979 326.154 144.512C325.956 144.035 325.655 143.65 325.249 143.357C324.855 143.053 324.361 142.902 323.769 142.902C323.188 142.902 322.695 143.053 322.289 143.357C321.884 143.65 321.577 144.035 321.369 144.512C321.171 144.979 321.073 145.483 321.073 146.026C321.073 146.557 321.171 147.061 321.369 147.539C321.577 148.016 321.884 148.407 322.289 148.71C322.695 149.003 323.188 149.15 323.769 149.15Z" fill="white"/>
<path d="M330.192 150.337V141.714H331.754V142.967H331.82C331.908 142.804 332.045 142.614 332.231 142.397C332.418 142.169 332.67 141.974 332.988 141.812C333.317 141.638 333.728 141.551 334.221 141.551C334.868 141.551 335.41 141.708 335.849 142.023C336.298 142.327 336.633 142.739 336.852 143.26H336.868C337.11 142.782 337.449 142.381 337.888 142.056C338.337 141.719 338.918 141.551 339.631 141.551C340.574 141.551 341.297 141.871 341.801 142.511C342.317 143.14 342.574 143.954 342.574 144.952V150.337H341.012V145.033C341.012 144.393 340.859 143.878 340.552 143.487C340.245 143.086 339.801 142.885 339.22 142.885C338.716 142.885 338.31 143.021 338.003 143.292C337.707 143.563 337.493 143.9 337.362 144.301C337.23 144.702 337.164 145.104 337.164 145.505V150.337H335.602V145.033C335.602 144.393 335.449 143.878 335.142 143.487C334.846 143.086 334.402 142.885 333.81 142.885C333.306 142.885 332.9 143.021 332.593 143.292C332.297 143.563 332.083 143.905 331.952 144.317C331.82 144.719 331.754 145.114 331.754 145.505V150.337H330.192Z" fill="white"/>
<path d="M349.753 140.412L348.421 140.396L349.836 137.467H351.447L349.753 140.412ZM348.734 141.551C349.282 141.551 349.742 141.638 350.115 141.812C350.488 141.985 350.789 142.191 351.019 142.43C351.25 142.658 351.425 142.875 351.546 143.081H351.644V141.714H353.206V150.337H351.644V148.971H351.546C351.425 149.177 351.25 149.399 351.019 149.638C350.789 149.876 350.488 150.082 350.115 150.256C349.742 150.419 349.282 150.5 348.734 150.5C348.076 150.5 347.501 150.375 347.007 150.126C346.514 149.865 346.103 149.524 345.774 149.101C345.445 148.667 345.198 148.184 345.034 147.653C344.87 147.121 344.787 146.579 344.787 146.026C344.787 145.472 344.87 144.93 345.034 144.399C345.198 143.867 345.445 143.39 345.774 142.967C346.103 142.533 346.514 142.191 347.007 141.942C347.501 141.681 348.076 141.551 348.734 141.551ZM348.997 142.869C348.416 142.869 347.928 143.026 347.533 143.341C347.139 143.645 346.843 144.035 346.645 144.512C346.459 144.99 346.366 145.494 346.366 146.026C346.366 146.546 346.459 147.051 346.645 147.539C346.843 148.016 347.139 148.412 347.533 148.727C347.928 149.03 348.416 149.182 348.997 149.182C349.578 149.182 350.06 149.03 350.444 148.727C350.839 148.412 351.129 148.016 351.315 147.539C351.513 147.051 351.611 146.546 351.611 146.026C351.611 145.494 351.513 144.99 351.315 144.512C351.129 144.035 350.839 143.645 350.444 143.341C350.06 143.026 349.578 142.869 348.997 142.869Z" fill="white"/>
<path d="M358.991 150.5C358.092 150.5 357.413 150.272 356.952 149.817C356.503 149.361 356.278 148.721 356.278 147.897V142.983H354.716V141.714H356.278V139.55H357.84V141.714H359.961V142.983H357.84V147.897C357.84 148.331 357.961 148.651 358.202 148.857C358.443 149.052 358.794 149.15 359.254 149.15C359.495 149.15 359.726 149.133 359.945 149.101C360.164 149.068 360.274 149.052 360.274 149.052V150.37C360.274 150.37 360.148 150.392 359.896 150.435C359.643 150.478 359.342 150.5 358.991 150.5Z" fill="white"/>
<path d="M363.344 140.071C363.048 140.071 362.802 139.973 362.604 139.778C362.418 139.582 362.325 139.349 362.325 139.078C362.325 138.796 362.418 138.557 362.604 138.362C362.802 138.167 363.048 138.069 363.344 138.069C363.629 138.069 363.871 138.167 364.068 138.362C364.265 138.557 364.364 138.796 364.364 139.078C364.364 139.349 364.265 139.582 364.068 139.778C363.871 139.973 363.629 140.071 363.344 140.071ZM362.572 150.337V141.714H364.134V150.337H362.572Z" fill="white"/>
<path d="M370.788 150.5C370.075 150.5 369.451 150.375 368.913 150.126C368.376 149.865 367.927 149.524 367.565 149.101C367.214 148.667 366.946 148.184 366.759 147.653C366.584 147.121 366.496 146.579 366.496 146.026C366.496 145.472 366.584 144.935 366.759 144.415C366.935 143.883 367.198 143.401 367.549 142.967C367.91 142.533 368.36 142.191 368.897 141.942C369.434 141.681 370.065 141.551 370.788 141.551C371.49 141.551 372.071 141.654 372.531 141.86C372.991 142.066 373.359 142.327 373.633 142.641C373.918 142.945 374.126 143.254 374.258 143.569C374.4 143.872 374.493 144.127 374.537 144.333C374.581 144.54 374.603 144.643 374.603 144.643H373.09C373.09 144.643 373.063 144.556 373.008 144.382C372.953 144.198 372.849 143.992 372.696 143.764C372.542 143.536 372.312 143.336 372.005 143.162C371.698 142.978 371.292 142.885 370.788 142.885C370.185 142.885 369.675 143.037 369.259 143.341C368.853 143.634 368.546 144.019 368.338 144.496C368.141 144.973 368.042 145.483 368.042 146.026C368.042 146.568 368.141 147.078 368.338 147.555C368.546 148.032 368.853 148.423 369.259 148.727C369.675 149.019 370.185 149.166 370.788 149.166C371.292 149.166 371.698 149.079 372.005 148.905C372.312 148.721 372.542 148.515 372.696 148.287C372.849 148.059 372.953 147.859 373.008 147.685C373.063 147.501 373.09 147.409 373.09 147.409H374.603C374.603 147.409 374.581 147.512 374.537 147.718C374.493 147.924 374.4 148.184 374.258 148.499C374.126 148.802 373.918 149.112 373.633 149.426C373.359 149.73 372.991 149.985 372.531 150.191C372.071 150.397 371.49 150.5 370.788 150.5Z" fill="white"/>
<path d="M380.527 141.551C381.075 141.551 381.536 141.638 381.909 141.812C382.281 141.985 382.583 142.191 382.813 142.43C383.043 142.658 383.219 142.875 383.339 143.081H383.438V141.714H385V150.337H383.438V148.971H383.339C383.219 149.177 383.043 149.399 382.813 149.638C382.583 149.876 382.281 150.082 381.909 150.256C381.536 150.419 381.075 150.5 380.527 150.5C379.87 150.5 379.294 150.375 378.801 150.126C378.307 149.865 377.896 149.524 377.567 149.101C377.239 148.667 376.992 148.184 376.828 147.653C376.663 147.121 376.581 146.579 376.581 146.026C376.581 145.472 376.663 144.93 376.828 144.399C376.992 143.867 377.239 143.39 377.567 142.967C377.896 142.533 378.307 142.191 378.801 141.942C379.294 141.681 379.87 141.551 380.527 141.551ZM380.79 142.869C380.209 142.869 379.722 143.026 379.327 143.341C378.932 143.645 378.636 144.035 378.439 144.512C378.253 144.99 378.159 145.494 378.159 146.026C378.159 146.546 378.253 147.051 378.439 147.539C378.636 148.016 378.932 148.412 379.327 148.727C379.722 149.03 380.209 149.182 380.79 149.182C381.371 149.182 381.854 149.03 382.237 148.727C382.632 148.412 382.923 148.016 383.109 147.539C383.306 147.051 383.405 146.546 383.405 146.026C383.405 145.494 383.306 144.99 383.109 144.512C382.923 144.035 382.632 143.645 382.237 143.341C381.854 143.026 381.371 142.869 380.79 142.869Z" fill="white"/>
<path d="M153.86 67.0245L173.158 10.5537H193.49L212.787 67.0245H197.625L184.013 21.3345H182.635L169.023 67.0245H153.86ZM165.318 56.4148V47.1741H203.397V56.4148H165.318Z" fill="white"/>
<path d="M233.238 68.2223C227.839 68.2223 223.761 66.4255 221.005 62.8319C218.305 59.1813 216.955 53.6483 216.955 46.233V21.8479H230.912V44.4362C230.912 48.6572 231.544 51.823 232.807 53.9335C234.071 55.987 235.995 57.0137 238.579 57.0137C240.13 57.0137 241.451 56.643 242.542 55.9014C243.691 55.1029 244.638 54.0191 245.385 52.6501C246.189 51.2241 246.763 49.5984 247.108 47.7731C247.51 45.9478 247.711 43.9513 247.711 41.7838V21.8479H261.581V67.0245H250.554L250.296 53.0779H248.573C247.711 56.6145 246.62 59.5236 245.299 61.8052C244.035 64.0298 242.427 65.6555 240.474 66.6822C238.522 67.709 236.11 68.2223 233.238 68.2223Z" fill="white"/>
<path d="M289.993 68.1368C284.651 68.1368 280.717 66.7393 278.19 63.9442C275.663 61.0922 274.4 56.5574 274.4 50.3399V32.6287H267.938L268.197 21.9334H272.849C274.687 21.8764 276.065 21.5912 276.984 21.0778C277.96 20.5645 278.564 19.5948 278.793 18.1687L279.913 11.8372H287.753V21.8479H298.694V33.0565H287.753V49.741C287.753 51.6804 288.212 53.1064 289.131 54.0191C290.108 54.9317 291.572 55.3881 293.525 55.3881C294.616 55.3881 295.65 55.274 296.626 55.0458C297.603 54.8177 298.407 54.5039 299.039 54.1046V66.8533C297.201 67.4238 295.506 67.766 293.956 67.8801C292.462 68.0512 291.141 68.1368 289.993 68.1368Z" fill="white"/>
<path d="M328.011 68.2223C323.416 68.2223 319.338 67.3382 315.777 65.5699C312.274 63.8016 309.517 61.1492 307.507 57.6127C305.497 54.0761 304.492 49.6554 304.492 44.3506C304.492 39.0458 305.497 34.6536 307.507 31.1741C309.517 27.6375 312.303 25.0137 315.864 23.3024C319.424 21.5341 323.502 20.65 328.097 20.65C332.692 20.65 336.769 21.5341 340.33 23.3024C343.891 25.0707 346.677 27.7231 348.687 31.2597C350.697 34.7392 351.702 39.1313 351.702 44.4362C351.702 49.8551 350.668 54.3328 348.601 57.8694C346.533 61.4059 343.69 64.0298 340.072 65.741C336.511 67.3952 332.491 68.2223 328.011 68.2223ZM328.441 58.2116C330.509 58.2116 332.232 57.7553 333.61 56.8426C334.989 55.8729 336.023 54.4184 336.712 52.479C337.401 50.5396 337.746 48.1438 337.746 45.2918C337.746 42.2686 337.372 39.7303 336.626 37.6768C335.879 35.5663 334.759 33.9691 333.266 32.8853C331.83 31.7445 329.963 31.1741 327.666 31.1741C325.713 31.1741 324.019 31.659 322.583 32.6287C321.205 33.5413 320.171 34.9673 319.482 36.9067C318.793 38.8461 318.448 41.2704 318.448 44.1795C318.448 48.8569 319.309 52.3649 321.032 54.7036C322.813 57.0423 325.283 58.2116 328.441 58.2116Z" fill="white"/>
<path d="M177.608 120.535V79.5861H190.056V120.535H177.608Z" fill="white"/>
<path d="M200.055 120.535V79.5859H209.922L210.074 92.3541H211.592C212.25 89.5335 213.186 87.1662 214.4 85.2522C215.615 83.3383 217.158 81.928 219.03 81.0214C220.903 80.0644 223.104 79.5859 225.634 79.5859C230.34 79.5859 233.907 81.2228 236.336 84.4967C238.815 87.7706 240.055 92.9837 240.055 100.136V120.535H227.759V101.496C227.759 97.3656 227.152 94.3688 225.937 92.5052C224.774 90.5912 223.028 89.6342 220.7 89.6342C218.777 89.6342 217.183 90.2134 215.918 91.3719C214.704 92.5303 213.793 94.0666 213.186 95.9805C212.579 97.8945 212.275 100.035 212.275 102.402V120.535H200.055Z" fill="white"/>
<path d="M267.272 121.592C263.224 121.592 259.631 120.812 256.494 119.25C253.407 117.689 250.978 115.347 249.207 112.224C247.436 109.101 246.551 105.198 246.551 100.514C246.551 95.8294 247.436 91.9511 249.207 88.8787C250.978 85.7559 253.433 83.439 256.57 81.928C259.707 80.3666 263.3 79.5859 267.348 79.5859C271.396 79.5859 274.989 80.3666 278.126 81.928C281.263 83.4894 283.718 85.8315 285.489 88.9542C287.26 92.0267 288.145 95.905 288.145 100.589C288.145 105.374 287.234 109.328 285.413 112.451C283.591 115.574 281.086 117.89 277.898 119.401C274.761 120.862 271.219 121.592 267.272 121.592ZM267.652 112.753C269.473 112.753 270.991 112.35 272.206 111.544C273.42 110.688 274.331 109.403 274.938 107.691C275.545 105.978 275.849 103.863 275.849 101.345C275.849 98.6752 275.52 96.4338 274.862 94.6206C274.205 92.757 273.218 91.3467 271.902 90.3897C270.637 89.3824 268.993 88.8787 266.969 88.8787C265.248 88.8787 263.755 89.3068 262.49 90.1631C261.276 90.969 260.365 92.2281 259.758 93.9406C259.151 95.6531 258.847 97.7938 258.847 100.363C258.847 104.493 259.606 107.59 261.124 109.655C262.693 111.72 264.869 112.753 267.652 112.753Z" fill="white"/>
<path d="M303.594 120.535L290.463 80.7191H304.05L311.64 111.015H312.93L320.672 80.7191H333.652L320.445 120.535H303.594Z" fill="white"/>
<path d="M357.124 121.592C353.784 121.592 350.799 121.164 348.167 120.308C345.536 119.401 343.284 118.092 341.412 116.379C339.59 114.667 338.199 112.551 337.237 110.033C336.276 107.515 335.795 104.619 335.795 101.345C335.795 98.1715 336.251 95.2502 337.162 92.5807C338.123 89.9112 339.464 87.6195 341.184 85.7055C342.955 83.7412 345.106 82.2302 347.636 81.1725C350.217 80.1147 353.101 79.5859 356.289 79.5859C359.527 79.5859 362.361 80.1147 364.79 81.1725C367.269 82.1798 369.294 83.6908 370.862 85.7055C372.481 87.7202 373.671 90.1883 374.43 93.1096C375.189 95.9805 375.442 99.2796 375.189 103.007L343.841 103.233V96.8871L368.206 96.6605L363.879 99.607C364.233 97.0886 364.082 95.0487 363.424 93.4873C362.766 91.8756 361.805 90.7171 360.539 90.012C359.274 89.2565 357.908 88.8787 356.441 88.8787C354.67 88.8787 353.101 89.3572 351.735 90.3142C350.419 91.2712 349.382 92.6563 348.623 94.4695C347.864 96.2827 347.484 98.4989 347.484 101.118C347.484 105.248 348.37 108.245 350.141 110.109C351.963 111.972 354.265 112.904 357.048 112.904C358.414 112.904 359.553 112.728 360.464 112.375C361.374 111.972 362.108 111.494 362.665 110.94C363.272 110.335 363.727 109.681 364.031 108.975C364.385 108.27 364.663 107.59 364.866 106.935L375.492 109.202C375.087 111.066 374.43 112.753 373.519 114.264C372.659 115.775 371.469 117.085 369.951 118.193C368.484 119.301 366.688 120.132 364.562 120.686C362.488 121.29 360.008 121.592 357.124 121.592Z" fill="white"/>
<path fill-rule="evenodd" clip-rule="evenodd" d="M67.8001 0.5L81.125 30.0236L94.4499 0.5L138.638 98.2298H111.988L129.624 137.107H140.793L128.448 109.825H143.928L162.25 150.456H120.12L107.775 123.174H27.8255L21.457 137.107H32.6264L36.2515 129.118H51.7319L42.1301 150.456H0L18.3217 109.825H44.9715L50.2622 98.2298H23.6125L67.8001 0.5ZM94.4499 34.7006L117.083 84.8809H78.338L72.307 98.2298H96.5074L101.798 109.825H60.4518L81.125 64.2241L87.7874 78.8398H103.228L88.8652 46.9777L94.4499 34.7006ZM67.7999 34.798L73.3846 47.0751L56.2386 84.8809H45.1253L67.7999 34.798Z" fill="white"/>
</svg>
