<svg width="65" height="75" viewBox="0 0 65 75" fill="none" xmlns="http://www.w3.org/2000/svg">
<path d="M28.4724 0.479125C23.7891 1.84518 19.8552 5.14257 17.7008 9.7118C16.8579 11.4547 16.6237 12.9621 16.4364 17.6255L16.249 23.4195H11.0038C6.50782 23.4195 5.4775 23.5608 3.69785 24.4558C-0.142434 26.4814 -0.0956012 26.2458 0.0448971 46.9722L0.185395 65.1078L1.44988 67.5102C2.99536 70.4779 5.71166 72.9745 8.66212 74.105C10.8164 74.9529 12.5024 75 32.5 75C52.4976 75 54.1836 74.9529 56.3379 74.105C59.2883 72.9745 62.0046 70.4779 63.5501 67.5102L64.8146 65.1078L64.9551 46.9722C65.0956 26.2458 65.1424 26.4814 61.3021 24.4558C59.5225 23.5608 58.4922 23.4195 53.9962 23.4195H48.751L48.5636 17.6255C48.3763 11.0779 47.6738 9.09943 44.3955 5.33099C40.6957 1.1386 33.7177 -1.02825 28.4724 0.479125ZM37.0428 8.20442C40.6957 10.1829 41.8197 12.5381 42.007 18.5676L42.1944 23.4195H32.5H22.8056L22.9929 18.5676C23.2271 12.5852 24.2574 10.3713 27.8167 8.29864C30.9545 6.50863 33.8581 6.46152 37.0428 8.20442ZM16.3427 35.1959C16.3427 39.6238 16.4364 40.0477 17.5135 41.0841C18.9653 42.5914 20.2766 42.5914 21.7285 41.0841C22.8056 40.0477 22.8993 39.6238 22.8993 35.1959V30.4853H32.5H42.1007V35.1959C42.1007 39.6238 42.1944 40.0477 43.2715 41.0841C44.7233 42.5914 46.0347 42.5914 47.4865 41.0841C48.5636 40.0477 48.6573 39.6238 48.6573 35.1959V30.4853H53.5747H58.4922V46.3599C58.4922 61.5278 58.4453 62.3286 57.5087 64.2599C56.853 65.6731 55.9632 66.6152 54.6987 67.2276C53.0127 68.1226 51.8888 68.1697 32.5 68.1697C13.1112 68.1697 11.9873 68.1226 10.3013 67.2276C9.03679 66.6152 8.14696 65.6731 7.49131 64.2599C6.55465 62.3286 6.50782 61.5278 6.50782 46.3599V30.4853H11.4253H16.3427V35.1959Z" fill="#F3F4F9"/>
</svg>
