<svg width="75" height="75" viewBox="0 0 75 75" fill="none" xmlns="http://www.w3.org/2000/svg">
<path d="M56.9533 0.727432C56.1518 1.10469 44.6008 12.3753 31.2112 25.8151C3.48886 53.5906 6.74199 49.2993 2.49878 64.2482L0 73.1137L0.942935 74.0569L1.93302 75L11.9753 72.1234C17.5386 70.5201 22.5362 68.9639 23.1491 68.6809C24.5635 67.9264 71.6631 21.4766 73.3132 19.1659C74.9162 16.9495 75.3877 14.3559 74.6805 11.7622C74.2562 10.206 73.1718 8.74415 69.8244 5.34884C67.4199 2.94382 64.874 0.727432 64.1667 0.491646C62.2809 -0.262869 58.6506 -0.121398 56.9533 0.727432ZM66.3355 8.41405C72.0874 14.0729 72.0874 14.1201 66.0526 20.1562L61.4794 24.7304L55.8218 19.0716L50.1642 13.4127L54.7845 8.79131C60.8193 2.8495 60.725 2.89666 66.3355 8.41405ZM52.6629 22.5141L58.1791 28.0314L39.9333 46.2813L21.6404 64.4839L17.3972 65.7572C15.087 66.4645 11.5038 67.502 9.52365 68.1151C7.49634 68.7281 5.8462 69.0582 5.8462 68.9167C5.8462 68.7281 6.83628 65.1913 8.01495 61.0415L10.2308 53.4963L28.4295 35.1993C38.4246 25.1549 46.7224 16.9495 46.8639 16.9495C47.0053 16.9495 49.5984 19.4488 52.6629 22.5141Z" fill="#F3F4F9"/>
</svg>
