<svg width="75" height="75" viewBox="0 0 75 75" fill="none" xmlns="http://www.w3.org/2000/svg">
<path d="M28.2436 0.937211C23.6617 2.14054 17.1359 5.42657 13.5722 8.34233C7.69438 13.1094 2.83477 20.8385 0.937211 28.4287C-0.312404 33.4735 -0.312404 41.5265 0.937211 46.5713C2.83477 54.1615 7.69438 61.8906 13.5722 66.6577C17.2285 69.666 23.708 72.8595 28.4287 74.0628C33.4735 75.3124 41.5265 75.3124 46.5713 74.0628C51.292 72.8595 57.7715 69.666 61.4278 66.6577C67.3056 61.8906 72.1652 54.1615 74.0628 46.5713C75.3124 41.5265 75.3124 33.4735 74.0628 28.4287C72.8595 23.708 69.666 17.2285 66.6577 13.5722C61.8906 7.69438 54.1615 2.83477 46.5713 0.937211C41.6191 -0.312404 33.1495 -0.312404 28.2436 0.937211ZM45.1365 6.76874C46.6638 7.139 49.6722 8.29605 51.8474 9.36054C54.9946 10.8878 56.5682 12.0449 59.7154 15.2384C66.1486 21.6716 69.1106 28.7527 69.1106 37.5C69.1106 42.915 68.185 46.6638 65.6395 51.8474C64.1122 54.9946 62.9551 56.5682 59.7616 59.7154C53.3284 66.1486 46.2473 69.1106 37.5 69.1106C32.085 69.1106 28.3362 68.185 23.1526 65.6395C20.0054 64.1122 18.4318 62.9551 15.2846 59.7616C8.85144 53.3284 5.88939 46.2473 5.88939 37.5C5.88939 32.085 6.81503 28.3362 9.36054 23.1526C10.8878 20.0054 12.0449 18.4318 15.2384 15.2846C23.5228 7.04644 33.89 4.08439 45.1365 6.76874Z" fill="#F3F4F9"/>
<path d="M29.8635 17.5523C26.7163 18.478 23.1526 20.1904 23.1526 20.7921C23.1526 21.0235 24.0319 22.8285 25.0501 24.7723C26.5312 27.5493 27.1328 28.2435 27.7345 27.9658C31.2982 26.4385 34.6305 25.4666 36.3892 25.4666C39.2587 25.4666 40.2769 26.1145 40.2769 27.8732C40.2769 29.4005 39.305 30.465 35.1859 33.4734C32.5015 35.4172 31.4371 37.361 31.1594 40.7396L30.8817 43.5166H40.2769V42.2207C40.2769 40.4619 40.8786 39.7214 44.6737 37.1759C49.2094 34.0287 50.6441 31.8535 50.8292 27.5955C50.9681 24.8649 50.8292 23.8467 50.0424 22.3194C48.8391 20.0053 46.5713 18.2003 43.7018 17.3209C40.6472 16.3953 33.3346 16.5341 29.8635 17.5523Z" fill="#F3F4F9"/>
<path d="M32.3165 48.3758C31.6222 48.7461 30.8354 49.4866 30.5577 49.9957C29.9561 51.1064 29.9561 54.9016 30.5577 56.0586C31.3445 57.4471 33.5198 58.3264 36.2967 58.3264C38.472 58.3264 39.1199 58.1413 40.3695 56.9843C41.758 55.7346 41.8968 55.3644 41.8968 53.0503C41.8968 50.875 41.7117 50.2734 40.6472 49.2089C39.5827 48.1444 38.8885 47.913 36.4818 47.8204C34.4917 47.7279 33.1495 47.913 32.3165 48.3758Z" fill="#F3F4F9"/>
</svg>
