<svg width="75" height="75" viewBox="0 0 75 75" fill="none" xmlns="http://www.w3.org/2000/svg">
<path d="M34.364 0.0612478C32.0548 0.289253 28.3486 1.05877 26.0109 1.77128C14.6643 5.36236 5.34188 14.682 1.77826 26.0253C-0.587981 33.4354 -0.587981 41.5581 1.74975 48.9968C5.34188 60.34 14.6643 69.6597 26.0109 73.2223C33.4232 75.5878 41.5483 75.5878 48.9891 73.2508C60.3357 69.6597 69.6581 60.34 73.2217 48.9968C75.588 41.5866 75.588 33.4639 73.2502 26.0253C69.145 13.0575 57.9694 3.19631 44.4277 0.63126C42.0329 0.17525 36.5307 -0.138256 34.364 0.0612478ZM43.2303 4.30784C57.1997 6.73039 68.0901 17.6461 70.7129 31.7824C71.2546 34.775 71.2546 40.1331 70.7129 43.2396C67.9191 59.3425 53.8641 71.1417 37.5 71.1417C28.4341 71.1417 20.1665 67.7501 13.809 61.3945C4.80021 52.4453 1.55019 39.0501 5.42741 27.1083C9.1906 15.5371 18.9407 6.92989 31.0855 4.45034C34.307 3.79483 39.9518 3.73782 43.2303 4.30784Z" fill="#F3F4F9"/>
<path d="M35.5616 13.0003C33.8796 14.0263 33.7941 14.5393 33.7941 24.6855V33.8057H24.4716C15.6054 33.8057 15.0637 33.8342 14.1799 34.3757C12.4979 35.4017 11.9562 37.7388 12.9825 39.4488C14.0089 41.1304 14.522 41.2159 24.6712 41.2159H33.7941V50.5355C33.7941 59.3992 33.8226 59.9407 34.3643 60.8243C35.3906 62.5058 37.7283 63.0473 39.4389 62.0213C41.1209 60.9953 41.2064 60.4823 41.2064 50.336V41.2159H50.5574C59.3951 41.2159 59.9368 41.1874 60.8206 40.6458C62.5026 39.6198 63.0443 37.2828 62.018 35.5727C60.9916 33.8912 60.4785 33.8057 50.3293 33.8057H41.2064V24.4575C41.2064 15.6223 41.1779 15.0808 40.6362 14.1973C39.6099 12.5158 37.2722 11.9742 35.5616 13.0003Z" fill="#F3F4F9"/>
</svg>
