<svg width="56" height="75" viewBox="0 0 56 75" fill="none" xmlns="http://www.w3.org/2000/svg">
<path d="M6.54627 0.517566C4.1415 1.17629 2.06679 2.96424 0.935131 5.26976C-0.0550701 7.34002 -0.0550701 7.57528 0.0392348 38.2058L0.180692 69.0245L1.59527 71.0477C2.39686 72.1299 3.85858 73.4944 4.89594 74.0119C6.73488 74.9529 7.39502 75 28.0006 75C48.6063 75 49.2664 74.9529 51.1053 74.0119C52.1427 73.4944 53.6516 72.1299 54.406 71.0477L55.8206 69.0245L55.962 46.3927C56.0563 33.9241 55.962 22.9611 55.8206 22.0671C55.5377 20.7497 53.7459 18.6794 46.2486 11.0571C40.4017 5.17566 36.2523 1.41154 35.0735 0.846926C33.376 0.0470515 31.9143 0 20.692 0C13.8078 0 7.44217 0.235257 6.54627 0.517566ZM28.2364 13.739C28.2364 24.2785 28.5193 25.3607 32.0086 27.1016C33.9418 28.0897 34.6963 28.1838 42.948 28.1838H51.8126V47.522C51.8126 67.6129 51.7655 68.0834 49.7379 69.6832C48.842 70.436 46.9559 70.5301 28.0006 70.5301C5.41461 70.5301 6.1219 70.5772 4.70733 67.8482C4.33011 67.1424 4.18865 58.2026 4.18865 37.5941C4.18865 16.9856 4.33011 8.0458 4.70733 7.34003C6.0276 4.7522 6.45197 4.65809 17.7686 4.65809H28.2364V13.739ZM42.6179 14.0684L52.0484 23.4787H42.9951C35.4036 23.4787 33.8475 23.3375 33.2346 22.7258C32.6216 22.1142 32.4801 20.5615 32.4801 13.3156C32.4801 8.56336 32.6216 4.65809 32.8573 4.65809C33.046 4.65809 37.4311 8.89272 42.6179 14.0684Z" fill="#F3F4F9"/>
<path d="M14.9403 38.1117C13.7615 38.7704 13.8087 41.17 14.9875 41.8287C15.5533 42.111 20.5515 42.2992 28.0015 42.2992C35.4516 42.2992 40.4498 42.111 41.0156 41.8287C41.5814 41.4994 41.9115 40.8407 41.9115 39.9467C41.9115 39.0527 41.5814 38.394 41.0156 38.0646C39.7897 37.4529 16.0248 37.4529 14.9403 38.1117Z" fill="#F3F4F9"/>
<path d="M14.9403 47.522C13.7615 48.1807 13.8087 50.5803 14.9875 51.239C15.5533 51.5213 20.5515 51.7095 28.0015 51.7095C35.4516 51.7095 40.4498 51.5213 41.0156 51.239C41.5814 50.9097 41.9115 50.2509 41.9115 49.357C41.9115 48.463 41.5814 47.8043 41.0156 47.4749C39.7897 46.8632 16.0248 46.8632 14.9403 47.522Z" fill="#F3F4F9"/>
<path d="M14.9403 56.9322C13.7615 57.591 13.8087 59.9906 14.9875 60.6493C15.5533 60.9316 20.5515 61.1198 28.0015 61.1198C35.4516 61.1198 40.4498 60.9316 41.0156 60.6493C41.5814 60.3199 41.9115 59.6612 41.9115 58.7673C41.9115 57.8733 41.5814 57.2146 41.0156 56.8852C39.7897 56.2735 16.0248 56.2735 14.9403 56.9322Z" fill="#F3F4F9"/>
</svg>
