<svg width="87" height="75" viewBox="0 0 87 75" fill="none" xmlns="http://www.w3.org/2000/svg">
<path d="M26.2937 0.431153C23.8069 1.08815 21.6615 2.87142 20.4912 5.1709C19.5648 7.04802 19.4673 7.98659 19.4673 17.6069V28.0249H26.2937V18.2169C26.2937 9.91064 26.3912 8.26816 27.0738 7.65809C27.6589 7.09495 28.9267 6.90724 32.6812 6.90724H37.5084V11.7408C37.5084 18.4516 37.6547 18.6393 43.6034 18.6393C49.5521 18.6393 49.6984 18.4516 49.6984 11.7408V6.90724H54.5256C58.2801 6.90724 59.5479 7.09495 60.133 7.65809C60.8157 8.26816 60.9132 9.91064 60.9132 18.2169V28.0249H67.7883L67.4958 6.06253L66.033 4.04462C65.2528 2.96527 63.6925 1.60436 62.6198 1.08815C60.7669 0.149584 59.8405 0.102655 44.3348 0.00879903C34.3878 -0.0381291 27.3176 0.102655 26.2937 0.431153Z" fill="#F83810"/>
<path d="M6.78981 33.2809C4.2543 33.9848 2.15762 35.7211 0.987388 38.0675C-0.0365699 40.0855 -0.0853298 40.6486 0.0609498 54.4455L0.207229 68.7586L1.67003 70.7765C2.49894 71.8558 4.0105 73.2167 5.08322 73.7329C6.93609 74.6715 7.71625 74.7184 24.0996 74.7184C40.4829 74.7184 41.263 74.6715 43.1159 73.7329C44.1886 73.2167 45.749 71.8558 46.5291 70.7765L47.9919 68.7586V38.9122L46.5291 36.8943C45.749 35.815 44.1886 34.4541 43.1159 33.9379C41.263 32.9993 40.3366 32.9524 24.831 32.8585C14.884 32.8116 7.81377 32.9524 6.78981 33.2809ZM18.0046 44.5906C18.0046 51.3013 18.1509 51.489 24.0996 51.489C30.0483 51.489 30.1946 51.3013 30.1946 44.5906V39.757H35.0218C38.7763 39.757 40.0441 39.9447 40.6292 40.5078C41.7994 41.5872 41.7994 66.0837 40.6292 67.163C39.9953 67.82 37.8011 67.9139 24.0996 67.9139C10.398 67.9139 8.20385 67.82 7.56997 67.163C6.39973 66.0837 6.39973 41.5872 7.56997 40.5078C8.15509 39.9447 9.42285 39.757 13.1774 39.757H18.0046V44.5906Z" fill="#F83810"/>
<path d="M51.6491 35.2988C52.478 36.8005 53.1119 38.396 53.1119 38.8653C53.1119 39.5692 53.4532 39.7569 55.0623 39.7569H57.0127V44.5905C57.0127 51.3013 57.159 51.489 63.1077 51.489C69.0564 51.489 69.2026 51.3013 69.2026 44.5905V39.7569H74.0299C77.7844 39.7569 79.0521 39.9447 79.6373 40.5078C80.8075 41.5871 80.8075 66.0836 79.6373 67.163C79.0034 67.82 77.053 67.9139 65.9845 67.9139C53.6482 67.9139 53.1119 67.9608 53.1119 68.8055C53.1119 69.2748 52.478 70.8703 51.6491 72.372L50.2351 75L65.2043 74.8592C82.2215 74.7184 82.7091 74.6246 85.5372 70.7765L87 68.7586V38.9122L85.5372 36.8943C82.7091 33.0462 82.2215 32.9524 65.2043 32.8116L50.2351 32.6708L51.6491 35.2988Z" fill="#F83810"/>
</svg>
