<svg width="85" height="75" viewBox="0 0 85 75" fill="none" xmlns="http://www.w3.org/2000/svg">
<path d="M1.19318 1.06984C-0.389639 2.61882 -0.389639 4.40249 1.14521 5.85759C2.20042 6.93718 2.68007 7.03106 6.66109 7.03106C9.68283 7.03106 11.0738 7.21881 11.2177 7.59432C11.3616 7.92289 13.2801 17.4515 15.4865 28.7637C20.0431 51.7637 20.2349 52.4678 24.3119 54.7678L26.5662 56.082L73.8109 56.3637L75.01 55.1902C76.5448 53.6882 76.5448 51.9045 75.01 50.4494L73.8589 49.2759H51.1239C25.511 49.2759 26.7101 49.4637 25.8467 45.7555C24.9354 41.8596 22.6811 42.2351 47.5745 42.2351C61.7239 42.2351 70.4054 42.0474 71.5566 41.7188C73.667 41.1555 76.8806 38.5269 77.9358 36.5086C79.2788 34.0208 85.3223 10.7392 84.9865 9.42493C84.5069 7.50044 83.4997 6.2331 81.725 5.43514C80.334 4.778 76.401 4.68412 48.7736 4.68412H17.3571L16.7336 3.51065C15.3906 1.11678 13.1362 0.271879 7.52444 0.0841244C2.53617 -0.103631 2.34432 -0.0566918 1.19318 1.06984ZM74.9141 22.6147C72.6598 30.6412 71.6045 33.7861 70.8371 34.3963C69.9258 35.1474 68.1991 35.1943 46.8071 35.1004L23.7363 34.9596L21.7218 24.6331C20.5707 18.9535 19.5634 13.7433 19.4196 12.9923L19.1797 11.7249H77.9838L74.9141 22.6147Z" fill="#F3F4F9"/>
<path d="M23.1128 61.9024C20.7146 62.982 19.5634 64.5779 19.2757 67.2535C18.6521 72.6983 23.7843 76.4535 28.8685 74.2473C31.5065 73.1208 32.6577 71.5249 32.8975 68.6147C33.1853 65.5637 31.9862 63.4045 29.2042 62.0433C26.6142 60.7759 25.7029 60.7759 23.1128 61.9024Z" fill="#F3F4F9"/>
<path d="M67.1918 61.3392C65.5131 61.6677 62.8751 64.531 62.4914 66.4086C61.5321 71.5249 65.8968 75.9841 70.7892 74.8106C78.2716 73.0269 77.744 62.1371 70.1656 61.2922C69.1584 61.1984 67.8154 61.1984 67.1918 61.3392Z" fill="#F3F4F9"/>
</svg>
