<svg width="55" height="75" viewBox="0 0 55 75" fill="none" xmlns="http://www.w3.org/2000/svg">
<path d="M1.44444 1.12638L0 2.25273L0.111111 34.9705L0.277778 67.742L1.77778 68.8147C3.05556 69.7265 3.44444 69.7802 4.83333 69.2438C5.66667 68.8683 9.72222 64.8457 13.7778 60.2866C17.8889 55.7276 21.4444 52.0267 21.7778 52.134C22.0556 52.2413 24.5556 57.0148 27.2778 62.7539C30.0556 68.4929 32.7778 73.6419 33.4444 74.1246C35.8333 76.1092 39.6111 74.5001 39.6111 71.4965C39.6111 70.6383 37.4444 65.382 34.7222 59.7503C32.0556 54.1721 29.7222 49.2913 29.6111 48.9158C29.3889 48.4331 31.8333 48.2722 40.7222 48.2722C51.3889 48.2722 52.1667 48.2186 53.5556 47.1459C54.5 46.395 55 45.5368 55 44.5177C55 43.1232 52.5556 40.8705 34.8889 25.6379C4.88889 -0.160882 5.11111 2.57191e-05 4 2.57191e-05C3.38889 2.57191e-05 2.27778 0.482748 1.44444 1.12638ZM24.1667 26.657L39.6111 39.9587L30.7778 40.2268C25.5 40.3878 21.5 40.7632 20.7778 41.1387C20.1667 41.4605 17.1667 44.5713 14.1111 47.9504C11.1111 51.3831 8.44444 54.1721 8.22222 54.1721C7.94444 54.1721 7.77778 45.0004 7.77778 33.7906C7.77778 22.5807 8 13.409 8.22222 13.409C8.5 13.409 15.6667 19.3625 24.1667 26.657Z" fill="#F3F4F9"/>
</svg>
