<svg width="75" height="75" viewBox="0 0 75 75" fill="none" xmlns="http://www.w3.org/2000/svg">
<path d="M1.96096 11.4282C-0.653654 8.81382 -0.653654 4.57512 1.96096 1.96076C4.57558 -0.653588 8.81471 -0.653588 11.4293 1.96076L72.9737 63.4989C75.5883 66.1133 75.5883 70.352 72.9737 72.9663C70.3591 75.5807 66.1199 75.5807 63.5053 72.9663L1.96096 11.4282Z" fill="#F3F4F9"/>
<path d="M63.5707 2.03369C66.1853 -0.580664 70.4244 -0.580664 73.039 2.03369C75.6537 4.64804 75.6537 8.88674 73.039 11.5011L11.4947 73.0392C8.88007 75.6536 4.64094 75.6536 2.02632 73.0392C-0.588296 70.4249 -0.588296 66.1862 2.02632 63.5718L63.5707 2.03369Z" fill="#F3F4F9"/>
</svg>
