<svg width="66" height="75" viewBox="0 0 66 75" fill="none" xmlns="http://www.w3.org/2000/svg">
<path d="M25.1183 7.55859L22.3192 11.7188H43.6808L40.8817 7.55859C40.6607 7.23633 40.2924 7.03125 39.8946 7.03125H26.0906C25.6929 7.03125 25.3246 7.22168 25.1036 7.55859H25.1183ZM46.7746 3.66211L52.1813 11.7188H54.2143H61.2857H62.4643C64.4237 11.7188 66 13.2861 66 15.2344C66 17.1826 64.4237 18.75 62.4643 18.75H61.2857V63.2812C61.2857 69.7559 56.0116 75 49.5 75H16.5C9.98839 75 4.71429 69.7559 4.71429 63.2812V18.75H3.53571C1.57634 18.75 0 17.1826 0 15.2344C0 13.2861 1.57634 11.7188 3.53571 11.7188H4.71429H11.7857H13.8188L19.2254 3.64746C20.7576 1.37695 23.3357 0 26.0906 0H39.8946C42.6496 0 45.2277 1.37695 46.7598 3.64746L46.7746 3.66211ZM11.7857 18.75V63.2812C11.7857 65.874 13.8924 67.9688 16.5 67.9688H49.5C52.1076 67.9688 54.2143 65.874 54.2143 63.2812V18.75H11.7857ZM23.5714 28.125V58.5938C23.5714 59.8828 22.5107 60.9375 21.2143 60.9375C19.9179 60.9375 18.8571 59.8828 18.8571 58.5938V28.125C18.8571 26.8359 19.9179 25.7812 21.2143 25.7812C22.5107 25.7812 23.5714 26.8359 23.5714 28.125ZM35.3571 28.125V58.5938C35.3571 59.8828 34.2964 60.9375 33 60.9375C31.7036 60.9375 30.6429 59.8828 30.6429 58.5938V28.125C30.6429 26.8359 31.7036 25.7812 33 25.7812C34.2964 25.7812 35.3571 26.8359 35.3571 28.125ZM47.1429 28.125V58.5938C47.1429 59.8828 46.0821 60.9375 44.7857 60.9375C43.4893 60.9375 42.4286 59.8828 42.4286 58.5938V28.125C42.4286 26.8359 43.4893 25.7812 44.7857 25.7812C46.0821 25.7812 47.1429 26.8359 47.1429 28.125Z" fill="#F3F4F9"/>
</svg>
