<svg width="94" height="75" viewBox="0 0 94 75" fill="none" xmlns="http://www.w3.org/2000/svg">
<path d="M46.9918 8.03571C36.3525 8.03571 27.606 12.9911 20.8993 19.3694C14.6169 25.3627 10.2763 32.4777 8.05703 37.5C10.2763 42.5223 14.6169 49.6373 20.883 55.6306C27.606 62.0089 36.3525 66.9643 46.9918 66.9643C57.6312 66.9643 66.3777 62.0089 73.0844 55.6306C79.3668 49.6373 83.7074 42.5223 85.9266 37.5C83.7074 32.4777 79.3668 25.3627 73.1007 19.3694C66.3777 12.9911 57.6312 8.03571 46.9918 8.03571ZM15.5633 13.4933C23.2491 6.16071 33.8069 0 46.9918 0C60.1768 0 70.7346 6.16071 78.4204 13.4933C86.0572 20.7757 91.1647 29.4643 93.5961 35.4408C94.1346 36.7634 94.1346 38.2366 93.5961 39.5592C91.1647 45.5357 86.0572 54.2411 78.4204 61.5067C70.7346 68.8393 60.1768 75 46.9918 75C33.8069 75 23.2491 68.8393 15.5633 61.5067C7.92648 54.2411 2.81894 45.5357 0.403871 39.5592C-0.134624 38.2366 -0.134624 36.7634 0.403871 35.4408C2.81894 29.4643 7.92648 20.7589 15.5633 13.4933ZM46.9918 50.8929C54.2044 50.8929 60.0463 44.8996 60.0463 37.5C60.0463 30.1004 54.2044 24.1071 46.9918 24.1071C46.8776 24.1071 46.7797 24.1071 46.6655 24.1071C46.8776 24.9609 46.9918 25.865 46.9918 26.7857C46.9918 32.6953 42.3086 37.5 36.5483 37.5C35.6508 37.5 34.7696 37.3828 33.9374 37.1652C33.9374 37.2824 33.9374 37.3828 33.9374 37.5C33.9374 44.8996 39.7793 50.8929 46.9918 50.8929ZM46.9918 16.0714C52.5314 16.0714 57.8441 18.3291 61.7612 22.3477C65.6783 26.3663 67.8789 31.8168 67.8789 37.5C67.8789 43.1832 65.6783 48.6337 61.7612 52.6523C57.8441 56.6709 52.5314 58.9286 46.9918 58.9286C41.4522 58.9286 36.1395 56.6709 32.2224 52.6523C28.3054 48.6337 26.1048 43.1832 26.1048 37.5C26.1048 31.8168 28.3054 26.3663 32.2224 22.3477C36.1395 18.3291 41.4522 16.0714 46.9918 16.0714Z" fill="#F3F4F9"/>
</svg>
