<svg width="87" height="75" viewBox="0 0 87 75" fill="none" xmlns="http://www.w3.org/2000/svg">
<path d="M41.9912 0.383222C41.4556 0.665061 31.8638 8.41562 20.714 17.5754C8.34694 27.7216 0.264529 34.6736 0.118461 35.2842C-0.271053 36.7874 0.313218 38.1966 1.67652 39.0421C3.18588 40.0285 4.59787 39.6527 7.08102 37.5859C8.20087 36.6934 9.22334 35.9419 9.36941 35.9419C9.51548 35.9419 9.66155 42.8469 9.75893 51.3021C9.90499 66.0986 9.95368 66.8032 10.9762 68.6351C12.4368 71.3126 15.0174 73.3325 18.0361 74.2249C21.7852 75.2584 65.2159 75.2584 68.965 74.2249C71.9837 73.3325 74.5643 71.3126 76.025 68.6351C77.0474 66.8032 77.0961 66.0986 77.2422 51.3021C77.3396 42.8469 77.4856 35.9419 77.6317 35.9419C77.7291 35.9419 78.9463 36.7874 80.3096 37.8208C83.1823 40.0285 84.2534 40.1225 85.9089 38.5254C86.834 37.6329 87.0774 36.9283 86.98 35.8479C86.834 34.4857 84.6916 32.5598 66.0437 17.2935C54.6504 7.94589 44.7665 0.148356 44.1335 0.0544101C43.5492 -0.0865092 42.5755 0.0544101 41.9912 0.383222ZM57.2796 19.0785L70.5231 29.8823V47.0275C70.5231 58.7238 70.3283 64.5015 69.9875 65.2061C68.7703 67.4608 67.6504 67.8836 62.6354 67.8836H57.8639V55.6706V43.4576L56.2084 41.6726L54.553 39.9346H43.5006H32.4481L30.7927 41.6726L29.1372 43.4576V55.6706V67.8836H24.4144C19.3507 67.8836 18.2309 67.4608 17.0136 65.2061C16.6728 64.5015 16.478 58.7238 16.478 47.0275V29.8823L29.7702 19.0785C37.0249 13.1129 43.2571 8.22773 43.5006 8.22773C43.7927 8.22773 49.9762 13.1129 57.2796 19.0785ZM51.0474 57.3146V67.8836H43.5006H35.9537V57.3146V46.7457H43.5006H51.0474V57.3146Z" fill="#F3F4F9"/>
</svg>
