<svg width="50" height="75" viewBox="0 0 50 75" fill="none" xmlns="http://www.w3.org/2000/svg">
<path d="M19.122 0.477155C9.43367 3.09408 2.30113 10.8854 0.428838 20.8773C-0.314135 24.8027 -0.0763839 30.1258 1.02322 33.5159C2.15254 37.0547 3.16298 38.8984 6.84812 44.4594C10.355 49.6932 11.7815 52.3102 12.6433 55.0163L13.1783 56.7114H24.6795C37.2506 56.7114 36.894 56.7709 37.31 54.9866C37.7855 53.0239 40.163 48.7714 44.502 42.3183C48.6626 36.0733 50 32.1182 50 25.9327C50 15.8219 44.5614 6.66262 36.0915 2.58854C32.0201 0.625845 30.0586 0.150039 25.2441 0.0310881C21.9751 -0.0581253 20.8457 0.0310881 19.122 0.477155ZM29.5534 6.00839C36.567 7.8224 42.2434 13.5321 44.1751 20.7286C44.7992 23.0779 44.8586 27.8954 44.294 30.2447C43.6996 32.7724 41.6193 36.8168 38.4988 41.5451C34.457 47.6413 32.7036 51.1801 31.9606 54.6892L31.7823 55.5219H18.2305L17.8738 53.7971C17.3983 51.5073 15.318 47.4034 11.9895 42.2885C6.25375 33.3969 5.62965 31.9398 5.3919 26.7357C5.21358 22.6318 5.71881 20.2231 7.50194 16.5653C8.51239 14.4837 9.22564 13.5618 11.4248 11.3612C14.3076 8.47663 16.5068 7.13843 19.9542 6.12734C22.3614 5.44337 27.1461 5.3839 29.5534 6.00839Z" fill="#F3F4F9"/>
<path d="M20.9945 9.57668C15.7937 11.0041 11.2764 15.5242 9.64188 20.9365C9.13665 22.6613 8.75031 26.1109 9.01778 27.0625C9.37441 28.4899 12.2571 28.9955 13.3567 27.806C13.6836 27.4491 13.9511 27.003 13.9511 26.8544C13.9808 25.0403 14.6941 22.1558 15.4965 20.6986C17.2202 17.4275 20.0435 15.5242 24.1744 14.7808C26.76 14.305 27.6218 13.5615 27.6218 11.807C27.6218 9.87406 26.6708 9.13061 24.2933 9.16035C23.2531 9.16035 21.7672 9.36852 20.9945 9.57668Z" fill="#F3F4F9"/>
<path d="M14.902 60.4879C13.8916 60.6961 13.2675 62.3614 13.5052 64.2646C13.951 67.8034 15.0803 70.0635 17.4875 72.2641C19.7165 74.2566 21.7968 75 25.0956 75C27.4137 75 28.008 74.8811 29.5237 74.1673C31.9012 73.067 33.5358 71.6694 34.6651 69.7661C36.2402 67.1492 37.0129 62.9264 36.2402 61.4693C36.0619 61.1422 35.4378 60.7556 34.8137 60.5772C33.7438 60.2798 16.3879 60.2203 14.902 60.4879ZM30.2964 66.5247C29.8803 67.2682 28.3052 68.4874 26.9382 69.0524C25.5117 69.6472 24.1743 69.6175 22.7181 68.9335C21.4996 68.3982 19.5976 66.7032 19.5976 66.1976C19.5976 66.0489 21.9454 65.93 25.0956 65.93C30.4747 65.93 30.5936 65.93 30.2964 66.5247Z" fill="#F3F4F9"/>
</svg>
