<svg width="94" height="75" viewBox="0 0 94 75" fill="none" xmlns="http://www.w3.org/2000/svg">
<path d="M7.31583 0.494949C4.57566 1.24916 2.30976 3.2963 1.04506 5.93603C-0.061544 8.3064 -0.061544 8.6835 0.0438471 38.2593L0.201934 68.1583L1.7828 70.4748C2.67862 71.7138 4.31219 73.2761 5.47149 73.8687C7.57931 75 8.05357 75 47.101 75C86.1484 75 86.6226 75 88.7304 73.8687C89.8897 73.2761 91.576 71.7138 92.4191 70.4748L94 68.1583V6.9596L92.4191 4.6431C91.576 3.40404 89.8897 1.84175 88.7304 1.24916C86.6753 0.117845 86.043 0.117845 47.8914 0.010101C23.1772 -0.043771 8.47513 0.117845 7.31583 0.494949ZM87.2023 6.20539C87.8346 6.69024 88.6251 7.65993 88.9412 8.3064C89.7844 9.97643 89.7844 65.1414 88.9412 66.8115C88.6251 67.4579 87.8346 68.4276 87.2023 68.9125C86.2011 69.7744 83.2501 69.8822 47.101 69.8822C10.9518 69.8822 8.00087 69.7744 6.99966 68.9125C6.36731 68.4276 5.57688 67.4579 5.26071 66.8115C4.41758 65.1414 4.41758 9.97643 5.26071 8.3064C5.57688 7.65993 6.36731 6.69024 6.99966 6.20539C8.00087 5.34343 10.9518 5.23569 47.101 5.23569C83.2501 5.23569 86.2011 5.34343 87.2023 6.20539Z" fill="#131313"/>
<path d="M18.1184 18.7037C15.9579 21.1818 17.5915 25.1684 20.7532 25.1684C22.8083 25.1684 24.3365 23.5522 24.3365 21.3973C24.3365 19.2424 22.8083 17.6263 20.7532 17.6263C19.752 17.6263 18.6981 18.0572 18.1184 18.7037Z" fill="#131313"/>
<path d="M32.5043 19.2963C31.1869 20.0505 31.2396 22.798 32.557 23.5522C33.9798 24.3064 76.0308 24.3064 77.4536 23.5522C78.0859 23.1751 78.4548 22.4209 78.4548 21.3973C78.4548 20.3738 78.0859 19.6196 77.4536 19.2425C76.0308 18.4882 33.769 18.5421 32.5043 19.2963Z" fill="#131313"/>
<path d="M18.1184 34.8653C15.9579 37.3434 17.5915 41.33 20.7532 41.33C22.8083 41.33 24.3365 39.7138 24.3365 37.5589C24.3365 35.404 22.8083 33.7879 20.7532 33.7879C19.752 33.7879 18.6981 34.2189 18.1184 34.8653Z" fill="#131313"/>
<path d="M32.5043 35.4579C31.1869 36.2121 31.2396 38.9596 32.557 39.7138C33.242 40.037 41.2517 40.2525 55.0053 40.2525C68.7588 40.2525 76.7685 40.037 77.4536 39.7138C78.0859 39.3367 78.4548 38.5825 78.4548 37.5589C78.4548 36.5354 78.0859 35.7811 77.4536 35.404C76.0308 34.6498 33.769 34.7037 32.5043 35.4579Z" fill="#131313"/>
<path d="M18.1184 51.0269C15.9579 53.5051 17.5915 57.4916 20.7532 57.4916C22.8083 57.4916 24.3365 55.8754 24.3365 53.7205C24.3365 51.5657 22.8083 49.9495 20.7532 49.9495C19.752 49.9495 18.6981 50.3805 18.1184 51.0269Z" fill="#131313"/>
<path d="M32.5043 51.6195C31.1869 52.3737 31.2396 55.1212 32.557 55.8754C33.242 56.1987 41.2517 56.4141 55.0053 56.4141C68.7588 56.4141 76.7685 56.1987 77.4536 55.8754C78.0859 55.4983 78.4548 54.7441 78.4548 53.7205C78.4548 52.697 78.0859 51.9428 77.4536 51.5657C76.0308 50.8114 33.769 50.8653 32.5043 51.6195Z" fill="#131313"/>
</svg>
