<svg width="90" height="75" viewBox="0 0 90 75" fill="none" xmlns="http://www.w3.org/2000/svg">
<path d="M66.4277 12.3717L88.0137 32.9297C89.2793 34.135 90 35.7924 90 37.5C90 39.2076 89.2793 40.865 88.0137 42.0703L66.4277 62.6284C65.3027 63.6998 63.791 64.2857 62.209 64.2857C58.9219 64.2857 56.25 61.7411 56.25 58.6105V48.2143H33.75C30.6387 48.2143 28.125 45.8203 28.125 42.8571V32.1429C28.125 29.1797 30.6387 26.7857 33.75 26.7857H56.25V16.3895C56.25 13.2589 58.9219 10.7143 62.209 10.7143C63.791 10.7143 65.3027 11.317 66.4277 12.3717ZM28.125 10.7143H16.875C13.7637 10.7143 11.25 13.1083 11.25 16.0714V58.9286C11.25 61.8917 13.7637 64.2857 16.875 64.2857H28.125C31.2363 64.2857 33.75 66.6797 33.75 69.6429C33.75 72.606 31.2363 75 28.125 75H16.875C7.55859 75 0 67.8013 0 58.9286V16.0714C0 7.19866 7.55859 0 16.875 0H28.125C31.2363 0 33.75 2.39397 33.75 5.35714C33.75 8.32031 31.2363 10.7143 28.125 10.7143Z" fill="#8000FF"/>
</svg>
