<svg width="84" height="81" viewBox="0 0 84 81" fill="none" xmlns="http://www.w3.org/2000/svg">
<path d="M16 78C16 79.3807 17.1193 80.5 18.5 80.5C19.8807 80.5 21 79.3807 21 78L16 78ZM20.2678 1.23223C19.2915 0.255922 17.7085 0.255922 16.7322 1.23223L0.822328 17.1421C-0.153983 18.1185 -0.153983 19.7014 0.822328 20.6777C1.79864 21.654 3.38155 21.654 4.35786 20.6777L18.5 6.53553L32.6421 20.6777C33.6185 21.654 35.2014 21.654 36.1777 20.6777C37.154 19.7014 37.154 18.1184 36.1777 17.1421L20.2678 1.23223ZM31.5 29.5C30.1193 29.5 29 30.6193 29 32C29 33.3807 30.1193 34.5 31.5 34.5V29.5ZM81.5 34.5C82.8807 34.5 84 33.3807 84 32C84 30.6193 82.8807 29.5 81.5 29.5V34.5ZM31.5 41.5C30.1193 41.5 29 42.6193 29 44C29 45.3807 30.1193 46.5 31.5 46.5V41.5ZM66.5 46.5C67.8807 46.5 69 45.3807 69 44C69 42.6193 67.8807 41.5 66.5 41.5V46.5ZM31.5 53.5C30.1193 53.5 29 54.6193 29 56C29 57.3807 30.1193 58.5 31.5 58.5V53.5ZM51.5 58.5C52.8807 58.5 54 57.3807 54 56C54 54.6193 52.8807 53.5 51.5 53.5V58.5ZM31.5 65.5C30.1193 65.5 29 66.6193 29 68C29 69.3807 30.1193 70.5 31.5 70.5V65.5ZM36.5 70.5C37.8807 70.5 39 69.3807 39 68C39 66.6193 37.8807 65.5 36.5 65.5V70.5ZM21 78L21 3L16 3L16 78L21 78ZM31.5 34.5H81.5V29.5H31.5V34.5ZM31.5 46.5H66.5V41.5H31.5V46.5ZM31.5 58.5H51.5V53.5H31.5V58.5ZM31.5 70.5H36.5V65.5H31.5V70.5Z" fill="#F3F4F9"/>
</svg>
