<svg width="79" height="75" viewBox="0 0 79 75" fill="none" xmlns="http://www.w3.org/2000/svg">
<path d="M8.08837 8.08837C0.337015 15.8116 0 16.2048 0 17.2159C0 18.6763 0.982962 19.6592 2.41528 19.6592C3.42632 19.6592 3.79142 19.3222 9.18367 13.9861L14.8849 8.31305V73.6098L15.587 74.2838C16.5138 75.2387 18.0303 75.2387 18.9571 74.2838L19.6592 73.6098V8.31305L25.3604 13.9861C30.7527 19.3222 31.1178 19.6592 32.1288 19.6592C33.5611 19.6592 34.5441 18.6763 34.5441 17.2159C34.5441 16.2048 34.2071 15.8116 26.4557 8.08837C18.592 0.224677 18.3673 0 17.272 0C16.1767 0 15.9521 0.224677 8.08837 8.08837Z" fill="#F3F4F9"/>
<path d="M28.4778 27.2421C26.8489 27.888 26.5119 29.9101 27.7757 31.202L28.5901 32.0165H52.6587C78.1595 32.0165 77.9629 32.0165 78.4684 30.7527C78.8616 29.6855 78.6369 28.4497 77.9067 27.7757L77.1766 27.1017L53.1361 27.0455C39.9083 27.0174 28.7867 27.1017 28.4778 27.2421Z" fill="#F3F4F9"/>
<path d="M28.4778 38.4759C26.8489 39.1219 26.5119 41.144 27.7757 42.4359L28.5901 43.2503H45.6375C63.6398 43.2503 63.9487 43.2222 64.4261 41.9865C64.8193 40.9193 64.5946 39.6836 63.8644 39.0095L63.1342 38.3355L46.115 38.2793C36.7347 38.2513 28.7867 38.3355 28.4778 38.4759Z" fill="#F3F4F9"/>
<path d="M28.4778 49.7098C26.8489 50.3557 26.5119 52.3778 27.7757 53.6697L28.5901 54.4842H38.6164C50.4681 54.4842 50.5523 54.4561 50.5523 51.8442C50.5523 51.2264 50.3277 50.7208 49.8221 50.2434L49.0919 49.5694L39.0938 49.5132C33.5892 49.4851 28.7867 49.5694 28.4778 49.7098Z" fill="#F3F4F9"/>
<path d="M28.4778 60.9156C26.8489 61.6177 26.5119 63.6117 27.7757 64.9036C28.5902 65.6899 28.6744 65.718 31.5952 65.718C35.6675 65.718 36.51 65.2687 36.51 63.0781C36.51 62.4602 36.2853 61.9547 35.7798 61.4773C35.1339 60.8594 34.7969 60.8032 32.0726 60.7471C30.4157 60.6909 28.7867 60.7751 28.4778 60.9156Z" fill="#F3F4F9"/>
</svg>
