<svg width="56" height="75" viewBox="0 0 56 75" fill="none" xmlns="http://www.w3.org/2000/svg">
<path d="M0 75L2.21423 73.1832C3.40651 72.1612 9.56662 67.165 15.8687 62.0269C25.5488 54.1919 27.4224 52.7725 27.8482 53.028C28.1037 53.1983 34.1787 58.081 41.3607 63.9005C48.5144 69.6915 54.5326 74.5742 54.7313 74.7445C54.9868 74.9432 55.0719 67.4773 55.0719 37.5V0H0V75ZM52.517 69.578L49.6215 67.1934C40.2536 59.5288 27.9334 49.5931 27.6211 49.4796C27.4508 49.3944 21.8584 53.7377 15.2441 59.1313C8.62983 64.4966 3.06586 68.9818 2.89553 69.0954C2.64005 69.2373 2.55488 61.1753 2.55488 35.9387V2.55488H52.517V69.578Z" fill="#F3F4F9"/>
<path d="M25.435 13.9954C24.2427 17.6574 23.2775 20.8085 23.2775 20.9788C23.2775 21.2059 21.1484 21.291 15.8683 21.291C11.7238 21.291 8.54435 21.4046 8.62951 21.5465C8.71467 21.6885 11.3547 23.6756 14.4774 25.975C17.6 28.2744 20.1549 30.2331 20.1549 30.3183C20.1549 30.4035 19.1897 33.5261 17.9974 37.2733C16.8335 40.992 15.9251 44.1147 15.9819 44.1998C16.0671 44.2566 18.5936 42.4966 21.631 40.254C24.6401 38.0113 27.2518 36.081 27.4221 35.9674C27.5924 35.8823 30.2892 37.6707 33.497 40.0269C36.6481 42.383 39.3165 44.285 39.4584 44.285C39.572 44.285 38.6636 41.134 37.4145 37.3016C36.1939 33.4409 35.2855 30.2047 35.399 30.0912C35.5126 29.9776 38.181 27.9905 41.3036 25.6627L46.9811 21.433L32.248 21.1491L30.1189 14.4213C28.9266 10.7309 27.8763 7.60823 27.7627 7.52307C27.6776 7.40952 26.5989 10.3334 25.435 13.9954ZM39.2597 23.8743L36.0235 26.2873C34.2351 27.6215 32.617 28.8138 32.4183 28.9273C32.106 29.0976 32.3048 29.9776 33.3267 33.2138C34.0364 35.4565 34.5758 37.33 34.5474 37.3868C34.4906 37.4436 32.9861 36.3932 31.226 35.059C29.466 33.7248 27.8763 32.6461 27.706 32.6461C27.5356 32.6461 25.9459 33.7248 24.1575 35.059C22.3691 36.3649 20.8646 37.4152 20.8362 37.3868C20.7794 37.3584 21.3471 35.4848 22.0568 33.2422C23.2775 29.3531 23.3059 29.1828 22.8233 28.8138C22.511 28.615 20.8929 27.4228 19.1897 26.1453L16.0671 23.8743L25.1227 23.704L27.6776 15.5284L30.2892 23.704L39.2597 23.8743Z" fill="#F3F4F9"/>
</svg>
