<svg width="75" height="75" viewBox="0 0 75 75" fill="none" xmlns="http://www.w3.org/2000/svg">
<path d="M52.7365 0.498325C51.5572 1.15473 51.6044 3.54591 52.7836 4.20231C53.3025 4.43674 55.7082 4.67117 58.1138 4.67117H62.5006L52.3591 14.7516C46.7931 20.2842 42.1233 24.8321 41.9817 24.8321C41.8402 24.8321 38.2553 21.8783 34.01 18.2681C29.8119 14.6579 26.0384 11.7041 25.7082 11.7041C24.6704 11.7041 7.31194 26.8951 7.17043 27.9266C7.02892 29.0049 8.16099 30.4584 9.19873 30.4584C9.52892 30.4584 13.3025 27.5046 17.5478 23.8944C21.7931 20.2842 25.4723 17.3304 25.7082 17.3304C25.9912 17.3304 29.6233 20.2842 33.8685 23.8944C38.1138 27.5046 41.8874 30.4584 42.2176 30.4584C42.595 30.4584 48.1138 25.3478 54.4817 19.1589L66.0384 7.85941V12.7824C66.0384 17.3772 66.1327 17.7992 67.0289 18.315C67.7836 18.6901 68.3497 18.6901 69.1516 18.315C70.2836 17.7992 70.2836 17.7992 70.2836 9.40664C70.2836 1.52982 70.2365 0.920298 69.3874 0.451439C68.161 -0.158077 53.8214 -0.158077 52.7365 0.498325Z" fill="#F3F4F9"/>
<path d="M3.77358 38.5228C0.0943395 40.4451 0 40.8671 0 56.2456C0 71.6242 0.0943395 72.0462 3.77358 73.9685L5.84906 75H69.1509L71.2264 73.9216C74.9057 72.0462 75 71.6242 75 56.2456C75 40.8671 74.9057 40.4451 71.2264 38.5228L69.1509 37.4913H5.84906L3.77358 38.5228ZM11.7925 42.7425C11.7925 43.0238 11.3679 44.196 10.8019 45.3212C9.76415 47.4311 7.21698 49.2128 5.18868 49.2128C4.33962 49.2128 4.24528 48.9314 4.24528 46.4465C4.24528 42.7425 4.85849 42.1799 8.77358 42.1799C10.8019 42.1799 11.7925 42.3674 11.7925 42.7425ZM59.1509 44.1022C59.8585 48.4626 62.8774 51.9321 67.0755 53.1981C68.3962 53.5732 69.8113 53.9014 70.1415 53.9014C70.566 53.9014 70.7547 54.6046 70.7547 56.2456C70.7547 57.8867 70.566 58.5899 70.1415 58.5899C69.8113 58.5899 68.3962 58.9181 67.0755 59.2932C62.8774 60.5592 59.8585 64.0287 59.1509 68.3891L58.8208 70.3114H16.1792L15.8491 68.3891C15.1415 64.0287 12.1226 60.5592 7.92453 59.2932C6.60377 58.9181 5.18868 58.5899 4.85849 58.5899C4.43396 58.5899 4.24528 57.8867 4.24528 56.2456C4.24528 54.6046 4.43396 53.9014 4.85849 53.9014C5.18868 53.9014 6.60377 53.5732 7.92453 53.1981C12.1226 51.9321 15.1415 48.4626 15.8491 44.1022L16.1792 42.1799H58.8208L59.1509 44.1022ZM70 42.9301C70.5189 43.3989 70.7547 44.5242 70.7547 46.4465C70.7547 48.9314 70.6604 49.2128 69.8113 49.2128C67.783 49.2128 65.2359 47.4311 64.1981 45.3212C63.6321 44.196 63.2075 43.0238 63.2075 42.7425C63.2075 41.8517 69.1038 41.9923 70 42.9301ZM7.9717 64.2162C9.24528 64.8258 10.1415 65.7635 10.8019 67.1701C12.2642 70.1708 12.1698 70.3114 8.77358 70.3114C4.85849 70.3114 4.24528 69.7488 4.24528 66.0448C4.24528 63.5598 4.33962 63.2785 5.18868 63.2785C5.75472 63.2785 6.98113 63.7005 7.9717 64.2162ZM70.7547 66.0448C70.7547 69.7488 70.1415 70.3114 66.2264 70.3114C62.8302 70.3114 62.7359 70.1708 64.1981 67.1701C65.2359 65.0602 67.6415 63.3254 69.717 63.2785C70.6604 63.2785 70.7547 63.4661 70.7547 66.0448Z" fill="#F3F4F9"/>
<path d="M33.6321 47.9936C30.0472 49.6814 28.5377 52.1195 28.5377 56.2455C28.5377 60.3714 30.0472 62.8095 33.6321 64.4974C36.6981 65.904 38.3019 65.904 41.3679 64.4974C44.9528 62.8095 46.4623 60.3714 46.4623 56.2455C46.4623 53.6199 46.2736 52.8228 45.1415 51.1349C43.6792 48.9313 40 46.8683 37.5 46.8683C36.7453 46.8683 35 47.384 33.6321 47.9936ZM40.7075 52.6821C42.9717 54.7451 42.9717 57.7458 40.7075 59.8088C39.0094 61.356 35.9906 61.356 34.2924 59.8088C30.9434 56.7143 32.9245 51.5569 37.5 51.5569C38.9623 51.5569 39.8113 51.8851 40.7075 52.6821Z" fill="#F3F4F9"/>
</svg>
