<svg width="79" height="75" viewBox="0 0 79 75" fill="none" xmlns="http://www.w3.org/2000/svg">
<path d="M16.3691 0.230109C16.0041 0.454728 15.5268 0.932042 15.3302 1.29705C15.0494 1.85859 14.9652 8.96216 14.9652 34.2879V66.5768L9.4059 61.0175C4.77314 56.3847 3.67813 55.4301 2.86389 55.3178C1.54425 55.0932 0.42116 56.0197 0.168464 57.5359L0 58.6028L8.1705 66.8014C16.2006 74.8315 16.3691 75 17.4922 75C18.6153 75 18.7837 74.8315 26.6173 66.9699C33.4401 60.1752 34.6474 58.8275 34.7878 57.9852C35.0124 56.6655 34.0859 55.5424 32.5697 55.2897L31.5027 55.1213L25.775 60.849L20.0191 66.5487L19.963 33.9229C19.8787 1.71821 19.8787 1.29705 19.3172 0.763578C18.5872 0.00549082 17.2395 -0.219128 16.3691 0.230109Z" fill="#F3F4F9"/>
<path d="M27.9366 10.0852C27.0662 11.0118 27.0942 12.6122 28.0208 13.5107C28.6666 14.1845 28.8631 14.2126 31.9516 14.2126C35.1805 14.2126 35.2367 14.2126 36.0509 13.3984C36.5001 12.9491 36.8651 12.3033 36.8651 11.9664C36.8651 11.1522 36.1351 9.83255 35.6017 9.60793C35.349 9.5237 33.6643 9.43946 31.8393 9.43946C28.7508 9.43946 28.4981 9.46754 27.9366 10.0852Z" fill="#F3F4F9"/>
<path d="M27.9366 21.3159C27.0662 22.2424 27.0942 23.8428 28.0208 24.7413L28.6946 25.4433H49.2753L50.0896 24.629C50.5388 24.1798 50.9038 23.534 50.9038 23.1971C50.9038 22.3828 50.1738 21.0632 49.6403 20.8386C49.3876 20.7543 44.5302 20.6701 38.8586 20.6701H28.5262L27.9366 21.3159Z" fill="#F3F4F9"/>
<path d="M27.9366 32.5465C27.0662 33.4731 27.0942 35.0735 28.0208 35.972L28.6946 36.6739H63.314L64.1282 35.8597C64.5774 35.4104 64.9425 34.7646 64.9425 34.4277C64.9425 33.6135 64.2124 32.2938 63.679 32.0692C63.4263 31.985 55.4242 31.9008 45.878 31.9008H28.5262L27.9366 32.5465Z" fill="#F3F4F9"/>
<path d="M27.9366 43.7784C27.0662 44.7049 27.0942 46.3053 28.0208 47.2038L28.6946 47.9057H77.3526L78.1669 47.0915C78.6161 46.6422 78.9811 45.9965 78.9811 45.6595C78.9811 44.8453 78.2511 43.5257 77.7176 43.301C77.4649 43.2168 66.2902 43.1326 52.8973 43.1326H28.5262L27.9366 43.7784Z" fill="#F3F4F9"/>
</svg>
