<svg width="85" height="81" viewBox="0 0 85 81" fill="none" xmlns="http://www.w3.org/2000/svg">
<path d="M21.5 3C21.5 1.61929 20.3807 0.5 19 0.5C17.6193 0.5 16.5 1.61929 16.5 3L21.5 3ZM17.2322 79.7678C18.2085 80.7441 19.7915 80.7441 20.7678 79.7678L36.6777 63.8579C37.654 62.8816 37.654 61.2986 36.6777 60.3223C35.7014 59.346 34.1184 59.346 33.1421 60.3223L19 74.4645L4.85787 60.3223C3.88155 59.346 2.29864 59.346 1.32233 60.3223C0.34602 61.2986 0.34602 62.8816 1.32233 63.8579L17.2322 79.7678ZM32 46.5C30.6193 46.5 29.5 47.6193 29.5 49C29.5 50.3807 30.6193 51.5 32 51.5V46.5ZM82 51.5C83.3807 51.5 84.5 50.3807 84.5 49C84.5 47.6193 83.3807 46.5 82 46.5V51.5ZM32 34.5C30.6193 34.5 29.5 35.6193 29.5 37C29.5 38.3807 30.6193 39.5 32 39.5V34.5ZM67 39.5C68.3807 39.5 69.5 38.3807 69.5 37C69.5 35.6193 68.3807 34.5 67 34.5V39.5ZM32 22.5C30.6193 22.5 29.5 23.6193 29.5 25C29.5 26.3807 30.6193 27.5 32 27.5V22.5ZM52 27.5C53.3807 27.5 54.5 26.3807 54.5 25C54.5 23.6193 53.3807 22.5 52 22.5V27.5ZM32 10.5C30.6193 10.5 29.5 11.6193 29.5 13C29.5 14.3807 30.6193 15.5 32 15.5V10.5ZM37 15.5C38.3807 15.5 39.5 14.3807 39.5 13C39.5 11.6193 38.3807 10.5 37 10.5V15.5ZM16.5 3L16.5 78L21.5 78L21.5 3L16.5 3ZM32 51.5H82V46.5H32V51.5ZM32 39.5H67V34.5H32V39.5ZM32 27.5H52V22.5H32V27.5ZM32 15.5H37V10.5H32V15.5Z" fill="#F3F4F9"/>
</svg>
