<svg width="90" height="75" viewBox="0 0 90 75" fill="none" xmlns="http://www.w3.org/2000/svg">
<path d="M0 5.92105C0 2.65095 2.41766 0 5.4 0H48.6C51.5823 0 54 2.65095 54 5.92105C54 9.19116 51.5823 11.8421 48.6 11.8421H5.4C2.41766 11.8421 0 9.19116 0 5.92105Z" fill="#F3F4F9"/>
<path d="M36 69.0789C36 65.8088 38.4177 63.1579 41.4 63.1579H84.6C87.5823 63.1579 90 65.8088 90 69.0789C90 72.3491 87.5823 75 84.6 75H41.4C38.4177 75 36 72.3491 36 69.0789Z" fill="#F3F4F9"/>
<path d="M0 37.5C0 34.2299 2.41766 31.5789 5.4 31.5789H84.6C87.5823 31.5789 90 34.2299 90 37.5C90 40.7701 87.5823 43.4211 84.6 43.4211H5.4C2.41766 43.4211 0 40.7701 0 37.5Z" fill="#F3F4F9"/>
</svg>
