<svg width="68" height="75" viewBox="0 0 68 75" fill="none" xmlns="http://www.w3.org/2000/svg">
<path d="M25.621 11.1378C21.9027 16.849 19.7602 23.582 19.7602 30.7838C19.7602 47.1974 30.8798 61.1657 46.3905 66.2405C44.1949 66.7095 41.9108 66.9607 39.5558 66.9607C22.4162 66.9607 8.49902 53.7796 8.49902 37.4833C8.49902 25.9435 15.4753 15.9781 25.6387 11.1378H25.621ZM36.6166 0.0837427C16.1304 1.50737 0 17.7032 0 37.4833C0 58.2012 17.7063 75 39.5735 75C48.0371 75 55.8633 72.4877 62.3084 68.2001C62.6448 67.9824 62.9635 67.7479 63.2823 67.5301C64.1322 66.9272 64.9466 66.2908 65.7434 65.6208C66.2215 65.2188 66.6819 64.8169 67.1422 64.3982C68.0275 63.5775 68.2577 62.3046 67.6911 61.2662C67.1245 60.2278 65.9028 59.6416 64.6811 59.8426C64.0259 59.9431 63.3708 60.0435 62.7157 60.1105C61.8303 60.1943 60.9273 60.2613 60.0066 60.278C59.7941 60.278 59.5639 60.278 59.3515 60.278C59.3338 60.278 59.316 60.278 59.2983 60.278C42.1587 60.2445 28.2769 47.0634 28.2769 30.8006C28.2769 21.6224 32.6858 13.4323 39.6267 8.02255C39.8037 7.87182 39.9985 7.73783 40.1933 7.58709C40.9015 7.05114 41.6452 6.54868 42.4066 6.07972C42.9554 5.74475 43.522 5.40978 44.1064 5.10831C45.1864 4.52211 45.7353 3.34971 45.4697 2.21081C45.2041 1.07191 44.1772 0.217731 42.9377 0.11724C42.3003 0.0669943 41.6806 0.0334968 41.0432 0.0167483C40.5651 -2.55182e-07 40.0693 0 39.5913 0C39.0069 0 38.4403 0.0167487 37.856 0.0334972C37.4488 0.0502458 37.0415 0.0669939 36.6343 0.100491L36.6166 0.0837427Z" fill="#F3F4F9"/>
</svg>
