<svg width="65" height="75" viewBox="0 0 65 75" fill="none" xmlns="http://www.w3.org/2000/svg">
<path d="M32.5 0C29.9317 0 27.8567 2.09473 27.8567 4.6875V7.5C17.2641 9.66797 9.2834 19.1309 9.2834 30.4688V34.1895C9.2834 40.8398 7.03429 47.2998 2.92785 52.4853L0.765805 55.2246C-0.0757966 56.2793 -0.235411 57.7295 0.345004 58.9453C0.925419 60.1611 2.14429 60.9375 3.47925 60.9375H61.5208C62.8557 60.9375 64.0746 60.1611 64.655 58.9453C65.2354 57.7295 65.0758 56.2793 64.2342 55.2246L62.0721 52.5C57.9657 47.2998 55.7166 40.8398 55.7166 34.1895V30.4688C55.7166 19.1309 47.7359 9.66797 37.1433 7.5V4.6875C37.1433 2.09473 35.0683 0 32.5 0ZM32.5 14.0625C41.4819 14.0625 48.7516 21.4014 48.7516 30.4688V34.1895C48.7516 41.2061 50.7686 48.0469 54.5122 53.9062H10.4878C14.2314 48.0469 16.2484 41.2061 16.2484 34.1895V30.4688C16.2484 21.4014 23.5181 14.0625 32.5 14.0625ZM41.7866 65.625H32.5H23.2134C23.2134 68.1152 24.1856 70.5029 25.9268 72.2607C27.668 74.0186 30.0332 75 32.5 75C34.9668 75 37.332 74.0186 39.0732 72.2607C40.8144 70.5029 41.7866 68.1152 41.7866 65.625Z" fill="#F3F4F9"/>
</svg>
