<svg width="150" height="150" viewBox="0 0 150 150" fill="none" xmlns="http://www.w3.org/2000/svg">
<path d="M59.0527 118.75H84.7803C88.8791 118.75 91.2367 114.089 88.8081 110.787L69.8616 85.0284L54.7226 111.25C52.7981 114.583 55.2037 118.75 59.0527 118.75Z" fill="#505050"/>
<path d="M88.8081 110.787C91.2367 114.089 88.8791 118.75 84.7803 118.75H125.737C129.586 118.75 131.991 114.583 130.067 111.25L96.7248 53.5C94.8003 50.1667 89.989 50.1667 88.0645 53.5L69.8616 85.0284L88.8081 110.787Z" fill="#505050"/>
<path d="M39.8945 38.5C39.8945 42.6421 36.5367 46 32.3945 46C28.2524 46 24.8945 42.6421 24.8945 38.5C24.8945 34.3579 28.2524 31 32.3945 31C36.5367 31 39.8945 34.3579 39.8945 38.5Z" fill="#505050"/>
<path d="M24.009 118.75H59.0527C55.2037 118.75 52.7981 114.583 54.7226 111.25L69.8616 85.0284L58.4225 69.4761C56.4243 66.7595 52.365 66.7595 50.3669 69.4761L19.9812 110.787C17.5526 114.089 19.9102 118.75 24.009 118.75Z" fill="#505050"/>
<path fill-rule="evenodd" clip-rule="evenodd" d="M0 25C0 11.1929 11.1929 0 25 0H125C138.807 0 150 11.1929 150 25V125C150 138.807 138.807 150 125 150H25C11.1929 150 0 138.807 0 125V25ZM84.7803 118.75H59.0527H24.009C19.9102 118.75 17.5526 114.089 19.9812 110.787L50.3669 69.4761C52.365 66.7595 56.4243 66.7595 58.4225 69.4761L69.8616 85.0284L88.0645 53.5C89.989 50.1667 94.8003 50.1667 96.7248 53.5L130.067 111.25C131.991 114.583 129.586 118.75 125.737 118.75H84.7803ZM32.3945 46C36.5367 46 39.8945 42.6421 39.8945 38.5C39.8945 34.3579 36.5367 31 32.3945 31C28.2524 31 24.8945 34.3579 24.8945 38.5C24.8945 42.6421 28.2524 46 32.3945 46Z" fill="#BBBBBB"/>
</svg>
