<svg width="108" height="75" viewBox="0 0 108 75" fill="none" xmlns="http://www.w3.org/2000/svg">
<path d="M7.46401 1.29797C5.37182 3.49887 0 16.3093 0 19.0745C0 21.9526 1.47018 24.3792 3.78855 25.2822C4.69328 25.6208 12.0442 27.4266 20.2433 29.3454C33.0226 32.2799 35.454 32.6749 37.2635 32.167C39.9211 31.4898 40.4866 30.8691 47.6113 20.8804C50.8344 16.3657 53.7182 12.6975 54.001 12.6975C54.2837 12.6975 57.1675 16.3657 60.3906 20.8804C67.5153 30.8691 68.0808 31.4898 70.7384 32.167C72.5479 32.6749 74.9793 32.2799 87.7586 29.3454C95.9577 27.4266 103.309 25.6208 104.213 25.2822C105.062 24.9436 106.249 23.9842 106.871 23.1377C108.794 20.4289 108.341 17.4944 104.892 9.59368C101.33 1.63657 100.086 0 97.5976 0C96.6363 0 86.4581 1.0158 74.9228 2.31377L54.0575 4.62754L33.0791 2.31377C21.6004 1.0158 11.3656 0 10.4044 0C9.33001 0 8.1991 0.507901 7.46401 1.29797ZM29.5733 7.27991C39.808 8.46501 48.2899 9.59368 48.4595 9.76298C49.025 10.3273 37.0939 26.5801 35.9064 26.8623C34.4928 27.2009 6.38964 20.7111 5.54146 19.8646C5.0891 19.4131 5.7111 17.3251 7.91637 12.1332C9.55619 8.23928 10.9133 5.07901 10.9698 5.07901C11.0264 5.07901 19.3951 6.09481 29.5733 7.27991ZM100.142 12.1896C102.8 18.5666 103.026 19.4131 102.234 19.9774C100.877 20.9932 73.2264 27.2573 71.9824 26.8623C70.8515 26.4673 59.0335 10.2709 59.5424 9.76298C59.8251 9.53724 92.4519 5.41761 96.1839 5.13544C96.8059 5.07901 97.9934 7.16704 100.142 12.1896Z" fill="#F3F4F9"/>
<path d="M52.4742 25.4515C51.513 25.9594 51.4564 27.6524 51.4564 47.4041C51.4564 66.2528 51.3433 68.8488 50.6082 68.8488C49.8731 68.8488 26.6329 63.2054 17.9815 60.8916C14.0798 59.8758 14.1364 60.0451 14.1364 45.7111V32.7878L12.0442 32.2235C10.8567 31.8849 9.72583 31.6027 9.49964 31.6027C9.21692 31.6027 9.04728 38.0361 9.04728 45.8239C9.04728 58.9729 9.16037 60.2709 10.1782 61.9074C10.7436 62.9232 11.9311 64.1084 12.7227 64.6727C14.5887 65.8578 51.004 75 54.001 75C56.9979 75 93.4132 65.8578 95.2792 64.6727C96.0708 64.1084 97.2583 62.9232 97.8237 61.9074C98.8415 60.2709 98.9546 58.9729 98.9546 45.8239C98.9546 38.0361 98.785 31.6027 98.5588 31.6027C98.2761 31.6027 97.1452 31.8849 96.0143 32.2235L93.8655 32.7878V45.7111C93.8655 60.0451 93.9221 59.8758 90.0204 60.8916C81.369 63.2054 58.1288 68.8488 57.3937 68.8488C56.6586 68.8488 56.5455 66.2528 56.5455 47.4041C56.5455 26.8059 56.489 25.9594 55.4711 25.395C54.1141 24.7178 53.7182 24.7178 52.4742 25.4515Z" fill="#F3F4F9"/>
</svg>
