<svg width="60" height="75" viewBox="0 0 60 75" fill="none" xmlns="http://www.w3.org/2000/svg">
<path d="M43.75 9.375H50C55.5156 9.375 60 13.5791 60 18.75V65.625C60 70.7959 55.5156 75 50 75H10C4.48438 75 0 70.7959 0 65.625V18.75C0 13.5791 4.48438 9.375 10 9.375H16.25H17.75C18.9062 4.02832 23.9531 0 30 0C36.0469 0 41.0937 4.02832 42.25 9.375H43.75ZM10 16.4062C8.625 16.4062 7.5 17.4609 7.5 18.75V65.625C7.5 66.9141 8.625 67.9688 10 67.9688H50C51.375 67.9688 52.5 66.9141 52.5 65.625V18.75C52.5 17.4609 51.375 16.4062 50 16.4062H47.5V19.9219C47.5 21.8701 45.8281 23.4375 43.75 23.4375H30H16.25C14.1719 23.4375 12.5 21.8701 12.5 19.9219V16.4062H10ZM30 15.2344C30.9946 15.2344 31.9484 14.864 32.6517 14.2047C33.3549 13.5454 33.75 12.6512 33.75 11.7188C33.75 10.7863 33.3549 9.89214 32.6517 9.23283C31.9484 8.57352 30.9946 8.20312 30 8.20312C29.0054 8.20312 28.0516 8.57352 27.3483 9.23283C26.6451 9.89214 26.25 10.7863 26.25 11.7188C26.25 12.6512 26.6451 13.5454 27.3483 14.2047C28.0516 14.864 29.0054 15.2344 30 15.2344Z" fill="#F3F4F9"/>
</svg>
