<svg width="75" height="75" viewBox="0 0 75 75" fill="none" xmlns="http://www.w3.org/2000/svg">
<path d="M46.4874 0.273657C41.3717 1.27782 36.9268 3.70454 33.3207 7.47015C29.407 11.5147 27.1986 16.5634 26.6115 22.6441C26.2202 26.9397 27.6459 32.7694 30.1618 36.8977C30.9166 38.1529 31.5316 39.2965 31.5316 39.4081C31.5316 39.5196 24.487 46.6603 15.8489 55.2794C1.25656 69.8397 0.166321 70.9834 0.0265476 72.0433C-0.169136 73.5774 0.725417 74.6095 2.43066 74.8326L3.66067 75L19.5949 59.045L35.5012 43.1179L36.815 44.0663C38.9116 45.6004 42.5458 47.2182 45.3971 47.8876C47.6335 48.3897 48.6119 48.4734 51.8826 48.3618C55.2652 48.2503 56.02 48.1108 58.4241 47.3019C66.2514 44.6799 72.1499 38.4039 74.3303 30.3985C75.169 27.386 75.2249 21.3053 74.4701 18.4322C72.066 9.39479 65.5805 2.95142 56.5511 0.580484C54.2029 -0.0331704 48.9194 -0.200531 46.4874 0.273657ZM54.8179 5.62918C58.6477 6.46599 62.785 8.9485 65.3289 11.9052C68.7673 15.9218 70.4726 22.17 69.578 27.386C68.2921 34.7499 62.5614 40.9143 55.2931 42.7274C48.4722 44.4568 40.533 41.7511 36.1441 36.2003C33.3207 32.6579 31.9509 28.7249 31.9789 24.1504C32.0068 18.5159 33.9357 14.1367 38.073 10.2874C42.6017 6.04758 48.8356 4.3182 54.8179 5.62918Z" fill="#F3F4F9"/>
</svg>
