<svg width="135" height="75" viewBox="0 0 135 75" fill="none" xmlns="http://www.w3.org/2000/svg">
<path d="M2.43013 14.2606C-0.810043 11.0395 -0.810042 5.81699 2.43013 2.59587C5.6703 -0.625254 10.9237 -0.625254 14.1638 2.59587L72.8323 60.9194C76.0725 64.1406 76.0725 69.363 72.8323 72.5842C69.5921 75.8053 64.3388 75.8053 61.0986 72.5842L2.43013 14.2606Z" fill="#F3F4F9"/>
<path d="M132.57 14.0806C135.81 10.8594 135.81 5.63696 132.57 2.41584C129.33 -0.805281 124.076 -0.80528 120.836 2.41584L62.1677 60.7394C58.9275 63.9605 58.9275 69.183 62.1677 72.4041C65.4079 75.6253 70.6612 75.6253 73.9014 72.4041L132.57 14.0806Z" fill="#F3F4F9"/>
</svg>
