<svg width="75" height="75" viewBox="0 0 75 75" fill="none" xmlns="http://www.w3.org/2000/svg">
<path d="M55.0328 2.88841C54.8131 1.71662 54.0222 0.735254 52.9236 0.281188C51.8251 -0.172879 50.5654 -0.0410531 49.584 0.632723L37.5 8.95239L25.416 0.618076C24.4346 -0.0557004 23.1749 -0.187526 22.0764 0.26654C20.9778 0.720607 20.1869 1.70198 19.9672 2.87376L17.316 17.3014L2.88841 19.9672C1.71662 20.1869 0.735254 20.9778 0.281188 22.0764C-0.172879 23.1749 -0.0410531 24.4346 0.632723 25.416L8.95239 37.5L0.618076 49.584C-0.0557004 50.5654 -0.187526 51.8251 0.26654 52.9236C0.720607 54.0222 1.70198 54.8278 2.87376 55.0328L17.3014 57.684L19.9525 72.1116C20.1722 73.2834 20.9632 74.2647 22.0617 74.7188C23.1603 75.1729 24.42 75.0411 25.4013 74.3673L37.5 66.0476L49.584 74.3819C50.5654 75.0557 51.8251 75.1875 52.9236 74.7335C54.0222 74.2794 54.8131 73.298 55.0328 72.1262L57.684 57.6986L72.1116 55.0475C73.2834 54.8278 74.2647 54.0368 74.7188 52.9383C75.1729 51.8397 75.0411 50.58 74.3673 49.5987L66.0476 37.5L74.3819 25.416C75.0557 24.4346 75.1875 23.1749 74.7335 22.0764C74.2794 20.9778 73.298 20.1869 72.1262 19.9672L57.6986 17.316L55.0328 2.88841ZM39.492 16.1149L49.1007 9.49435L51.2099 20.9632C51.4735 22.3986 52.6014 23.5265 54.0368 23.7901L65.5057 25.8993L58.8851 35.508C58.0502 36.709 58.0502 38.291 58.8851 39.492L65.5057 49.1007L54.0368 51.2099C52.6014 51.4735 51.4735 52.6014 51.2099 54.0368L49.1007 65.5057L39.492 58.8851C38.291 58.0502 36.709 58.0502 35.508 58.8851L25.8993 65.5057L23.7901 54.0368C23.5265 52.6014 22.3986 51.4735 20.9632 51.2099L9.49435 49.1007L16.1149 39.492C16.9498 38.291 16.9498 36.709 16.1149 35.508L9.49435 25.8993L20.9632 23.7901C22.3986 23.5265 23.5265 22.3986 23.7901 20.9632L25.8993 9.49435L35.508 16.1149C36.709 16.9498 38.291 16.9498 39.492 16.1149ZM37.5 53.905C41.8509 53.905 46.0235 52.1766 49.1001 49.1001C52.1766 46.0235 53.905 41.8509 53.905 37.5C53.905 33.1491 52.1766 28.9765 49.1001 25.8999C46.0235 22.8234 41.8509 21.095 37.5 21.095C33.1491 21.095 28.9765 22.8234 25.8999 25.8999C22.8234 28.9765 21.095 33.1491 21.095 37.5C21.095 41.8509 22.8234 46.0235 25.8999 49.1001C28.9765 52.1766 33.1491 53.905 37.5 53.905ZM28.1257 37.5C28.1257 35.0138 29.1134 32.6294 30.8714 30.8714C32.6294 29.1134 35.0138 28.1257 37.5 28.1257C39.9862 28.1257 42.3706 29.1134 44.1286 30.8714C45.8866 32.6294 46.8743 35.0138 46.8743 37.5C46.8743 39.9862 45.8866 42.3706 44.1286 44.1286C42.3706 45.8866 39.9862 46.8743 37.5 46.8743C35.0138 46.8743 32.6294 45.8866 30.8714 44.1286C29.1134 42.3706 28.1257 39.9862 28.1257 37.5Z" fill="#131313"/>
</svg>
