<svg width="75" height="75" viewBox="0 0 75 75" fill="none" xmlns="http://www.w3.org/2000/svg">
<path d="M4.41826 1.21368C0.110456 3.42037 0 4.08238 0 21.4049C0 33.7072 0.165685 36.7966 0.828424 38.5068C1.98822 41.2652 33.0817 72.4347 36.2297 73.9242C39.1016 75.3586 43.1885 75.3586 46.1156 73.9242C47.5515 73.2071 53.0744 68.1317 61.1377 59.9669C72.2386 48.7679 74.0059 46.8371 74.5582 44.6855C75.4418 41.3203 75 37.9 73.2327 35.4174C72.4595 34.2589 64.5066 26.0942 55.6701 17.3225C42.1944 3.97205 39.1016 1.21368 37.2239 0.662008C35.7327 0.220669 30.0994 0 20.8763 0C7.40059 0 6.73785 0.0551673 4.41826 1.21368ZM51.2518 24.4391C60.0884 33.3211 67.3785 40.9342 67.3785 41.3755C67.3785 42.5892 42.4153 67.3042 41.1451 67.3042C40.4823 67.3042 33.9654 61.1806 23.9138 51.1953L7.73196 35.0313V8.2751H35.07L51.2518 24.4391Z" fill="#F3F4F9"/>
<path d="M16.7894 14.2884C13.6966 15.6124 12.813 20.3016 15.1325 23.0048C16.2371 24.2737 16.8999 24.5495 19.0538 24.5495C22.3674 24.5495 24.3004 22.6186 24.3004 19.3086C24.3004 15.4469 20.324 12.7988 16.7894 14.2884Z" fill="#F3F4F9"/>
</svg>
