<svg width="75" height="75" viewBox="0 0 75 75" fill="none" xmlns="http://www.w3.org/2000/svg">
<path d="M39.434 0.358024C31.9811 1.16309 24.3396 3.72035 21.5566 6.37232C19.6227 8.21923 18.8679 9.87672 18.8679 12.434V14.6124L20.3302 14.3282C21.1321 14.1862 22.4528 14.0441 23.1604 14.0441C24.5283 14.0441 24.5283 14.0441 23.8208 12.9075C22.8302 11.4395 23.3962 10.2556 25.6604 8.88223C29.8585 6.27761 38.2547 4.57277 46.9339 4.57277C60.3773 4.57277 72.3584 8.6928 70.283 12.6234C69.1981 14.7071 62.4528 17.4064 56.8396 18.0694C52.0283 18.5903 52.0283 18.6377 55.0471 20.7687L57.783 22.7104L61.0849 21.9053C62.8773 21.4791 65.6603 20.5793 67.2169 19.9637C68.7735 19.3007 70.1886 18.7798 70.4245 18.7798C70.6132 18.7798 70.7547 20.8161 70.7547 23.326C70.7547 27.7775 70.7075 27.9196 69.3396 29.1982C68.5377 29.9559 66.4151 31.1399 64.6226 31.8502L61.3207 33.1288V35.4493C61.3207 38.1013 61.132 38.1013 66.2735 35.9702C71.1792 33.9339 70.7547 33.6024 70.7547 39.4746C70.7547 44.5418 70.7075 44.6839 69.3867 45.9625C68.6792 46.6729 66.6037 47.8568 64.8113 48.5671L61.5566 49.8931L61.4151 52.0715C61.3207 53.7764 61.4151 54.2973 61.9811 54.2973C63.4434 54.2973 69.1981 51.8347 71.2735 50.3193C75.0471 47.5253 74.9999 47.8094 74.9999 27.7775C74.9999 8.74016 75.0471 8.92958 72.3113 6.37232C67.3584 1.68401 52.6415 -1.01532 39.434 0.358024Z" fill="#F3F4F9"/>
<path d="M20.5661 19.3007C13.1132 20.1058 5.47174 22.663 2.68873 25.315C-0.0471175 27.8723 5.2411e-05 27.6828 5.2411e-05 46.8149C5.2411e-05 63.1056 0.0472222 64.621 0.849108 66.1364C4.90571 73.8082 26.9811 77.4547 43.2547 73.1926C48.0189 71.914 53.0188 69.262 54.6226 67.1783L55.8962 65.5208L56.0377 47.7147C56.1321 37.9119 56.0377 29.435 55.8962 28.8194C55.4245 26.9725 52.5 24.1784 49.5755 22.8524C42.1698 19.5375 31.1793 18.1641 20.5661 19.3007ZM40.566 24.6046C46.7924 26.0253 51.8868 28.7247 51.8868 30.6189C51.8868 30.9504 51.2264 31.8029 50.4717 32.5132C45 37.6277 24.2453 39.3799 12.2642 35.7335C8.63212 34.5969 5.3774 32.8447 4.71703 31.5661C3.25477 28.8667 9.10381 25.6465 18.1604 24.1784C22.9245 23.3734 36.2736 23.6575 40.566 24.6046ZM9.05664 39.3326C14.3868 41.3689 19.717 42.174 28.0661 42.174C36.4151 42.174 41.7453 41.3689 47.0755 39.3326C48.8207 38.6696 50.6132 38.0066 51.0849 37.8645C51.7924 37.6277 51.8868 38.0539 51.8868 42.2213C51.8868 46.7202 51.8396 46.8623 50.4717 48.1409C44.2453 53.9658 21.8396 55.3865 10.1415 50.6982C8.53778 50.0352 6.55665 48.8513 5.70759 48.0462C4.2925 46.6255 4.24533 46.5308 4.24533 42.1266C4.24533 38.0539 4.33967 37.6277 5.09439 37.8645C5.51891 38.0066 7.31136 38.6696 9.05664 39.3326ZM8.72646 54.9603C13.9623 57.1387 18.7736 57.849 28.0661 57.849C37.3585 57.849 42.1698 57.1387 47.4057 54.9603C52.3113 52.8766 51.8868 52.5451 51.8868 58.4173C51.8868 63.4371 51.8396 63.6265 50.6132 64.8578C48.8679 66.5153 44.9528 68.1728 40.3302 69.262C34.9528 70.5406 21.1793 70.5406 15.8019 69.262C11.1793 68.1728 7.26419 66.5153 5.56608 64.8578C4.2925 63.6265 4.24533 63.4371 4.24533 58.4173C4.24533 52.5451 3.8208 52.8766 8.72646 54.9603Z" fill="#F3F4F9"/>
</svg>
