<svg width="75" height="75" viewBox="0 0 75 75" fill="none" xmlns="http://www.w3.org/2000/svg">
<path d="M31.9602 0.308482C22.1117 1.8621 13.3523 7.18207 7.33902 15.2797L4.49811 19.1402L4.35606 12.2666C4.26136 5.62845 4.21402 5.44014 3.125 4.96934C2.32008 4.59271 1.75189 4.59271 0.994318 4.96934C0.0473485 5.48722 0 5.76969 0 16.3155C0 26.4846 0.0473484 27.1437 0.899621 27.6145C2.13068 28.2266 21.0701 28.2266 22.3011 27.6145C22.8693 27.285 23.2008 26.6259 23.2008 25.7314C23.2008 24.8368 22.8693 24.1777 22.3011 23.8482C21.7803 23.6128 18.3239 23.3774 14.4413 23.3774H7.52841L8.85417 20.8822C9.56439 19.564 11.9792 16.598 14.2045 14.3852C17.5663 11.0426 19.0341 9.95976 22.7746 8.12366C32.5758 3.32156 42.661 3.27448 52.4621 8.12366C60.5587 12.0783 66.5246 18.999 69.4602 27.8499C70.5492 31.0984 70.6913 32.4166 70.6913 37.5012C70.6913 42.5858 70.5492 43.904 69.4602 47.1525C67.6136 52.7078 64.6307 57.4629 60.464 61.3705C50.1894 71.0217 35.0852 73.1874 22.2538 66.8317C19.6023 65.5134 17.5663 63.9598 14.2519 60.7114C11.7898 58.3103 9.51705 56.333 9.18561 56.333C8.85417 56.333 8.23864 56.6625 7.85985 57.0862C6.43939 58.4986 6.96023 59.911 10.322 63.3007C28.4564 81.8971 58.6174 77.7541 70.9754 54.9206C74.053 49.224 75 44.9868 75 37.5012C75 32.3225 74.8106 30.4393 73.9583 27.3791C71.1174 17.5866 64.1098 9.01817 54.9242 4.12191C48.8636 0.920514 38.8731 -0.727265 31.9602 0.308482Z" fill="#F3F4F9"/>
<path d="M36.3636 19.1873C35.6061 19.611 35.5114 20.5997 35.5114 28.9328V38.2074L42.2822 44.9397C45.9754 48.6119 49.2424 51.625 49.5265 51.625C50.2841 51.625 51.6099 50.0243 51.6099 49.1769C51.6099 48.7532 48.9583 45.6459 45.6913 42.3033L39.7727 36.183V27.897C39.7727 20.2231 39.7254 19.611 38.8731 19.1402C37.7367 18.5753 37.4053 18.5753 36.3636 19.1873Z" fill="#F3F4F9"/>
</svg>
