<svg width="372" height="34" viewBox="0 0 372 34" fill="none" xmlns="http://www.w3.org/2000/svg">
<path d="M4 4C105.671 4 207.341 4 309.012 4C328.637 4 348.261 4 367.886 4C369.278 4 357.554 5.32519 354.792 5.7094C300.371 13.2793 243.538 11.1738 188.251 13.8291C155.012 15.4254 121.733 17.2433 88.5895 19.3846C74.6883 20.2827 58.5061 20.7444 45.0702 23.2842C32.7276 25.6173 71.0578 24.1923 84.068 24.1923C107.422 24.1923 130.8 24.0232 154.151 24.2457C196.545 24.6498 240.213 23.4123 282.448 25.3675C294.659 25.9328 309.763 26.4352 321.069 29" stroke="#BAF811" stroke-width="8" stroke-linecap="square"/>
</svg>
