<svg width="100" height="50" viewBox="0 0 100 50" fill="none" xmlns="http://www.w3.org/2000/svg">
<path d="M48.2161 36.9883C48.0675 37.0071 47.8727 37.0399 47.632 37.0866C47.3907 37.1335 47.1033 37.1946 46.7697 37.2691C46.7509 37.4565 46.7371 37.6531 46.7279 37.8589C46.7184 38.0651 46.714 38.2897 46.714 38.5328C46.714 38.7574 46.7184 39.0382 46.7279 39.3753C46.7371 39.7122 46.751 40.115 46.7697 40.5828C46.8252 41.5192 46.8531 42.2019 46.8531 42.6329C46.8531 44.2616 46.6027 45.5345 46.102 46.452C45.9906 46.6579 45.8238 46.761 45.6013 46.761C45.3788 46.761 45.1465 46.6579 44.9058 46.452C44.6646 46.2458 44.5068 46.0212 44.4328 45.7781C44.2472 45.235 44.1546 44.5609 44.1546 43.7562C44.1546 43.625 44.1684 43.3349 44.1964 42.8856C44.2241 42.4363 44.2749 41.8184 44.3494 41.0322C44.3676 40.7891 44.3814 40.5547 44.3909 40.3301C44.4001 40.1055 44.4051 39.8905 44.4051 39.6842C44.4051 39.0853 44.3676 38.6268 44.2936 38.3081C44.2562 38.0462 44.0712 37.8496 43.7373 37.7184C43.3104 37.5314 43.0418 37.3814 42.9304 37.2691C42.9119 37.2505 42.9027 37.1755 42.9027 37.0443C42.9027 36.951 42.9119 36.8293 42.9304 36.6793C42.9489 36.5298 42.9953 36.352 43.0695 36.1458C43.2735 36.1458 43.4452 36.0615 43.5843 35.8931C43.7234 35.7245 43.8669 35.6402 44.0155 35.6402C44.1269 35.6402 44.2008 35.65 44.238 35.6683C44.3306 35.2379 44.4001 34.7654 44.4466 34.2502C44.4928 33.7355 44.5161 33.1786 44.5161 32.5792C44.5161 32.3923 44.4973 31.9895 44.4604 31.3717C44.4232 30.7538 44.377 29.9113 44.3213 28.8443C44.3213 28.7508 44.3167 28.6524 44.3075 28.5493C44.298 28.4467 44.2936 28.3387 44.2936 28.2264C43.941 28.1141 43.5932 27.8942 43.2504 27.5664C42.907 27.2391 42.7359 26.8973 42.7359 26.5414C42.7359 26.0737 43.0695 25.7929 43.7373 25.6989C44.2008 25.6244 44.8501 25.4744 45.6847 25.2496C46.5193 25.025 47.5486 24.7068 48.7726 24.2948C50.9052 23.6025 52.6301 23.2373 53.9472 23.1995C54.2811 23.1995 54.5731 23.2887 54.8233 23.4664C55.0738 23.6445 55.199 23.8833 55.199 24.1824C55.199 24.5572 55.083 24.8985 54.8513 25.2074C54.619 25.5164 54.318 25.7086 53.9472 25.7832H53.8358C53.669 25.7832 53.4785 25.7366 53.2656 25.6427C53.052 25.5492 52.8713 25.5023 52.723 25.5023C52.2962 25.54 51.8371 25.6334 51.3459 25.7832C50.8544 25.9332 50.3119 26.1298 49.7186 26.3728C48.9397 26.6915 48.3137 26.9442 47.8408 27.1311C47.3678 27.3184 47.0105 27.4496 46.7698 27.5242C46.7323 28.1236 46.7046 28.7225 46.6861 29.3215C46.6676 29.921 46.6584 30.5199 46.6584 31.1189C46.6584 31.7178 46.6676 32.3264 46.6861 32.9443C46.7046 33.562 46.7323 34.1707 46.7698 34.7697C46.8621 34.7885 46.9459 34.8026 47.02 34.8117C47.0939 34.8213 47.1683 34.8257 47.2425 34.8257C47.5946 34.8257 48.2624 34.6853 49.2456 34.4044C49.6164 34.2921 49.9592 34.2036 50.2749 34.1377C50.5901 34.0723 50.8591 34.0394 51.0818 34.0394C51.1188 34.0394 51.1603 34.0442 51.2068 34.0533C51.253 34.0631 51.2948 34.0675 51.3321 34.0675C51.7029 34.1051 51.8884 34.2639 51.8884 34.5448C51.7773 35.2749 51.3133 35.8366 50.4975 36.2297L48.2162 36.988L48.2161 36.9883Z" fill="white"/>
<path d="M53.1019 43.6927C53.1019 42.9042 53.322 41.9639 53.763 40.8723C54.3639 39.3966 54.6942 38.3246 54.7544 37.6575C54.7544 37.4959 54.6238 37.3139 54.3639 37.1115C54.0831 36.8894 53.9431 36.7173 53.9431 36.5961C53.9431 36.4748 53.983 36.3738 54.0634 36.2928C54.1432 36.1715 54.3536 36.0804 54.6942 36.0198C55.0346 35.9392 55.2247 35.8279 55.2652 35.6862C55.6257 34.6958 56.1964 32.8154 56.9777 30.0452C57.3181 28.8321 57.6335 27.7758 57.924 26.8758C58.2142 25.9765 58.4896 25.203 58.7502 24.5558C58.8704 24.273 59.1207 24.1312 59.5012 24.1312C59.7814 24.1312 60.0317 24.2222 60.2523 24.4042C60.813 24.8895 61.1733 25.6173 61.3341 26.5878C61.394 26.9926 61.4541 27.4066 61.5142 27.8313C61.5744 28.2559 61.624 28.6705 61.6644 29.0746C62.165 31.4606 62.6755 33.6291 63.1965 35.58C63.7173 37.5315 64.2481 39.2952 64.7891 40.8723C64.9091 41.2163 64.9692 41.4991 64.9692 41.7214C64.9692 42.1261 64.7987 42.4796 64.4585 42.7829C64.1377 43.0657 63.9075 43.2075 63.7675 43.2075C62.7857 43.0255 62.1649 42.227 61.9047 40.8116C61.6441 39.2753 61.3138 37.9912 60.9133 36.9599L58.8703 37.1419C58.089 37.2433 57.4779 37.4859 57.0375 37.8697C56.9372 38.1934 56.8122 38.6279 56.6619 39.1739C56.5117 39.7197 56.3465 40.3974 56.1664 41.2058C55.8254 42.7019 55.4951 43.824 55.175 44.5722C55.0744 44.8149 54.8745 44.9362 54.5741 44.9362H54.3787C54.3083 44.9362 54.2332 44.9158 54.1534 44.8754C53.4923 44.6732 53.1417 44.3699 53.1018 43.9656V43.6926L53.1019 43.6927ZM60.4026 35.0796C60.3624 34.6753 60.3125 34.2658 60.2524 33.8512C60.1922 33.4372 60.1121 33.0073 60.0121 32.5623C59.9117 32.1581 59.8166 31.7539 59.7266 31.3492C59.6365 30.945 59.5412 30.5408 59.4411 30.1361C58.8403 31.8345 58.3192 33.513 57.8791 35.1705C58.1992 35.1099 59.0403 35.0796 60.4026 35.0796Z" fill="white"/>
<path d="M67.0721 40.2657C67.112 39.6794 67.1669 39.0374 67.2373 38.3399C67.3074 37.6422 67.3427 36.8894 67.3427 36.0804V32.7747C67.3427 31.3796 67.3576 30.1162 67.3875 28.9837C67.4178 27.8516 67.5125 26.8 67.673 25.8296C67.8731 24.6771 68.9047 24.1009 70.7675 24.1009H71.1882C72.2697 24.1416 73.2109 24.6876 74.0122 25.7385C74.7531 26.6688 75.1238 27.7204 75.1238 28.8927C75.1238 29.8433 74.7732 30.7934 74.0723 31.7435C73.4512 32.5927 72.7203 33.2802 71.8791 33.8058C71.699 33.9072 71.5584 34.0029 71.4584 34.0939C71.3581 34.1849 71.3082 34.2911 71.3082 34.4123C71.3082 34.5541 71.3534 34.6701 71.4435 34.7611C71.5336 34.8522 71.6885 34.9885 71.9091 35.1705L72.8705 35.9894L76.2056 39.1435C76.8862 39.7908 77.4771 40.3922 77.978 40.9481C78.4785 41.5043 78.869 42.035 79.1498 42.5403C79.2099 42.6412 79.2399 42.7323 79.2399 42.8133C79.2399 43.2781 78.7593 43.632 77.7978 43.8748C76.736 43.0658 75.4139 41.7925 73.832 40.0534C72.9306 39.0829 72.1593 38.2693 71.5185 37.6121C70.8774 36.9552 70.3364 36.4346 69.8963 36.0501C69.8558 36.3131 69.8106 36.7884 69.761 37.4756C69.7109 38.1631 69.6454 39.0631 69.5656 40.1747C69.4653 41.8533 69.2848 43.1873 69.0249 44.1781C68.9844 44.1781 68.8846 44.2235 68.7244 44.3145C68.5639 44.4056 68.4037 44.451 68.2438 44.451C68.2236 44.451 68.2033 44.4458 68.1836 44.4359C68.1634 44.4254 68.1431 44.4207 68.1235 44.4207C67.2418 44.198 66.8014 43.5815 66.8014 42.5707C66.8014 42.4087 66.8114 42.2219 66.8317 42.0097C66.8513 41.7974 66.8813 41.5802 66.9218 41.3576L67.072 40.2659L67.0721 40.2657ZM72.8705 27.9526C72.8104 27.528 72.6349 27.1442 72.3448 26.8C72.0543 26.4565 71.5887 26.2846 70.9479 26.2846C70.4669 26.2846 70.1665 26.4362 70.0465 26.7395C70.006 27.0228 69.9714 27.3109 69.9412 27.6039C69.9112 27.8971 69.8963 28.1853 69.8963 28.4681C69.8963 28.7311 69.9262 29.4083 69.9864 30.5001C69.9864 30.7229 69.9911 30.9247 70.0013 31.1067C70.0113 31.2887 70.0163 31.4606 70.0163 31.6223C70.0163 31.7839 70.0113 31.9459 70.0013 32.1074C69.991 32.2696 69.9864 32.4107 69.9864 32.5321C71.6485 31.2991 72.5897 30.0958 72.8104 28.923C72.8303 28.7819 72.8453 28.6501 72.8555 28.5288C72.8655 28.4076 72.8705 28.2966 72.8705 28.1952V27.9526L72.8705 27.9526Z" fill="white"/>
<path d="M88.4479 33.0934C88.3587 32.5972 88.194 32.0918 87.954 31.5771C87.7117 31.0601 87.3916 30.5801 86.9915 30.137C86.5914 29.6916 86.0907 29.3685 85.4895 29.1654C85.1694 29.0638 84.8927 28.9692 84.6641 28.8769C84.4332 28.7869 84.2275 28.7015 84.0469 28.6185C83.7657 28.4985 83.5462 28.3877 83.3861 28.2861C83.2262 28.1845 83.0912 28.1038 82.9815 28.0438C82.8694 27.9838 82.7712 27.933 82.6797 27.8915C82.5906 27.8522 82.474 27.8315 82.3344 27.8315C81.7537 27.8315 81.1936 28.1037 80.6518 28.6507C80.1122 29.1954 79.6344 29.8624 79.2252 30.6517C78.8136 31.4409 78.4845 32.2741 78.2329 33.1534C77.9838 34.0327 77.8579 34.8058 77.8579 35.4728C77.8579 36.3221 78.0225 37.0652 78.354 37.7022C78.6856 38.3392 79.0857 38.8815 79.5567 39.3247C80.0254 39.7701 80.5259 40.1047 81.0587 40.3263C81.5892 40.5501 82.0647 40.6609 82.4854 40.6609C83.0866 40.6609 83.6719 40.5387 84.2435 40.2963C84.8127 40.054 85.3432 39.7147 85.8347 39.2808C86.3262 38.8446 86.7813 38.33 87.2019 37.7323C87.6226 37.1368 87.9838 36.486 88.2833 35.7775C88.4847 35.3737 88.5829 34.8774 88.5829 34.2912C88.5829 33.9889 88.5395 33.5896 88.4481 33.0935L88.4479 33.0934ZM85.3157 34.2727L85.0803 34.3858C84.136 34.8428 83.4844 35.7151 83.3907 36.7675L83.313 37.8522C83.3015 37.9884 83.1141 38.0138 83.0661 37.8868L82.6683 36.8575C82.3094 35.9228 81.4909 35.1774 80.5216 34.9604L80.2563 34.9028C80.1329 34.8751 80.1191 34.702 80.2358 34.6559H80.2381C81.2691 34.2497 81.9711 33.2504 82.0922 32.1403L82.234 31.074C82.2477 30.9356 82.4375 30.9148 82.4809 31.0464L82.8146 32.0503C83.1804 33.1534 84.1292 33.8943 85.2747 34.0281C85.3478 34.035 85.389 34.0973 85.389 34.1573C85.389 34.2035 85.3661 34.2497 85.3158 34.2727H85.3157Z" fill="white"/>
<path d="M91.0169 42.2672V41.6001C91.0169 40.731 91.0419 39.735 91.092 38.6127C91.1419 37.4906 91.2273 36.2319 91.3475 34.8368C91.648 31.4809 91.7982 29.0444 91.7982 27.5279C91.7982 27.0024 91.7876 26.502 91.768 26.0266C91.7478 25.5519 91.7178 25.0817 91.6779 24.6164C91.9378 24.3538 92.2685 24.222 92.6693 24.222C93.4304 24.222 93.871 24.5054 93.9913 25.0713C93.9913 25.2736 93.996 25.4859 94.0062 25.7082C94.0162 25.931 94.0212 26.1735 94.0212 26.4361C94.0212 27.2246 94.0009 28.1192 93.961 29.1201C93.9208 30.1208 93.8607 31.2582 93.7809 32.532C93.6805 33.927 93.6156 35.1704 93.5854 36.2623C93.5555 37.3542 93.5405 38.3047 93.5405 39.1131V39.9624C94.061 39.7604 94.7919 39.3359 95.7337 38.6885C96.2342 38.345 96.66 38.0568 97.0105 37.8242C97.3609 37.592 97.6461 37.4252 97.8667 37.3238C97.9667 37.3238 98.1418 37.304 98.3924 37.2631C98.6427 37.2228 98.8281 37.2025 98.9484 37.2025C99.349 37.2025 99.6394 37.3645 99.8196 37.6878C99.9398 37.9304 100 38.1326 100 38.2943C100 38.4966 99.9398 38.6687 99.8196 38.8098L96.3046 41.3271C95.6234 41.8123 94.9872 42.237 94.3967 42.6008C93.8058 42.9648 93.2498 43.2576 92.7293 43.4803C92.609 43.5411 92.489 43.5714 92.3687 43.5714C92.088 43.5714 91.828 43.3895 91.5877 43.0255L91.0168 42.2673L91.0169 42.2672Z" fill="white"/>
<path d="M42.7383 13.8778C42.7383 13.4844 42.7524 13.1056 42.7816 12.7411C42.8104 12.3771 42.8825 12.0198 42.9981 11.67C43.0123 11.641 43.0523 11.6082 43.1172 11.5718C43.1821 11.5355 43.258 11.5027 43.3445 11.4733C43.3879 11.4591 43.4346 11.4443 43.4854 11.4296C43.5357 11.4153 43.597 11.4005 43.6693 11.3859C43.9001 11.4152 44.1312 11.5027 44.3624 11.6482C44.5931 11.7941 44.7087 12.0055 44.7087 12.2822C44.7087 12.5154 44.6871 12.7231 44.6438 12.905C44.6004 13.0875 44.5788 13.3023 44.5788 13.5499C44.5788 13.9728 44.5606 14.3007 44.5247 14.5336C44.4885 14.767 44.4705 14.9856 44.4705 15.1894C44.4705 15.889 44.4921 16.5338 44.5355 17.124C44.5788 17.7142 44.6148 18.1623 44.6438 18.4683C44.8745 18.4393 45.131 18.2388 45.4125 17.8672C45.6942 17.4955 45.9718 17.0475 46.2463 16.5229C46.5204 15.9983 46.7731 15.4445 47.0042 14.8615C47.235 14.2788 47.4227 13.7614 47.5672 13.3095C47.6247 13.1202 47.6501 12.9306 47.6431 12.7411C47.6355 12.552 47.6539 12.3804 47.6972 12.2275C47.7404 12.0744 47.8379 11.947 47.9895 11.8449C48.1412 11.7431 48.3972 11.6918 48.7582 11.6918C48.7723 11.6918 48.787 11.6956 48.8016 11.7027C48.8157 11.7104 48.8303 11.7137 48.8449 11.7137C48.9602 11.7137 49.0972 11.7721 49.2562 11.8885C49.4151 12.0054 49.5303 12.1219 49.6028 12.2383C49.6028 13.0984 49.5774 13.7722 49.5269 14.2603C49.4762 14.7488 49.4512 15.1675 49.4512 15.5173C49.4512 16.2168 49.498 16.818 49.5921 17.3207C49.6857 17.8234 49.841 18.2279 50.0575 18.5339C50.1442 18.636 50.2233 18.7345 50.2959 18.829C50.3678 18.924 50.4329 19.0367 50.4907 19.1679C50.4617 19.3137 50.415 19.4267 50.35 19.5067C50.2849 19.587 50.2092 19.6454 50.1225 19.6815C50.036 19.7181 49.9419 19.7437 49.841 19.7581C49.74 19.7728 49.6386 19.7946 49.538 19.8237C49.2201 19.7509 48.9641 19.6198 48.7691 19.4302C48.5743 19.2409 48.4153 19.0114 48.2928 18.7416C48.1699 18.4721 48.0796 18.1733 48.0221 17.8454C47.9642 17.5175 47.9138 17.1787 47.8705 16.829L47.7838 17.0038C47.6681 17.2518 47.5131 17.5798 47.3183 17.9875C47.1233 18.3957 46.896 18.7929 46.6361 19.1789C46.3762 19.5652 46.0765 19.9002 45.7374 20.1845C45.3982 20.4686 45.0336 20.6106 44.6438 20.6106C44.2249 20.6106 43.8893 20.5266 43.637 20.3593C43.3841 20.1916 43.1893 19.9187 43.0523 19.5396C42.9149 19.1607 42.8211 18.6728 42.7708 18.075C42.7201 17.4776 42.6949 16.7416 42.6949 15.8672C42.7237 15.6633 42.7383 15.4594 42.7383 15.2551V13.8778Z" fill="white"/>
<path d="M53.5005 16.8944C53.7025 16.6905 53.8648 16.4282 53.9877 16.1075C54.1101 15.7871 54.2292 15.4811 54.3449 15.1894L54.3882 15.0582C54.4749 14.8253 54.6048 14.5373 54.7779 14.1948C54.9511 13.8525 55.1533 13.5246 55.3843 13.2111C55.6152 12.8978 55.8679 12.6317 56.1421 12.4131C56.4162 12.1945 56.6979 12.0852 56.9867 12.0852C57.232 12.1583 57.416 12.2747 57.5389 12.435C57.6613 12.5955 57.7554 12.7738 57.8204 12.9705C57.8856 13.1672 57.943 13.3715 57.9938 13.5826C58.0441 13.794 58.1128 13.9945 58.1994 14.1837C58.387 14.6066 58.5276 15.0581 58.6217 15.539C58.7154 16.0199 58.7949 16.5083 58.8601 17.0036C58.925 17.4993 59.0007 17.9873 59.0874 18.4682C59.1739 18.9491 59.3039 19.3938 59.4771 19.8016C59.4479 20.0345 59.3219 20.2061 59.0981 20.3153C58.8742 20.4246 58.6758 20.4792 58.5026 20.4792C58.2427 20.4792 58.0403 20.3808 57.8963 20.1841C57.7519 19.9874 57.6397 19.7469 57.5606 19.4627C57.4811 19.1785 57.4232 18.8834 57.3872 18.5774C57.3511 18.2714 57.3042 18.0166 57.2466 17.8123C57.1741 17.5647 57.1166 17.2843 57.0734 16.9707C57.0301 16.6575 56.9793 16.3405 56.9218 16.0198C56.8639 15.6995 56.7951 15.4006 56.7161 15.1237C56.6365 14.847 56.5245 14.6209 56.3804 14.446C56.1347 14.8394 55.9366 15.2077 55.7849 15.5499C55.6333 15.8925 55.4958 16.2204 55.3734 16.5336C55.2505 16.8471 55.1315 17.1531 55.0162 17.4517C54.9003 17.7506 54.7563 18.0528 54.5832 18.3589C54.352 18.7818 54.1425 19.1097 53.9551 19.3426C53.7673 19.5759 53.5941 19.747 53.4353 19.8563C53.2762 19.9656 53.1249 20.0311 52.9806 20.053C52.8362 20.0749 52.6991 20.0858 52.5691 20.0858C52.4247 20.0858 52.2476 20.0127 52.0387 19.8672C51.8291 19.7217 51.7247 19.5469 51.7247 19.3426C51.7247 18.4244 51.7281 17.5719 51.7355 16.785C51.7427 15.9981 51.7463 15.1674 51.7463 14.2931C51.7463 14.0454 51.7389 13.7941 51.7247 13.539C51.7101 13.2841 51.7029 13.0327 51.7029 12.7847C51.7029 12.6099 51.7355 12.4387 51.8004 12.271C51.8654 12.1037 51.977 11.9835 52.1361 11.9104C52.2228 11.9104 52.3095 11.9069 52.396 11.8995C52.4827 11.8922 52.5617 11.8885 52.6343 11.8885C52.8217 11.8885 52.9699 11.9431 53.0782 12.0524C53.1865 12.1617 53.2656 12.2966 53.3163 12.4568C53.3668 12.6174 53.3992 12.7847 53.4138 12.9596C53.4279 13.1345 53.4354 13.2803 53.4354 13.3967C53.4354 13.5573 53.4534 13.7103 53.4896 13.8558C53.5255 14.0017 53.5437 14.1546 53.5437 14.3148C53.5437 14.8541 53.5363 15.3132 53.5221 15.6919C53.5075 16.071 53.5005 16.4352 53.5005 16.7848V16.8944Z" fill="white"/>
<path d="M63.1799 19.4738C63.1799 19.5906 63.1507 19.7071 63.0932 19.8236C63.0355 19.9404 62.9272 20.0784 62.7684 20.2389C62.5229 20.2389 62.2955 20.217 62.0864 20.1733C61.8768 20.1296 61.6967 20.0422 61.545 19.911C61.3934 19.7798 61.2744 19.5906 61.1877 19.3426C61.1012 19.095 61.0578 18.7599 61.0578 18.3371C61.0578 18.0894 61.0325 17.8418 60.9819 17.5939C60.9312 17.3463 60.9063 17.0986 60.9063 16.8507C60.9063 16.1075 60.8629 15.4008 60.7764 14.7303C60.6897 14.0602 60.6464 13.3532 60.6464 12.61C60.6464 12.3039 60.7688 12.071 61.0145 11.9104C61.1588 11.8667 61.296 11.8339 61.4261 11.812C61.5559 11.7902 61.7002 11.765 61.8592 11.7356C62.0611 11.794 62.2128 11.8776 62.3138 11.987C62.4147 12.0963 62.5088 12.2022 62.5953 12.3039C62.5807 12.4498 62.5699 12.5956 62.563 12.7411C62.5554 12.887 62.5519 13.0399 62.5519 13.2001C62.5519 13.7542 62.5807 14.3443 62.6386 14.9707C62.6961 15.5975 62.7611 16.1949 62.8336 16.7633C62.9056 17.3315 62.9743 17.849 63.0392 18.3152C63.1044 18.7818 63.1509 19.1388 63.1801 19.3864V19.4738H63.1799ZM61.2744 7.16692C61.3465 7.09426 61.4763 7.0576 61.6641 7.0576C61.8083 7.0576 61.9564 7.08321 62.1079 7.13414C62.2596 7.18537 62.4004 7.25818 62.5303 7.35272C62.6601 7.4477 62.7648 7.5533 62.8443 7.66972C62.9234 7.78651 62.9633 7.91018 62.9633 8.04123C62.9633 8.31835 62.8946 8.50407 62.7576 8.59869C62.6204 8.6936 62.4292 8.74073 62.1839 8.74073C62.0249 8.74073 61.8625 8.71541 61.6967 8.66418C61.5305 8.61325 61.3827 8.55149 61.2526 8.47839C61.1228 8.40573 61.0179 8.32918 60.9388 8.24891C60.8593 8.169 60.8196 8.09246 60.8196 8.01943C60.8196 7.84446 60.8375 7.69153 60.8737 7.56039C60.9097 7.42919 61.0433 7.29806 61.2744 7.16685L61.2744 7.16692Z" fill="white"/>
<path d="M66.2765 19.6051C66.1033 19.3427 65.9517 19.0367 65.8216 18.6869C65.6918 18.3371 65.5797 17.9765 65.486 17.6049C65.3919 17.2333 65.3162 16.8727 65.2587 16.5229C65.2008 16.1731 65.1646 15.8671 65.1504 15.6047C65.107 15.1239 64.9952 14.6358 64.8147 14.1402C64.634 13.6449 64.5441 13.1565 64.5441 12.6756C64.5441 12.4279 64.6524 12.2787 64.8689 12.2275C65.0854 12.1766 65.2874 12.151 65.4752 12.151C65.5327 12.151 65.6161 12.1619 65.7243 12.1837C65.8326 12.2056 65.9408 12.2421 66.0491 12.2931C66.1574 12.3443 66.258 12.4061 66.3521 12.4789C66.4458 12.552 66.5071 12.6394 66.5363 12.7411C66.5363 13.0328 66.5651 13.3679 66.6228 13.7467C66.6803 14.1258 66.7491 14.5009 66.8285 14.8725C66.9076 15.2441 66.9835 15.5939 67.0559 15.9218C67.128 16.2497 67.1783 16.5158 67.2075 16.7196C67.4528 16.4136 67.6802 15.9949 67.8897 15.4627C68.0987 14.9309 68.3152 14.4062 68.5394 13.8887C68.7629 13.3718 69.0082 12.9161 69.2756 12.5225C69.5426 12.1292 69.8637 11.9105 70.2393 11.8667C70.5425 11.8667 70.7806 11.8852 70.9538 11.9214C71.127 11.958 71.257 12.0127 71.3435 12.0853C71.4302 12.1584 71.4878 12.2531 71.5169 12.3695C71.5457 12.4863 71.5744 12.6246 71.6034 12.7848C71.3579 13.0618 71.1449 13.3279 70.9645 13.5827C70.784 13.8379 70.6143 14.0963 70.4557 14.3588C70.2967 14.621 70.1451 14.898 70.001 15.1894C69.8564 15.4811 69.6978 15.7943 69.5246 16.1293C69.4954 16.2024 69.4631 16.2789 69.4271 16.3588C69.391 16.4391 69.3515 16.5156 69.3081 16.5883C69.1057 16.8653 68.9433 17.197 68.8209 17.583C68.698 17.9693 68.561 18.3447 68.4094 18.7087C68.2577 19.0731 68.0737 19.3939 67.8572 19.6705C67.6407 19.9475 67.3374 20.1077 66.9476 20.1515L66.2765 19.605L66.2765 19.6051Z" fill="white"/>
<path d="M71.7985 16.3698C71.7985 15.8308 71.8667 15.2878 72.004 14.7413C72.1411 14.1948 72.3469 13.703 72.6213 13.2658C72.8954 12.8286 73.2348 12.4754 73.6392 12.2056C74.0431 11.9361 74.5123 11.8012 75.0467 11.8012C75.4218 11.8012 75.7505 11.8596 76.0319 11.976C76.3134 12.0929 76.5479 12.2458 76.7357 12.435C76.9231 12.6245 77.0639 12.8395 77.158 13.0799C77.2517 13.3204 77.2986 13.5717 77.2986 13.834C77.2986 14.1694 77.2371 14.4936 77.1147 14.8068C76.9918 15.1204 76.8148 15.4008 76.5841 15.6484C76.3529 15.8963 76.0677 16.0965 75.7287 16.2496C75.3893 16.4025 75.0034 16.4866 74.5703 16.5009C74.3825 16.5156 74.2163 16.5084 74.0723 16.479C73.9277 16.45 73.7617 16.4064 73.5741 16.3478C73.5597 16.4209 73.5524 16.4828 73.5524 16.5336V16.6539C73.5666 17.1932 73.6534 17.6158 73.8123 17.9217C73.9709 18.2277 74.1441 18.4573 74.3319 18.6102C74.5196 18.7633 74.7001 18.8616 74.8733 18.9053C75.0467 18.9491 75.162 18.9709 75.2199 18.9709C75.6672 18.9709 76.0389 18.8692 76.3349 18.6649C76.6308 18.461 76.9592 18.2353 77.3204 17.9872C77.3923 18.0167 77.4718 18.0494 77.5585 18.0856C77.6452 18.1221 77.7243 18.1915 77.7967 18.2933C77.811 18.3807 77.8254 18.45 77.84 18.5009C77.8541 18.5521 77.8617 18.6287 77.8617 18.7304C77.8472 18.9346 77.793 19.1057 77.6994 19.2441C77.6053 19.3828 77.5006 19.503 77.3853 19.6048C77.0098 19.9255 76.6598 20.1329 76.3349 20.2277C76.0101 20.3224 75.588 20.3699 75.0682 20.3699C74.8371 20.3699 74.5518 20.3187 74.2128 20.2168C73.8734 20.1146 73.5883 20.0054 73.3575 19.8889C73.0111 19.6266 72.7404 19.3643 72.5454 19.102C72.3506 18.8397 72.199 18.563 72.0907 18.2713C71.9824 17.9799 71.9102 17.6777 71.8742 17.3642C71.838 17.0509 71.8127 16.7193 71.7985 16.3695L71.7985 16.3698ZM73.6823 15.1894C73.7398 15.2041 73.8303 15.215 73.953 15.2222C74.0756 15.2298 74.1729 15.2331 74.2455 15.2331C74.7361 15.2331 75.1151 15.1094 75.3823 14.8615C75.6493 14.6138 75.7829 14.315 75.7829 13.9652C75.7829 13.7613 75.7252 13.5718 75.6097 13.3969C75.494 13.222 75.3352 13.1346 75.1333 13.1346C74.9889 13.1346 74.848 13.1492 74.7109 13.1783C74.5737 13.2078 74.469 13.2804 74.3971 13.3969C74.3392 13.47 74.2742 13.5428 74.2021 13.6154C74.1298 13.6885 74.0613 13.7904 73.9964 13.9215C73.9314 14.0526 73.87 14.2166 73.8124 14.4133C73.7545 14.61 73.7111 14.8689 73.6824 15.1893L73.6823 15.1894Z" fill="white"/>
<path d="M79.1393 19.6924C79.1681 19.6196 79.1861 19.4848 79.1935 19.288C79.2007 19.0913 79.2043 18.8474 79.2043 18.5556C79.2043 18.279 79.2007 17.9801 79.1935 17.6594C79.1861 17.3391 79.1789 17.044 79.1719 16.7741C79.1643 16.5046 79.1573 16.2714 79.1501 16.0745C79.1427 15.8778 79.1393 15.7651 79.1393 15.7357V15.0144C79.1393 14.694 79.1285 14.3733 79.1068 14.0525C79.0852 13.7322 79.0671 13.4115 79.0526 13.0907V13.0032C79.0526 12.872 79.0236 12.7447 78.9662 12.6207C78.9082 12.4971 78.8795 12.3621 78.8795 12.2162C78.9369 12.027 79.0165 11.8812 79.1178 11.7791C79.2185 11.6774 79.3993 11.6261 79.6592 11.6261C79.9045 11.6261 80.0993 11.6736 80.2437 11.7682C80.3879 11.8631 80.4961 11.9796 80.5685 12.118C80.6406 12.2566 80.6877 12.413 80.7094 12.5879C80.7309 12.7627 80.7489 12.9304 80.7635 13.0906L80.8284 14.2492C80.9727 14.1326 81.1243 13.9616 81.2833 13.7355C81.4419 13.5098 81.6082 13.2656 81.7813 13.0032C81.9545 12.7408 82.1349 12.486 82.3227 12.2381C82.5101 11.9905 82.705 11.7866 82.9074 11.6261C83.0227 11.568 83.1671 11.5386 83.3405 11.5386C83.6868 11.5386 83.9648 11.6042 84.1741 11.7354C84.3833 11.8665 84.5457 12.0779 84.6613 12.3693C84.6321 12.5005 84.553 12.65 84.4232 12.8174C84.2932 12.985 84.1449 13.16 83.9791 13.342C83.8131 13.5244 83.6399 13.7136 83.4595 13.9103C83.2787 14.107 83.1239 14.3004 82.9938 14.4896C82.7773 14.723 82.5608 15.007 82.3442 15.3422C82.1276 15.6775 81.9328 16.0197 81.7595 16.3695C81.5863 16.7193 81.4418 17.0509 81.3264 17.3642C81.2107 17.6777 81.1532 17.929 81.1532 18.1183C81.1532 18.2351 81.1566 18.3991 81.164 18.6101C81.1712 18.8215 81.175 18.9855 81.175 19.1019C81.175 19.2769 81.1605 19.4554 81.1317 19.6375C81.1025 19.8199 81.045 19.9873 80.9585 20.1402C80.8718 20.2933 80.7561 20.4169 80.6119 20.5119C80.4675 20.6064 80.2797 20.6539 80.049 20.6539C79.7744 20.6539 79.5543 20.5699 79.3886 20.4025C79.2223 20.2349 79.1395 20.0271 79.1395 19.7795V19.6921L79.1393 19.6924Z" fill="white"/>
<path d="M88.3641 15.714C88.6528 16.2681 88.9197 16.8254 89.1654 17.3862C89.4107 17.9474 89.5333 18.5776 89.5333 19.2772C89.5333 19.6416 89.4718 19.9842 89.3493 20.3045C89.2265 20.6249 89.057 20.9091 88.8405 21.157C88.624 21.4046 88.3641 21.6015 88.0608 21.7472C87.7578 21.8927 87.433 21.9658 87.0863 21.9658C86.7833 21.9658 86.505 21.8456 86.2527 21.6051C86 21.3647 85.8591 21.0914 85.8303 20.7854C85.8878 20.6685 85.942 20.5848 85.9927 20.534C86.043 20.4828 86.1551 20.4356 86.3283 20.3919C86.5015 20.5668 86.6749 20.6542 86.8482 20.6542C87.0935 20.6542 87.31 20.5449 87.4978 20.3263C87.6852 20.1077 87.7793 19.831 87.7793 19.4957C87.7793 19.3791 87.7719 19.3064 87.7577 19.2771C87.5987 18.6213 87.3965 18.0277 87.1512 17.4955C86.9057 16.9637 86.664 16.4647 86.4258 15.9982C86.1877 15.532 85.982 15.091 85.8088 14.6756C85.6354 14.2603 85.5489 13.8416 85.5489 13.4187C85.5489 13.0689 85.5777 12.7083 85.6354 12.3367C85.6929 11.965 85.7942 11.619 85.9386 11.2984C86.0829 10.9779 86.2743 10.7156 86.5125 10.5115C86.7507 10.3075 87.0573 10.2054 87.4329 10.2054C87.476 10.2054 87.5158 10.2092 87.5519 10.2163C87.5877 10.2238 87.6276 10.2272 87.6709 10.2272C87.8152 10.2272 87.9379 10.3038 88.0391 10.4568C88.14 10.6097 88.2123 10.7447 88.2557 10.8612C88.2557 10.978 88.2157 11.0688 88.1366 11.1345C88.0571 11.2 87.9812 11.2694 87.9091 11.3421C87.7359 11.5754 87.6094 11.8339 87.5301 12.1182C87.4506 12.4023 87.4111 12.6903 87.4111 12.9816V13.5062C87.4111 13.6083 87.447 13.7543 87.5194 13.9433C87.5915 14.1329 87.6744 14.3334 87.7685 14.5445C87.8621 14.7559 87.9558 14.9527 88.0499 15.1347C88.1436 15.3172 88.2196 15.4517 88.2773 15.5392L88.364 15.714H88.3641Z" fill="white"/>
<path d="M93.3445 20.1297C93.0988 20.1297 92.8789 20.0603 92.6841 19.922C92.4891 19.7837 92.2834 19.6487 92.0669 19.5175C91.5906 19.2409 91.2225 18.8765 90.9626 18.4246C90.7027 17.9731 90.5728 17.4191 90.5728 16.7633C90.5728 16.4429 90.627 16.0604 90.7352 15.6157C90.8435 15.1712 90.9409 14.7597 91.0275 14.3806C91.0709 14.2205 91.1718 13.998 91.3307 13.7139C91.4893 13.4298 91.6879 13.1531 91.9262 12.8833C92.1644 12.6138 92.4351 12.3771 92.7383 12.1729C93.0413 11.969 93.3518 11.8668 93.6694 11.8668C93.7992 11.8668 93.9292 11.9106 94.0591 11.998C94.261 12.1292 94.4706 12.2385 94.6871 12.3259C94.9037 12.4134 95.1236 12.5009 95.3475 12.5883C95.5712 12.6757 95.7914 12.7707 96.0079 12.8724C96.2245 12.9746 96.4264 13.1058 96.6142 13.2659C96.7731 13.397 96.8959 13.5576 96.9824 13.7468C97.0691 13.9363 97.1556 14.1184 97.2423 14.2933C97.3144 14.4392 97.3578 14.5884 97.3721 14.7415C97.3865 14.8944 97.3939 15.0512 97.3939 15.2114V15.6267C97.3793 16.0786 97.289 16.4976 97.1232 16.8836C96.957 17.2699 96.7584 17.6453 96.5277 18.0094C96.412 18.1989 96.2604 18.4176 96.0728 18.6652C95.885 18.9131 95.6756 19.1461 95.445 19.3647C95.2138 19.5833 94.9719 19.7692 94.7194 19.9221C94.4667 20.0752 94.2106 20.1517 93.9507 20.1517C93.8784 20.1517 93.8025 20.1478 93.7234 20.1407C93.6438 20.1332 93.561 20.1298 93.4743 20.1298H93.3445L93.3445 20.1297ZM95.4666 14.9053C95.4666 14.4827 95.315 14.1768 95.012 13.9872C94.7087 13.7979 94.3765 13.703 94.0157 13.703C93.7269 13.703 93.4815 13.8161 93.2796 14.0418C93.0772 14.2679 92.904 14.5446 92.7598 14.8725C92.6153 15.2004 92.5108 15.5501 92.4457 15.9218C92.3808 16.2933 92.3484 16.6179 92.3484 16.8945C92.3484 16.9529 92.3592 17.0694 92.3808 17.2442C92.4025 17.4192 92.4421 17.6015 92.4998 17.7907C92.5573 17.9802 92.6406 18.148 92.7489 18.2935C92.8572 18.4393 92.998 18.5121 93.1712 18.5121C93.3298 18.5121 93.4742 18.4868 93.6043 18.4356C93.7341 18.3846 93.8784 18.3229 94.0373 18.2498C94.2681 18.1043 94.4704 17.9076 94.6436 17.6595C94.8168 17.4119 94.9577 17.1425 95.066 16.8508C95.1743 16.5594 95.2608 16.2534 95.3259 15.9326C95.3908 15.6123 95.4375 15.3062 95.4665 15.0146V14.9053H95.4666Z" fill="white"/>
<path d="M29.8136 47.7379C28.7907 48.273 25.01 50 18.7431 50C12.8579 50 8.76974 48.2597 7.66426 47.7307C7.48716 47.6461 7.39147 47.4505 7.43098 47.256L8.80208 40.5761L8.82484 40.5725C11.7393 40.1063 15.1515 39.1377 18.6941 37.7706C22.2032 39.139 25.6106 40.0604 28.5502 40.4348L28.6089 40.4421L30.0326 47.2706C30.0709 47.4578 29.9824 47.6486 29.8137 47.738L29.8136 47.7379Z" fill="white"/>
<path d="M28.5275 39.9432C25.7901 39.5882 22.6231 38.7464 19.3617 37.5097C20.0305 37.2427 20.6873 36.9698 21.3155 36.6957C23.4128 35.7827 25.4132 34.7923 27.2569 33.75L28.5275 39.9432H28.5275Z" fill="white"/>
<path d="M23.5157 15.5278L25.8343 11.8068C25.9265 11.657 25.8391 11.4614 25.6681 11.4324L23.5157 11.0689V7.08331L25.5652 7.05551C25.8164 7.05309 25.9791 6.78856 25.8715 6.55915C25.2421 5.23305 23.213 1.6401 19.5077 1.22219V0.699272C19.5077 0.313999 19.1966 0 18.815 0H18.6451C18.2646 0 17.9524 0.313999 17.9524 0.699272V1.22219C14.2471 1.6401 12.2179 5.23305 11.5886 6.55915C11.4797 6.78863 11.6437 7.05309 11.8949 7.05551L13.9444 7.08331V11.0084L11.7824 11.4263C11.6137 11.459 11.5312 11.6521 11.6221 11.7983L13.9444 15.5278L10.3527 33.1377L10.4042 33.1691C12.1952 34.2524 14.1239 35.2621 16.1374 36.1715C16.9737 36.5495 17.8339 36.9131 18.6954 37.2524C19.5137 36.9336 20.3308 36.5966 21.1253 36.2512C23.2215 35.3406 25.2279 34.3442 27.0895 33.2911L27.1409 33.2621L23.5158 15.5278L23.5157 15.5278ZM20.2004 9.9505C20.2004 10.0918 20.0879 10.2053 19.9492 10.2053H17.5109C17.372 10.2053 17.2584 10.0918 17.2584 9.9505V8.30799C17.2584 7.49156 17.92 6.82368 18.73 6.82368C19.1344 6.82368 19.5017 6.99038 19.7684 7.25967C20.0353 7.52896 20.2004 7.89974 20.2004 8.30799V9.9505Z" fill="white"/>
<path d="M18.03 37.5072C14.765 38.7366 11.6136 39.6232 8.9061 40.0712L10.2281 33.6256C12.0144 34.7016 13.937 35.7077 15.9422 36.6135C16.6421 36.9299 17.3444 37.2294 18.03 37.5072H18.03Z" fill="white"/>
<path d="M36.6367 38.4118C36.0098 39.8261 34.147 40.5628 31.2923 40.5628C30.4752 40.5628 29.5743 40.5011 28.598 40.3792L28.5393 40.0193C28.5597 40.0132 28.5812 40.012 28.6028 40.0144C32.7723 40.5446 35.5815 39.9069 36.3089 38.2644C37.034 36.6304 35.6497 34.1038 32.5115 31.3333C32.4373 31.2681 32.4302 31.1533 32.4947 31.0785C32.5606 31.0024 32.6742 30.9951 32.7484 31.0616C36.0613 33.9855 37.442 36.5966 36.6367 38.4118Z" fill="white"/>
<path d="M31.1051 30.1212C31.067 30.1212 31.0286 30.1089 30.996 30.0838C29.6173 29.017 28.0481 27.9704 26.3318 26.9731C26.2459 26.9232 26.2164 26.8125 26.2658 26.7257C26.3152 26.639 26.425 26.6092 26.5109 26.6591C28.2408 27.6643 29.8232 28.7198 31.2144 29.7962C31.2931 29.8571 31.3079 29.9707 31.2477 30.0502C31.2123 30.0967 31.159 30.1211 31.1052 30.1211L31.1051 30.1212Z" fill="white"/>
<path d="M6.56776 31.0456C6.53006 31.0456 6.49215 31.0337 6.45982 31.009C2.00119 27.6129 -0.104677 24.3316 0.826542 22.2316C1.82489 19.98 6.0235 19.4589 12.0576 20.838C12.1544 20.86 12.215 20.9571 12.1931 21.0546C12.1712 21.1523 12.0748 21.2133 11.9784 21.1913C6.21096 19.8733 2.06346 20.3286 1.15413 22.3796C0.296053 24.3146 2.36031 27.4324 6.67591 30.7198C6.75508 30.7801 6.77081 30.8937 6.71107 30.9735C6.67577 31.0208 6.62205 31.0456 6.56769 31.0456H6.56776Z" fill="white"/>
<path d="M10.3371 33.1993L10.2462 33.5531C10.2258 33.5495 10.2067 33.5422 10.1888 33.5314C9.38954 33.0483 8.61664 32.5483 7.88927 32.0459C7.80793 31.9891 7.78756 31.8768 7.84258 31.7935C7.89884 31.7114 8.01127 31.6909 8.09261 31.7464C8.80207 32.2379 9.55823 32.7271 10.3371 33.1993V33.1993Z" fill="white"/>
<path d="M27.294 33.6606C27.2772 33.6703 27.2581 33.6775 27.2401 33.6799L27.1551 33.3225C33.751 29.5882 37.5915 25.6969 36.711 23.6365C36.6057 23.3914 36.431 23.1727 36.1917 22.9868C36.1128 22.9264 36.0972 22.8128 36.1582 22.7331C36.218 22.6535 36.3305 22.639 36.4095 22.6993C36.699 22.9227 36.9108 23.1897 37.0412 23.494C38.0138 25.7718 34.1877 29.7633 27.294 33.6607V33.6606Z" fill="white"/>
<path d="M26.0673 23.1675C25.9867 23.1675 25.9135 23.1123 25.8932 23.0299C25.8694 22.9328 25.9281 22.8345 26.0243 22.8104C26.6851 22.6453 28.091 22.3203 28.6788 22.2015C28.7765 22.1813 28.8706 22.2455 28.89 22.3436C28.9094 22.4417 28.8464 22.5371 28.7493 22.5567C28.1763 22.6725 26.754 23.0012 26.1106 23.162C26.0961 23.1656 26.0815 23.1674 26.0673 23.1674V23.1675Z" fill="white"/>
<path d="M1.6388 36.7947C1.60698 36.7947 1.57479 36.7862 1.54565 36.7682C1.46098 36.7162 1.43416 36.6047 1.48578 36.5193C2.78844 34.3608 6.08482 31.6661 10.5297 29.1259C10.6159 29.0765 10.7254 29.1072 10.7742 29.1943C10.8231 29.2813 10.7927 29.3919 10.7064 29.4411C6.31317 31.9517 3.06412 34.6004 1.7922 36.7077C1.75841 36.7637 1.69933 36.7946 1.6388 36.7946V36.7947Z" fill="white"/>
<path d="M8.77243 40.1664L8.68479 40.5307C7.44229 40.6786 6.32281 40.7352 5.34759 40.7014C4.0869 40.6577 3.06659 40.4629 2.32653 40.1218C2.2362 40.08 2.19633 39.9723 2.23823 39.8807C2.27897 39.7902 2.38619 39.7504 2.47767 39.7923C3.73887 40.375 5.89424 40.504 8.709 40.1629C8.73147 40.1601 8.75256 40.162 8.77243 40.1664Z" fill="white"/>
<path d="M35.1676 22.2805L34.9206 22.3642C33.9283 22.7007 33.1752 23.4852 32.9536 24.5179L32.7456 25.5845C32.717 25.718 32.5294 25.7212 32.4962 25.5888L32.2269 24.5179C31.9834 23.5453 31.2619 22.7057 30.325 22.3711L30.069 22.2797C29.9496 22.237 29.9573 22.064 30.0801 22.0324L30.0822 22.0318C31.1534 21.7562 31.9721 20.8514 32.2269 19.7656L32.4957 18.7243C32.5274 18.5894 32.7186 18.5925 32.7459 18.7284L32.9535 19.7656C33.1831 20.9062 34.0362 21.7583 35.1569 22.0321C35.2818 22.0626 35.2894 22.2391 35.1676 22.2804V22.2805Z" fill="white"/>
<path d="M1.25627 39.7705C1.95009 39.7705 2.51254 39.2028 2.51254 38.5024C2.51254 37.802 1.95009 37.2343 1.25627 37.2343C0.562451 37.2343 0 37.802 0 38.5024C0 39.2028 0.562451 39.7705 1.25627 39.7705Z" fill="white"/>
</svg>
