<svg width="90" height="75" viewBox="0 0 90 75" fill="none" xmlns="http://www.w3.org/2000/svg">
<path d="M32.3106 0C37.2073 0 41.9035 1.97582 45.366 5.49282C48.8286 9.00981 50.7738 13.7799 50.7738 18.7536C50.7738 23.7274 48.8286 28.4975 45.366 32.0145C41.9035 35.5315 37.2073 37.5073 32.3106 37.5073C27.4138 37.5073 22.7177 35.5315 19.2551 32.0145C15.7926 28.4975 13.8474 23.7274 13.8474 18.7536C13.8474 13.7799 15.7926 9.00981 19.2551 5.49282C22.7177 1.97582 27.4138 0 32.3106 0ZM25.7186 44.5399H38.9025C40.6046 44.5399 42.2778 44.7157 43.8789 45.0234C43.576 47.7339 44.9463 50.2393 47.0234 51.5872C44.629 53.1402 43.1721 56.217 44.1386 59.3963C44.7155 61.2863 45.4945 63.1324 46.5042 64.9052C47.5139 66.678 48.6967 68.2896 50.0237 69.7401C52.2883 72.2162 55.7358 72.4359 58.2744 71.0148V71.1466C58.2744 72.4946 58.6639 73.8571 59.414 74.9999H4.28404C1.91844 75.0146 0 73.0659 0 70.6631C0 56.2316 11.5106 44.5399 25.7186 44.5399ZM62.8902 31.9691C62.8902 30.9435 63.5393 30.0205 64.5202 29.8007C66.0348 29.4491 67.6214 29.2586 69.237 29.2586C70.8525 29.2586 72.4392 29.4491 73.9537 29.8007C74.9346 30.0205 75.5837 30.9435 75.5837 31.9691V34.5624C75.5837 35.7052 76.2761 36.7308 77.2569 37.3022C78.2378 37.8736 79.435 37.9615 80.4014 37.3901L82.392 36.2326C83.2719 35.7198 84.3681 35.837 85.0605 36.5843C86.1568 37.771 87.1232 39.1043 87.9598 40.5694C88.7964 42.0345 89.4455 43.5583 89.9071 45.1113C90.21 46.0929 89.7484 47.1185 88.8685 47.6313L86.7914 48.8474C85.8538 49.3895 85.349 50.4444 85.349 51.5432C85.349 52.6421 85.8538 53.697 86.7914 54.2391L88.8685 55.4551C89.7484 55.9679 90.1956 56.9935 89.9071 57.9751C89.4311 59.5282 88.782 61.0519 87.9598 62.517C87.1376 63.9822 86.1568 65.3154 85.0605 66.5022C84.3681 67.2494 83.2575 67.3666 82.392 66.8538L80.4014 65.6964C79.435 65.125 78.2233 65.2129 77.2569 65.7843C76.2761 66.3557 75.5837 67.3813 75.5837 68.5241V71.1173C75.5837 72.1429 74.9346 73.066 73.9537 73.2857C72.4392 73.6374 70.8525 73.8278 69.237 73.8278C67.6214 73.8278 66.0348 73.6374 64.5202 73.2857C63.5393 73.066 62.8902 72.1429 62.8902 71.1173V68.5387C62.8902 67.3813 62.1835 66.3557 61.2026 65.7696C60.2217 65.1982 59.0101 65.1103 58.0292 65.6817L56.0819 66.8245C55.2021 67.3373 54.1058 67.2201 53.4134 66.4729C52.3172 65.2861 51.3508 63.9529 50.5141 62.4877C49.6775 61.0226 49.0284 59.4989 48.5669 57.9458C48.2639 56.9642 48.7255 55.9386 49.6054 55.4258L51.6248 54.2391C52.5624 53.6823 53.0817 52.6128 53.0817 51.5139C53.0817 50.4151 52.5768 49.3455 51.6248 48.7888L49.6054 47.602C48.7255 47.0892 48.2784 46.0636 48.5669 45.082C49.0429 43.529 49.6775 42.0052 50.5141 40.5401C51.3508 39.075 52.3172 37.7417 53.4134 36.555C54.1058 35.8077 55.2021 35.6905 56.0819 36.2033L58.0437 37.3461C59.0245 37.9175 60.2362 37.8296 61.217 37.2582C62.2123 36.6868 62.9047 35.6466 62.9047 34.4891V31.9691H62.8902ZM76.1751 51.5286C76.2178 50.577 76.0702 49.6266 75.7412 48.7347C75.4122 47.8427 74.9085 47.0278 74.2607 46.3391C73.6129 45.6503 72.8344 45.1022 71.9722 44.7277C71.11 44.3531 70.1819 44.1601 69.2442 44.1601C68.3064 44.1601 67.3784 44.3531 66.5162 44.7277C65.654 45.1022 64.8754 45.6503 64.2276 46.3391C63.5798 47.0278 63.0762 47.8427 62.7472 48.7347C62.4181 49.6266 62.2705 50.577 62.3133 51.5286C62.2705 52.4801 62.4181 53.4305 62.7472 54.3225C63.0762 55.2144 63.5798 56.0294 64.2276 56.7181C64.8754 57.4068 65.654 57.9549 66.5162 58.3295C67.3784 58.704 68.3064 58.8971 69.2442 58.8971C70.1819 58.8971 71.11 58.704 71.9722 58.3295C72.8344 57.9549 73.6129 57.4068 74.2607 56.7181C74.9085 56.0294 75.4122 55.2144 75.7412 54.3225C76.0702 53.4305 76.2178 52.4801 76.1751 51.5286Z" fill="#8000FF"/>
</svg>
