<svg width="75" height="75" viewBox="0 0 75 75" fill="none" xmlns="http://www.w3.org/2000/svg">
<path d="M33.9744 0.0846841C16.2263 1.92961 2.54384 15.2341 0.188429 32.9333C-0.0966212 35.1082 -0.0516133 40.568 0.278445 42.7579C0.5935 44.8878 1.50866 48.5627 2.13877 50.2576C7.13465 63.7121 18.6717 72.9067 32.9242 74.8116C35.0996 75.0966 40.5605 75.0516 42.7509 74.7216C44.8813 74.4066 48.557 73.4917 50.2522 72.8617C63.7096 67.8669 72.9062 56.3324 74.8116 42.083C75.0966 39.908 75.0516 34.4483 74.7216 32.2584C73.5814 24.6987 70.4458 18.0239 65.3449 12.2792C59.6439 5.84445 51.0924 1.38963 42.2258 0.234678C40.5155 0.00968718 35.5647 -0.0803091 33.9744 0.0846841ZM42.7509 7.56938C51.1674 9.14431 58.1136 13.7041 62.8095 20.7238C69.5456 30.8034 69.5606 44.1829 62.8545 54.2475C61.7893 55.8224 59.8389 58.2823 59.6439 58.2823C59.5989 58.2823 59.2538 57.6973 58.8938 56.9923C56.2833 51.8776 51.1674 48.1127 45.4664 47.1078C43.5611 46.7778 31.4689 46.7778 29.5786 47.1078C23.7726 48.1127 18.6567 51.8926 16.0612 57.0823L15.3861 58.4173L14.4709 57.3223C10.3152 52.3875 7.9898 46.9878 7.25467 40.583C7.01463 38.4531 7.16466 34.3883 7.55473 32.2584C10.0002 19.0289 20.247 9.24931 33.5993 7.35939C35.7747 7.0444 40.5755 7.16439 42.7509 7.56938Z" fill="#ECECEC"/>
<path d="M35.9247 16.4491C32.9992 16.794 30.3587 18.114 28.2583 20.2889C26.6531 21.9538 25.7229 23.5438 25.0328 25.8387C24.6727 26.9936 24.6277 27.4286 24.6277 29.2585C24.6277 30.9535 24.6877 31.5984 24.9428 32.5584C26.263 37.4032 30.1337 41.033 35.0095 42.023C36.6748 42.353 39.4203 42.248 40.9956 41.798C48.3769 39.6681 52.3376 31.6884 49.5471 24.5337C48.7069 22.3888 46.9366 20.1389 44.9713 18.744C42.4808 16.959 39.0302 16.0741 35.9247 16.4491Z" fill="#ECECEC"/>
</svg>
