<svg width="75" height="75" viewBox="0 0 75 75" fill="none" xmlns="http://www.w3.org/2000/svg">
<path d="M59.5459 58.5352C56.748 51.6943 50.0244 46.875 42.1875 46.875H32.8125C24.9756 46.875 18.252 51.6943 15.4541 58.5352C10.2393 53.0566 7.03125 45.6592 7.03125 37.5C7.03125 20.6689 20.6689 7.03125 37.5 7.03125C54.3311 7.03125 67.9688 20.6689 67.9688 37.5C67.9688 45.6592 64.7607 53.0566 59.5459 58.5352ZM53.6719 63.3252C48.9844 66.2695 43.4473 67.9688 37.5 67.9688C31.5527 67.9688 26.0156 66.2695 21.3135 63.3252C22.3828 57.9492 27.1289 53.9062 32.8125 53.9062H42.1875C47.8711 53.9062 52.6172 57.9492 53.6865 63.3252H53.6719ZM37.5 75C47.4456 75 56.9839 71.0491 64.0165 64.0165C71.0491 56.9839 75 47.4456 75 37.5C75 27.5544 71.0491 18.0161 64.0165 10.9835C56.9839 3.95088 47.4456 0 37.5 0C27.5544 0 18.0161 3.95088 10.9835 10.9835C3.95088 18.0161 0 27.5544 0 37.5C0 47.4456 3.95088 56.9839 10.9835 64.0165C18.0161 71.0491 27.5544 75 37.5 75ZM37.5 35.1562C35.946 35.1562 34.4556 34.5389 33.3568 33.4401C32.258 32.3412 31.6406 30.8509 31.6406 29.2969C31.6406 27.7429 32.258 26.2525 33.3568 25.1537C34.4556 24.0548 35.946 23.4375 37.5 23.4375C39.054 23.4375 40.5444 24.0548 41.6432 25.1537C42.742 26.2525 43.3594 27.7429 43.3594 29.2969C43.3594 30.8509 42.742 32.3412 41.6432 33.4401C40.5444 34.5389 39.054 35.1562 37.5 35.1562ZM24.6094 29.2969C24.6094 32.7157 25.9675 35.9945 28.385 38.4119C30.8024 40.8294 34.0812 42.1875 37.5 42.1875C40.9188 42.1875 44.1976 40.8294 46.615 38.4119C49.0325 35.9945 50.3906 32.7157 50.3906 29.2969C50.3906 25.8781 49.0325 22.5993 46.615 20.1818C44.1976 17.7644 40.9188 16.4063 37.5 16.4062C34.0812 16.4063 30.8024 17.7644 28.385 20.1818C25.9675 22.5993 24.6094 25.8781 24.6094 29.2969Z" fill="#F3F4F9"/>
<path d="M53.6719 63.3252C48.9844 66.2695 43.4473 67.9688 37.5 67.9688C31.5527 67.9688 26.0156 66.2695 21.3135 63.3252C22.3828 57.9492 27.1289 53.9062 32.8125 53.9062H42.1875C47.8711 53.9062 52.6172 57.9492 53.6865 63.3252H53.6719Z" fill="#F3F4F9"/>
<path d="M37.5 35.1562C35.946 35.1562 34.4556 34.5389 33.3568 33.4401C32.258 32.3412 31.6406 30.8509 31.6406 29.2969C31.6406 27.7429 32.258 26.2525 33.3568 25.1537C34.4556 24.0548 35.946 23.4375 37.5 23.4375C39.054 23.4375 40.5444 24.0548 41.6432 25.1537C42.742 26.2525 43.3594 27.7429 43.3594 29.2969C43.3594 30.8509 42.742 32.3412 41.6432 33.4401C40.5444 34.5389 39.054 35.1562 37.5 35.1562Z" fill="#F3F4F9"/>
</svg>
