<svg width="75" height="75" viewBox="0 0 75 75" fill="none" xmlns="http://www.w3.org/2000/svg">
<path d="M18.5408 0.987461C16.3075 2.72727 16.7827 4.18495 21.772 11.2853L26.2385 17.5862L22.1046 20.6426C14.0267 26.6144 7.9446 33.7618 4.00071 41.9436C1.10219 47.9624 0.10434 52.3354 0.0093061 59.2476C-0.0382106 64.7492 0.0568228 65.2665 1.24474 67.5235C2.81279 70.4859 5.56876 72.9781 8.56232 74.1066C10.7481 74.953 12.5537 75 37.5 75C62.4463 75 64.2519 74.953 66.4377 74.1066C69.4312 72.9781 72.1872 70.4859 73.7553 67.5235C74.9432 65.2665 75.0382 64.7492 74.9907 59.2476C74.8957 52.3354 73.8978 47.9624 70.9993 41.9436C67.0554 33.7618 60.9733 26.6144 52.8954 20.6426L48.7615 17.5862L53.228 11.2853C58.2173 4.18495 58.6925 2.72727 56.4592 0.987461C55.2237 0.047022 54.7011 0 37.5 0C20.2989 0 19.7763 0.047022 18.5408 0.987461ZM51.9926 4.98433C51.9926 5.12539 50.2345 7.75862 48.1437 10.8621L44.2474 16.4577H30.7526L26.8563 10.8621C24.7655 7.75862 23.0074 5.12539 23.0074 4.98433C23.0074 4.84326 29.5172 4.70219 37.5 4.70219C45.4828 4.70219 51.9926 4.84326 51.9926 4.98433ZM49.4742 23.558C63.4916 34.0439 70.5241 45.9404 70.7142 59.4828C70.7617 63.2915 70.6192 63.9498 69.4788 65.8777C68.6235 67.3354 67.483 68.3699 65.8675 69.2633L63.4916 70.5329H11.5084L9.13252 69.2633C7.51695 68.3699 6.37655 67.3354 5.52125 65.8777C4.38084 63.9498 4.23829 63.2915 4.28581 59.4828C4.47588 45.9404 11.5084 34.0909 25.5258 23.558L28.7569 21.1599H46.2431L49.4742 23.558Z" fill="#F3F4F9"/>
<path d="M35.9319 30.1881C35.5993 30.5172 35.3617 31.5047 35.3617 32.3981C35.3142 33.9498 35.1242 34.185 32.8434 35.2665C28.5669 37.2884 27.0938 41.1442 29.1846 44.5768C30.42 46.5517 32.1306 47.5392 36.9773 49.0909C41.5864 50.5486 42.9169 51.6301 42.1091 53.3699C41.7765 54.0752 40.9212 54.6865 39.6383 55.0627C37.9277 55.5799 37.2149 55.5329 34.0313 54.5925C29.9448 53.4169 28.852 53.605 28.3768 55.3919C27.9967 56.8495 29.3271 58.0721 32.1781 58.8245C33.271 59.1066 34.4589 59.4357 34.7915 59.5298C35.1242 59.6238 35.3617 60.4702 35.3617 61.5047C35.3617 63.5266 36.027 64.4201 37.5 64.4201C38.973 64.4201 39.6383 63.5266 39.6383 61.5987C39.6383 60 39.7808 59.8119 41.4914 59.2947C43.5346 58.7304 46.1005 56.1442 46.5757 54.2633C47.0033 52.7116 46.5282 50.0313 45.5778 48.6207C44.7225 47.3041 41.4439 45.5643 37.9277 44.5298C32.1306 42.837 30.9902 41.0502 34.554 39.3103C36.217 38.511 36.7397 38.511 39.9234 39.0282C43.8672 39.6395 44.8651 39.3103 44.8651 37.3824C44.8651 36.0188 43.5821 34.9843 41.4439 34.6081C39.7333 34.279 39.6383 34.185 39.6383 32.5392C39.6383 30.5172 38.973 29.6238 37.5 29.6238C36.9298 29.6238 36.2646 29.8589 35.9319 30.1881Z" fill="#F3F4F9"/>
</svg>
